<svg width="392.000000" height="409.000000" viewBox="0 0 392 409" fill="none" xmlns="http://www.w3.org/2000/svg" xmlns:xlink="http://www.w3.org/1999/xlink">
	<desc>
			Created with Pixso.
	</desc>
	<defs/>
	<path id="Vector" d="M330.06 212.12L61.52 212.12L61.52 325.24L330.06 325.24L330.06 212.12Z" fill="#38BFF2" fill-opacity="1.000000" fill-rule="nonzero"/>
	<path id="Vector" d="M330.06 212.12L330.06 325.24L61.52 325.24L61.52 212.12L330.06 212.12Z" stroke="#263238" stroke-opacity="1.000000" stroke-width="1.000000" stroke-linejoin="round"/>
	<path id="Vector" d="M92.4 218.96L67.13 218.96L67.13 232.95L92.4 232.95L92.4 218.96Z" fill="#FFFFFF" fill-opacity="1.000000" fill-rule="nonzero"/>
	<path id="Vector" d="M92.4 218.96L92.4 232.95L67.13 232.95L67.13 218.96L92.4 218.96Z" stroke="#263238" stroke-opacity="1.000000" stroke-width="1.000000"/>
	<path id="Vector" d="M323.85 287.15L284.06 287.15L284.06 301.14L323.85 301.14L323.85 287.15Z" fill="#FFFFFF" fill-opacity="1.000000" fill-rule="nonzero"/>
	<path id="Vector" d="M323.85 287.15L323.85 301.14L284.06 301.14L284.06 287.15L323.85 287.15Z" stroke="#263238" stroke-opacity="1.000000" stroke-width="1.000000"/>
	<path id="Vector" d="M323.86 236.43L299.29 236.43L299.29 250.41L323.86 250.41L323.86 236.43Z" fill="#FFFFFF" fill-opacity="1.000000" fill-rule="nonzero"/>
	<path id="Vector" d="M323.86 236.43L323.86 250.41L299.29 250.41L299.29 236.43L323.86 236.43Z" stroke="#263238" stroke-opacity="1.000000" stroke-width="1.000000"/>
	<path id="Vector" d="M92.4 269.91L67.13 269.91L67.13 283.89L92.4 283.89L92.4 269.91Z" fill="#FFFFFF" fill-opacity="1.000000" fill-rule="nonzero"/>
	<path id="Vector" d="M92.4 269.91L92.4 283.89L67.13 283.89L67.13 269.91L92.4 269.91Z" stroke="#263238" stroke-opacity="1.000000" stroke-width="1.000000"/>
	<path id="Vector" d="M87.59 253.06L67.13 253.06L67.13 267.04L87.59 267.04L87.59 253.06Z" fill="#FFFFFF" fill-opacity="1.000000" fill-rule="nonzero"/>
	<path id="Vector" d="M87.59 253.06L87.59 267.04L67.13 267.04L67.13 253.06L87.59 253.06Z" stroke="#263238" stroke-opacity="1.000000" stroke-width="1.000000"/>
	<path id="Vector" d="M81.11 236.01L67.13 236.01L67.13 250L81.11 250L81.11 236.01Z" fill="#FFFFFF" fill-opacity="1.000000" fill-rule="nonzero"/>
	<path id="Vector" d="M81.11 236.01L81.11 250L67.13 250L67.13 236.01L81.11 236.01Z" stroke="#263238" stroke-opacity="1.000000" stroke-width="1.000000"/>
	<path id="Vector" d="M98.97 236.01L84.99 236.01L84.99 250L98.97 250L98.97 236.01Z" fill="#FFFFFF" fill-opacity="1.000000" fill-rule="nonzero"/>
	<path id="Vector" d="M98.97 236.01L98.97 250L84.99 250L84.99 236.01L98.97 236.01Z" stroke="#263238" stroke-opacity="1.000000" stroke-width="1.000000"/>
	<path id="Vector" d="M116.82 236.01L102.84 236.01L102.84 250L116.82 250L116.82 236.01Z" fill="#FFFFFF" fill-opacity="1.000000" fill-rule="nonzero"/>
	<path id="Vector" d="M116.82 236.01L116.82 250L102.84 250L102.84 236.01L116.82 236.01Z" stroke="#263238" stroke-opacity="1.000000" stroke-width="1.000000"/>
	<path id="Vector" d="M134.67 236.01L120.69 236.01L120.69 250L134.67 250L134.67 236.01Z" fill="#FFFFFF" fill-opacity="1.000000" fill-rule="nonzero"/>
	<path id="Vector" d="M134.67 236.01L134.67 250L120.69 250L120.69 236.01L134.67 236.01Z" stroke="#263238" stroke-opacity="1.000000" stroke-width="1.000000"/>
	<path id="Vector" d="M152.53 236.01L138.54 236.01L138.54 250L152.53 250L152.53 236.01Z" fill="#FFFFFF" fill-opacity="1.000000" fill-rule="nonzero"/>
	<path id="Vector" d="M152.53 236.01L152.53 250L138.54 250L138.54 236.01L152.53 236.01Z" stroke="#263238" stroke-opacity="1.000000" stroke-width="1.000000"/>
	<path id="Vector" d="M170.37 236.01L156.39 236.01L156.39 250L170.37 250L170.37 236.01Z" fill="#FFFFFF" fill-opacity="1.000000" fill-rule="nonzero"/>
	<path id="Vector" d="M170.37 236.01L170.37 250L156.39 250L156.39 236.01L170.37 236.01Z" stroke="#263238" stroke-opacity="1.000000" stroke-width="1.000000"/>
	<path id="Vector" d="M188.22 236.01L174.24 236.01L174.24 250L188.22 250L188.22 236.01Z" fill="#FFFFFF" fill-opacity="1.000000" fill-rule="nonzero"/>
	<path id="Vector" d="M188.22 236.01L188.22 250L174.24 250L174.24 236.01L188.22 236.01Z" stroke="#263238" stroke-opacity="1.000000" stroke-width="1.000000"/>
	<path id="Vector" d="M206.08 236.01L192.1 236.01L192.1 250L206.08 250L206.08 236.01Z" fill="#FFFFFF" fill-opacity="1.000000" fill-rule="nonzero"/>
	<path id="Vector" d="M206.08 236.01L206.08 250L192.1 250L192.1 236.01L206.08 236.01Z" stroke="#263238" stroke-opacity="1.000000" stroke-width="1.000000"/>
	<path id="Vector" d="M223.93 236.01L209.94 236.01L209.94 250L223.93 250L223.93 236.01Z" fill="#FFFFFF" fill-opacity="1.000000" fill-rule="nonzero"/>
	<path id="Vector" d="M223.93 236.01L223.93 250L209.94 250L209.94 236.01L223.93 236.01Z" stroke="#263238" stroke-opacity="1.000000" stroke-width="1.000000"/>
	<path id="Vector" d="M241.78 236.01L227.8 236.01L227.8 250L241.78 250L241.78 236.01Z" fill="#FFFFFF" fill-opacity="1.000000" fill-rule="nonzero"/>
	<path id="Vector" d="M241.78 236.01L241.78 250L227.8 250L227.8 236.01L241.78 236.01Z" stroke="#263238" stroke-opacity="1.000000" stroke-width="1.000000"/>
	<path id="Vector" d="M259.63 236.01L245.65 236.01L245.65 250L259.63 250L259.63 236.01Z" fill="#FFFFFF" fill-opacity="1.000000" fill-rule="nonzero"/>
	<path id="Vector" d="M259.63 236.01L259.63 250L245.65 250L245.65 236.01L259.63 236.01Z" stroke="#263238" stroke-opacity="1.000000" stroke-width="1.000000"/>
	<path id="Vector" d="M277.48 236.01L263.5 236.01L263.5 250L277.48 250L277.48 236.01Z" fill="#FFFFFF" fill-opacity="1.000000" fill-rule="nonzero"/>
	<path id="Vector" d="M277.48 236.01L277.48 250L263.5 250L263.5 236.01L277.48 236.01Z" stroke="#263238" stroke-opacity="1.000000" stroke-width="1.000000"/>
	<path id="Vector" d="M295.34 236.01L281.35 236.01L281.35 250L295.34 250L295.34 236.01Z" fill="#FFFFFF" fill-opacity="1.000000" fill-rule="nonzero"/>
	<path id="Vector" d="M295.34 236.01L295.34 250L281.35 250L281.35 236.01L295.34 236.01Z" stroke="#263238" stroke-opacity="1.000000" stroke-width="1.000000"/>
	<path id="Vector" d="M81.11 304.4L67.13 304.4L67.13 318.38L81.11 318.38L81.11 304.4Z" fill="#FFFFFF" fill-opacity="1.000000" fill-rule="nonzero"/>
	<path id="Vector" d="M81.11 304.4L81.11 318.38L67.13 318.38L67.13 304.4L81.11 304.4Z" stroke="#263238" stroke-opacity="1.000000" stroke-width="1.000000"/>
	<path id="Vector" d="M98.97 304.4L84.99 304.4L84.99 318.38L98.97 318.38L98.97 304.4Z" fill="#FFFFFF" fill-opacity="1.000000" fill-rule="nonzero"/>
	<path id="Vector" d="M98.97 304.4L98.97 318.38L84.99 318.38L84.99 304.4L98.97 304.4Z" stroke="#263238" stroke-opacity="1.000000" stroke-width="1.000000"/>
	<path id="Vector" d="M116.82 304.4L102.84 304.4L102.84 318.38L116.82 318.38L116.82 304.4Z" fill="#FFFFFF" fill-opacity="1.000000" fill-rule="nonzero"/>
	<path id="Vector" d="M116.82 304.4L116.82 318.38L102.84 318.38L102.84 304.4L116.82 304.4Z" stroke="#263238" stroke-opacity="1.000000" stroke-width="1.000000"/>
	<path id="Vector" d="M137.75 304.4L120.69 304.4L120.69 318.38L137.75 318.38L137.75 304.4Z" fill="#FFFFFF" fill-opacity="1.000000" fill-rule="nonzero"/>
	<path id="Vector" d="M137.75 304.4L137.75 318.38L120.69 318.38L120.69 304.4L137.75 304.4Z" stroke="#263238" stroke-opacity="1.000000" stroke-width="1.000000"/>
	<path id="Vector" d="M227.01 304.4L141.62 304.4L141.62 318.38L227.01 318.38L227.01 304.4Z" fill="#FFFFFF" fill-opacity="1.000000" fill-rule="nonzero"/>
	<path id="Vector" d="M227.01 304.4L227.01 318.38L141.62 318.38L141.62 304.4L227.01 304.4Z" stroke="#263238" stroke-opacity="1.000000" stroke-width="1.000000"/>
	<path id="Vector" d="M287.55 304.4L273.57 304.4L273.57 318.38L287.55 318.38L287.55 304.4Z" fill="#FFFFFF" fill-opacity="1.000000" fill-rule="nonzero"/>
	<path id="Vector" d="M287.55 304.4L287.55 318.38L273.57 318.38L273.57 304.4L287.55 304.4Z" stroke="#263238" stroke-opacity="1.000000" stroke-width="1.000000"/>
	<path id="Vector" d="M305.43 304.4L291.45 304.4L291.45 318.38L305.43 318.38L305.43 304.4Z" fill="#FFFFFF" fill-opacity="1.000000" fill-rule="nonzero"/>
	<path id="Vector" d="M305.43 304.4L305.43 318.38L291.45 318.38L291.45 304.4L305.43 304.4Z" stroke="#263238" stroke-opacity="1.000000" stroke-width="1.000000"/>
	<path id="Vector" d="M252.21 304.4L230.5 304.4L230.5 318.38L252.21 318.38L252.21 304.4Z" fill="#FFFFFF" fill-opacity="1.000000" fill-rule="nonzero"/>
	<path id="Vector" d="M252.21 304.4L252.21 318.38L230.5 318.38L230.5 304.4L252.21 304.4Z" stroke="#263238" stroke-opacity="1.000000" stroke-width="1.000000"/>
	<path id="Vector" d="M323.85 304.4L309.87 304.4L309.87 318.38L323.85 318.38L323.85 304.4Z" fill="#FFFFFF" fill-opacity="1.000000" fill-rule="nonzero"/>
	<path id="Vector" d="M323.85 304.4L323.85 318.38L309.87 318.38L309.87 304.4L323.85 304.4Z" stroke="#263238" stroke-opacity="1.000000" stroke-width="1.000000"/>
	<path id="Vector" d="M105.54 253.06L91.56 253.06L91.56 267.04L105.54 267.04L105.54 253.06Z" fill="#FFFFFF" fill-opacity="1.000000" fill-rule="nonzero"/>
	<path id="Vector" d="M105.54 253.06L105.54 267.04L91.56 267.04L91.56 253.06L105.54 253.06Z" stroke="#263238" stroke-opacity="1.000000" stroke-width="1.000000"/>
	<path id="Vector" d="M123.39 253.06L109.4 253.06L109.4 267.04L123.39 267.04L123.39 253.06Z" fill="#FFFFFF" fill-opacity="1.000000" fill-rule="nonzero"/>
	<path id="Vector" d="M123.39 253.06L123.39 267.04L109.4 267.04L109.4 253.06L123.39 253.06Z" stroke="#263238" stroke-opacity="1.000000" stroke-width="1.000000"/>
	<path id="Vector" d="M141.25 253.06L127.26 253.06L127.26 267.04L141.25 267.04L141.25 253.06Z" fill="#FFFFFF" fill-opacity="1.000000" fill-rule="nonzero"/>
	<path id="Vector" d="M141.25 253.06L141.25 267.04L127.26 267.04L127.26 253.06L141.25 253.06Z" stroke="#263238" stroke-opacity="1.000000" stroke-width="1.000000"/>
	<path id="Vector" d="M159.09 253.06L145.11 253.06L145.11 267.04L159.09 267.04L159.09 253.06Z" fill="#FFFFFF" fill-opacity="1.000000" fill-rule="nonzero"/>
	<path id="Vector" d="M159.09 253.06L159.09 267.04L145.11 267.04L145.11 253.06L159.09 253.06Z" stroke="#263238" stroke-opacity="1.000000" stroke-width="1.000000"/>
	<path id="Vector" d="M176.95 253.06L162.97 253.06L162.97 267.04L176.95 267.04L176.95 253.06Z" fill="#FFFFFF" fill-opacity="1.000000" fill-rule="nonzero"/>
	<path id="Vector" d="M176.95 253.06L176.95 267.04L162.97 267.04L162.97 253.06L176.95 253.06Z" stroke="#263238" stroke-opacity="1.000000" stroke-width="1.000000"/>
	<path id="Vector" d="M194.8 253.06L180.82 253.06L180.82 267.04L194.8 267.04L194.8 253.06Z" fill="#FFFFFF" fill-opacity="1.000000" fill-rule="nonzero"/>
	<path id="Vector" d="M194.8 253.06L194.8 267.04L180.82 267.04L180.82 253.06L194.8 253.06Z" stroke="#263238" stroke-opacity="1.000000" stroke-width="1.000000"/>
	<path id="Vector" d="M212.64 253.06L198.66 253.06L198.66 267.04L212.64 267.04L212.64 253.06Z" fill="#FFFFFF" fill-opacity="1.000000" fill-rule="nonzero"/>
	<path id="Vector" d="M212.64 253.06L212.64 267.04L198.66 267.04L198.66 253.06L212.64 253.06Z" stroke="#263238" stroke-opacity="1.000000" stroke-width="1.000000"/>
	<path id="Vector" d="M230.5 253.06L216.52 253.06L216.52 267.04L230.5 267.04L230.5 253.06Z" fill="#FFFFFF" fill-opacity="1.000000" fill-rule="nonzero"/>
	<path id="Vector" d="M230.5 253.06L230.5 267.04L216.52 267.04L216.52 253.06L230.5 253.06Z" stroke="#263238" stroke-opacity="1.000000" stroke-width="1.000000"/>
	<path id="Vector" d="M248.35 253.06L234.37 253.06L234.37 267.04L248.35 267.04L248.35 253.06Z" fill="#FFFFFF" fill-opacity="1.000000" fill-rule="nonzero"/>
	<path id="Vector" d="M248.35 253.06L248.35 267.04L234.37 267.04L234.37 253.06L248.35 253.06Z" stroke="#263238" stroke-opacity="1.000000" stroke-width="1.000000"/>
	<path id="Vector" d="M266.2 253.06L252.22 253.06L252.22 267.04L266.2 267.04L266.2 253.06Z" fill="#FFFFFF" fill-opacity="1.000000" fill-rule="nonzero"/>
	<path id="Vector" d="M266.2 253.06L266.2 267.04L252.22 267.04L252.22 253.06L266.2 253.06Z" stroke="#263238" stroke-opacity="1.000000" stroke-width="1.000000"/>
	<path id="Vector" d="M284.06 253.06L270.07 253.06L270.07 267.04L284.06 267.04L284.06 253.06Z" fill="#FFFFFF" fill-opacity="1.000000" fill-rule="nonzero"/>
	<path id="Vector" d="M284.06 253.06L284.06 267.04L270.07 267.04L270.07 253.06L284.06 253.06Z" stroke="#263238" stroke-opacity="1.000000" stroke-width="1.000000"/>
	<path id="Vector" d="M301.9 253.06L287.92 253.06L287.92 267.04L301.9 267.04L301.9 253.06Z" fill="#FFFFFF" fill-opacity="1.000000" fill-rule="nonzero"/>
	<path id="Vector" d="M301.9 253.06L301.9 267.04L287.92 267.04L287.92 253.06L301.9 253.06Z" stroke="#263238" stroke-opacity="1.000000" stroke-width="1.000000"/>
	<path id="Vector" d="M323.85 253.06L323.85 284.1L309.87 284.1L309.87 267.04L305.77 267.04L305.77 253.06L323.85 253.06Z" fill="#FFFFFF" fill-opacity="1.000000" fill-rule="nonzero"/>
	<path id="Vector" d="M323.85 284.1L309.87 284.1L309.87 267.04L305.77 267.04L305.77 253.06L323.85 253.06L323.85 284.1Z" stroke="#263238" stroke-opacity="1.000000" stroke-width="1.000000"/>
	<path id="Vector" d="M109.64 270.1L95.66 270.1L95.66 284.09L109.64 284.09L109.64 270.1Z" fill="#FFFFFF" fill-opacity="1.000000" fill-rule="nonzero"/>
	<path id="Vector" d="M109.64 270.1L109.64 284.09L95.66 284.09L95.66 270.1L109.64 270.1Z" stroke="#263238" stroke-opacity="1.000000" stroke-width="1.000000"/>
	<path id="Vector" d="M127.48 270.1L113.5 270.1L113.5 284.09L127.48 284.09L127.48 270.1Z" fill="#FFFFFF" fill-opacity="1.000000" fill-rule="nonzero"/>
	<path id="Vector" d="M127.48 270.1L127.48 284.09L113.5 284.09L113.5 270.1L127.48 270.1Z" stroke="#263238" stroke-opacity="1.000000" stroke-width="1.000000"/>
	<path id="Vector" d="M145.33 270.1L131.35 270.1L131.35 284.09L145.33 284.09L145.33 270.1Z" fill="#FFFFFF" fill-opacity="1.000000" fill-rule="nonzero"/>
	<path id="Vector" d="M145.33 270.1L145.33 284.09L131.35 284.09L131.35 270.1L145.33 270.1Z" stroke="#263238" stroke-opacity="1.000000" stroke-width="1.000000"/>
	<path id="Vector" d="M163.19 270.1L149.21 270.1L149.21 284.09L163.19 284.09L163.19 270.1Z" fill="#FFFFFF" fill-opacity="1.000000" fill-rule="nonzero"/>
	<path id="Vector" d="M163.19 270.1L163.19 284.09L149.21 284.09L149.21 270.1L163.19 270.1Z" stroke="#263238" stroke-opacity="1.000000" stroke-width="1.000000"/>
	<path id="Vector" d="M181.04 270.1L167.06 270.1L167.06 284.09L181.04 284.09L181.04 270.1Z" fill="#FFFFFF" fill-opacity="1.000000" fill-rule="nonzero"/>
	<path id="Vector" d="M181.04 270.1L181.04 284.09L167.06 284.09L167.06 270.1L181.04 270.1Z" stroke="#263238" stroke-opacity="1.000000" stroke-width="1.000000"/>
	<path id="Vector" d="M198.9 270.1L184.91 270.1L184.91 284.09L198.9 284.09L198.9 270.1Z" fill="#FFFFFF" fill-opacity="1.000000" fill-rule="nonzero"/>
	<path id="Vector" d="M198.9 270.1L198.9 284.09L184.91 284.09L184.91 270.1L198.9 270.1Z" stroke="#263238" stroke-opacity="1.000000" stroke-width="1.000000"/>
	<path id="Vector" d="M216.74 270.1L202.76 270.1L202.76 284.09L216.74 284.09L216.74 270.1Z" fill="#FFFFFF" fill-opacity="1.000000" fill-rule="nonzero"/>
	<path id="Vector" d="M216.74 270.1L216.74 284.09L202.76 284.09L202.76 270.1L216.74 270.1Z" stroke="#263238" stroke-opacity="1.000000" stroke-width="1.000000"/>
	<path id="Vector" d="M234.59 270.1L220.61 270.1L220.61 284.09L234.59 284.09L234.59 270.1Z" fill="#FFFFFF" fill-opacity="1.000000" fill-rule="nonzero"/>
	<path id="Vector" d="M234.59 270.1L234.59 284.09L220.61 284.09L220.61 270.1L234.59 270.1Z" stroke="#263238" stroke-opacity="1.000000" stroke-width="1.000000"/>
	<path id="Vector" d="M252.45 270.1L238.47 270.1L238.47 284.09L252.45 284.09L252.45 270.1Z" fill="#FFFFFF" fill-opacity="1.000000" fill-rule="nonzero"/>
	<path id="Vector" d="M252.45 270.1L252.45 284.09L238.47 284.09L238.47 270.1L252.45 270.1Z" stroke="#263238" stroke-opacity="1.000000" stroke-width="1.000000"/>
	<path id="Vector" d="M270.29 270.1L256.31 270.1L256.31 284.09L270.29 284.09L270.29 270.1Z" fill="#FFFFFF" fill-opacity="1.000000" fill-rule="nonzero"/>
	<path id="Vector" d="M270.29 270.1L270.29 284.09L256.31 284.09L256.31 270.1L270.29 270.1Z" stroke="#263238" stroke-opacity="1.000000" stroke-width="1.000000"/>
	<path id="Vector" d="M288.14 270.1L274.16 270.1L274.16 284.09L288.14 284.09L288.14 270.1Z" fill="#FFFFFF" fill-opacity="1.000000" fill-rule="nonzero"/>
	<path id="Vector" d="M288.14 270.1L288.14 284.09L274.16 284.09L274.16 270.1L288.14 270.1Z" stroke="#263238" stroke-opacity="1.000000" stroke-width="1.000000"/>
	<path id="Vector" d="M306 270.1L292.02 270.1L292.02 284.09L306 284.09L306 270.1Z" fill="#FFFFFF" fill-opacity="1.000000" fill-rule="nonzero"/>
	<path id="Vector" d="M306 270.1L306 284.09L292.02 284.09L292.02 270.1L306 270.1Z" stroke="#263238" stroke-opacity="1.000000" stroke-width="1.000000"/>
	<path id="Vector" d="M102.05 287.15L88.06 287.15L88.06 301.14L102.05 301.14L102.05 287.15Z" fill="#FFFFFF" fill-opacity="1.000000" fill-rule="nonzero"/>
	<path id="Vector" d="M102.05 287.15L102.05 301.14L88.06 301.14L88.06 287.15L102.05 287.15Z" stroke="#263238" stroke-opacity="1.000000" stroke-width="1.000000"/>
	<path id="Vector" d="M119.89 287.15L105.91 287.15L105.91 301.14L119.89 301.14L119.89 287.15Z" fill="#FFFFFF" fill-opacity="1.000000" fill-rule="nonzero"/>
	<path id="Vector" d="M119.89 287.15L119.89 301.14L105.91 301.14L105.91 287.15L119.89 287.15Z" stroke="#263238" stroke-opacity="1.000000" stroke-width="1.000000"/>
	<path id="Vector" d="M137.75 287.15L123.77 287.15L123.77 301.14L137.75 301.14L137.75 287.15Z" fill="#FFFFFF" fill-opacity="1.000000" fill-rule="nonzero"/>
	<path id="Vector" d="M137.75 287.15L137.75 301.14L123.77 301.14L123.77 287.15L137.75 287.15Z" stroke="#263238" stroke-opacity="1.000000" stroke-width="1.000000"/>
	<path id="Vector" d="M155.6 287.15L141.62 287.15L141.62 301.14L155.6 301.14L155.6 287.15Z" fill="#FFFFFF" fill-opacity="1.000000" fill-rule="nonzero"/>
	<path id="Vector" d="M155.6 287.15L155.6 301.14L141.62 301.14L141.62 287.15L155.6 287.15Z" stroke="#263238" stroke-opacity="1.000000" stroke-width="1.000000"/>
	<path id="Vector" d="M173.46 287.15L159.48 287.15L159.48 301.14L173.46 301.14L173.46 287.15Z" fill="#FFFFFF" fill-opacity="1.000000" fill-rule="nonzero"/>
	<path id="Vector" d="M173.46 287.15L173.46 301.14L159.48 301.14L159.48 287.15L173.46 287.15Z" stroke="#263238" stroke-opacity="1.000000" stroke-width="1.000000"/>
	<path id="Vector" d="M191.3 287.15L177.32 287.15L177.32 301.14L191.3 301.14L191.3 287.15Z" fill="#FFFFFF" fill-opacity="1.000000" fill-rule="nonzero"/>
	<path id="Vector" d="M191.3 287.15L191.3 301.14L177.32 301.14L177.32 287.15L191.3 287.15Z" stroke="#263238" stroke-opacity="1.000000" stroke-width="1.000000"/>
	<path id="Vector" d="M209.15 287.15L195.17 287.15L195.17 301.14L209.15 301.14L209.15 287.15Z" fill="#FFFFFF" fill-opacity="1.000000" fill-rule="nonzero"/>
	<path id="Vector" d="M209.15 287.15L209.15 301.14L195.17 301.14L195.17 287.15L209.15 287.15Z" stroke="#263238" stroke-opacity="1.000000" stroke-width="1.000000"/>
	<path id="Vector" d="M227.01 287.15L213.03 287.15L213.03 301.14L227.01 301.14L227.01 287.15Z" fill="#FFFFFF" fill-opacity="1.000000" fill-rule="nonzero"/>
	<path id="Vector" d="M227.01 287.15L227.01 301.14L213.03 301.14L213.03 287.15L227.01 287.15Z" stroke="#263238" stroke-opacity="1.000000" stroke-width="1.000000"/>
	<path id="Vector" d="M244.86 287.15L230.88 287.15L230.88 301.14L244.86 301.14L244.86 287.15Z" fill="#FFFFFF" fill-opacity="1.000000" fill-rule="nonzero"/>
	<path id="Vector" d="M244.86 287.15L244.86 301.14L230.88 301.14L230.88 287.15L244.86 287.15Z" stroke="#263238" stroke-opacity="1.000000" stroke-width="1.000000"/>
	<path id="Vector" d="M262.7 287.15L248.72 287.15L248.72 301.14L262.7 301.14L262.7 287.15Z" fill="#FFFFFF" fill-opacity="1.000000" fill-rule="nonzero"/>
	<path id="Vector" d="M262.7 287.15L262.7 301.14L248.72 301.14L248.72 287.15L262.7 287.15Z" stroke="#263238" stroke-opacity="1.000000" stroke-width="1.000000"/>
	<path id="Vector" d="M280.56 287.15L266.58 287.15L266.58 301.14L280.56 301.14L280.56 287.15Z" fill="#FFFFFF" fill-opacity="1.000000" fill-rule="nonzero"/>
	<path id="Vector" d="M280.56 287.15L280.56 301.14L266.58 301.14L266.58 287.15L280.56 287.15Z" stroke="#263238" stroke-opacity="1.000000" stroke-width="1.000000"/>
	<path id="Vector" d="M109.64 219.8L95.66 219.8L95.66 233.79L109.64 233.79L109.64 219.8Z" fill="#FFFFFF" fill-opacity="1.000000" fill-rule="nonzero"/>
	<path id="Vector" d="M109.64 219.8L109.64 233.79L95.66 233.79L95.66 219.8L109.64 219.8Z" stroke="#263238" stroke-opacity="1.000000" stroke-width="1.000000"/>
	<path id="Vector" d="M127.48 219.8L113.5 219.8L113.5 233.79L127.48 233.79L127.48 219.8Z" fill="#FFFFFF" fill-opacity="1.000000" fill-rule="nonzero"/>
	<path id="Vector" d="M127.48 219.8L127.48 233.79L113.5 233.79L113.5 219.8L127.48 219.8Z" stroke="#263238" stroke-opacity="1.000000" stroke-width="1.000000"/>
	<path id="Vector" d="M145.33 219.8L131.35 219.8L131.35 233.79L145.33 233.79L145.33 219.8Z" fill="#FFFFFF" fill-opacity="1.000000" fill-rule="nonzero"/>
	<path id="Vector" d="M145.33 219.8L145.33 233.79L131.35 233.79L131.35 219.8L145.33 219.8Z" stroke="#263238" stroke-opacity="1.000000" stroke-width="1.000000"/>
	<path id="Vector" d="M163.19 219.8L149.21 219.8L149.21 233.79L163.19 233.79L163.19 219.8Z" fill="#FFFFFF" fill-opacity="1.000000" fill-rule="nonzero"/>
	<path id="Vector" d="M163.19 219.8L163.19 233.79L149.21 233.79L149.21 219.8L163.19 219.8Z" stroke="#263238" stroke-opacity="1.000000" stroke-width="1.000000"/>
	<path id="Vector" d="M181.04 219.8L167.06 219.8L167.06 233.79L181.04 233.79L181.04 219.8Z" fill="#FFFFFF" fill-opacity="1.000000" fill-rule="nonzero"/>
	<path id="Vector" d="M181.04 219.8L181.04 233.79L167.06 233.79L167.06 219.8L181.04 219.8Z" stroke="#263238" stroke-opacity="1.000000" stroke-width="1.000000"/>
	<path id="Vector" d="M198.9 219.8L184.91 219.8L184.91 233.79L198.9 233.79L198.9 219.8Z" fill="#FFFFFF" fill-opacity="1.000000" fill-rule="nonzero"/>
	<path id="Vector" d="M198.9 219.8L198.9 233.79L184.91 233.79L184.91 219.8L198.9 219.8Z" stroke="#263238" stroke-opacity="1.000000" stroke-width="1.000000"/>
	<path id="Vector" d="M216.74 219.8L202.76 219.8L202.76 233.79L216.74 233.79L216.74 219.8Z" fill="#FFFFFF" fill-opacity="1.000000" fill-rule="nonzero"/>
	<path id="Vector" d="M216.74 219.8L216.74 233.79L202.76 233.79L202.76 219.8L216.74 219.8Z" stroke="#263238" stroke-opacity="1.000000" stroke-width="1.000000"/>
	<path id="Vector" d="M234.59 219.8L220.61 219.8L220.61 233.79L234.59 233.79L234.59 219.8Z" fill="#FFFFFF" fill-opacity="1.000000" fill-rule="nonzero"/>
	<path id="Vector" d="M234.59 219.8L234.59 233.79L220.61 233.79L220.61 219.8L234.59 219.8Z" stroke="#263238" stroke-opacity="1.000000" stroke-width="1.000000"/>
	<path id="Vector" d="M252.45 219.8L238.47 219.8L238.47 233.79L252.45 233.79L252.45 219.8Z" fill="#FFFFFF" fill-opacity="1.000000" fill-rule="nonzero"/>
	<path id="Vector" d="M252.45 219.8L252.45 233.79L238.47 233.79L238.47 219.8L252.45 219.8Z" stroke="#263238" stroke-opacity="1.000000" stroke-width="1.000000"/>
	<path id="Vector" d="M270.29 219.8L256.31 219.8L256.31 233.79L270.29 233.79L270.29 219.8Z" fill="#FFFFFF" fill-opacity="1.000000" fill-rule="nonzero"/>
	<path id="Vector" d="M270.29 219.8L270.29 233.79L256.31 233.79L256.31 219.8L270.29 219.8Z" stroke="#263238" stroke-opacity="1.000000" stroke-width="1.000000"/>
	<path id="Vector" d="M288.14 219.8L274.16 219.8L274.16 233.79L288.14 233.79L288.14 219.8Z" fill="#FFFFFF" fill-opacity="1.000000" fill-rule="nonzero"/>
	<path id="Vector" d="M288.14 219.8L288.14 233.79L274.16 233.79L274.16 219.8L288.14 219.8Z" stroke="#263238" stroke-opacity="1.000000" stroke-width="1.000000"/>
	<path id="Vector" d="M306 219.8L292.02 219.8L292.02 233.79L306 233.79L306 219.8Z" fill="#FFFFFF" fill-opacity="1.000000" fill-rule="nonzero"/>
	<path id="Vector" d="M306 219.8L306 233.79L292.02 233.79L292.02 219.8L306 219.8Z" stroke="#263238" stroke-opacity="1.000000" stroke-width="1.000000"/>
	<path id="Vector" d="M323.85 219.8L309.87 219.8L309.87 233.79L323.85 233.79L323.85 219.8Z" fill="#FFFFFF" fill-opacity="1.000000" fill-rule="nonzero"/>
	<path id="Vector" d="M323.85 219.8L323.85 233.79L309.87 233.79L309.87 219.8L323.85 219.8Z" stroke="#263238" stroke-opacity="1.000000" stroke-width="1.000000"/>
	<path id="Vector" d="M84.07 287.15L67.13 287.15L67.13 301.14L84.07 301.14L84.07 287.15Z" fill="#FFFFFF" fill-opacity="1.000000" fill-rule="nonzero"/>
	<path id="Vector" d="M84.07 287.15L84.07 301.14L67.13 301.14L67.13 287.15L84.07 287.15Z" stroke="#263238" stroke-opacity="1.000000" stroke-width="1.000000"/>
	<path id="Vector" d="M61.52 212.84L67.13 210.96L326.42 210.96L330.11 212.82L61.52 212.84Z" fill="#263238" fill-opacity="1.000000" fill-rule="nonzero"/>
	<path id="Vector" d="M296.68 346.86L296.81 295.39C297.37 293.31 297.83 285.67 299.01 280.35C301.04 271.43 293.08 260.67 292.52 260.32C290.28 258.93 285.53 258.95 285.53 258.95C285.53 258.95 280.88 253.64 276.72 251.96C273.86 250.95 270.82 250.57 267.8 250.86C264.6 248.21 261.03 246.05 257.21 244.44C255.71 243.88 254.09 243.73 252.52 244.03C250.94 244.32 249.48 245.05 248.29 246.12L243.05 254.27C242.29 255.43 241.94 256.81 242.07 258.19C242.2 259.57 242.8 260.87 243.76 261.86C246.25 264.31 249.44 263.17 251.05 263.17C253.27 263.17 254.11 260.65 254.11 260.65C254.11 260.65 254.66 273.75 254.11 275.43C253.54 277.09 249.37 280.99 249.37 280.99L235.4 262.56C230.61 256.05 226.41 249.12 222.87 241.86C222.46 240.97 221.93 240.15 221.29 239.41C218.85 236.65 213.62 235.84 212.26 240.96C211.93 242.6 212 244.29 212.48 245.9C218.3 263.11 225.73 276.11 232.49 289.67C236.51 297.71 235.02 297.62 237.02 301.25C236.79 301.42 236.91 301.72 236.65 301.87C235.67 305.78 234.99 309.71 234 313.62C233.18 308.71 231.67 303.93 229.54 299.44C230.1 296.71 230.31 293.93 230.15 291.15C229.98 288.34 228.73 285.71 226.66 283.8C225.5 282.86 224.08 282.31 222.6 282.22C221.53 282.15 220.48 282.48 219.65 283.15C218.83 283.82 218.28 284.78 218.13 285.84C217.9 287.97 217.51 290.07 216.96 292.15C216.07 294.85 215 297.5 213.75 300.05C213.75 305.26 216.96 304.41 219.3 325.3C221.12 341.6 242.08 352.33 253.48 364.07L267 404C284 396 291 392 305.5 381L296.68 346.86Z" fill="#FFFFFF" fill-opacity="1.000000" fill-rule="nonzero"/>
	<path id="Vector" d="M226.95 318.69C227.09 318.43 227.21 318.17 227.32 317.91C227.2 317.99 227.1 318.11 227.04 318.25C226.97 318.38 226.94 318.53 226.95 318.69Z" fill="#92E3A9" fill-opacity="1.000000" fill-rule="nonzero"/>
	<path id="Vector" d="M260.51 246.65C258.92 245.4 257.02 244.6 255.01 244.33L260.51 246.65Z" fill="#92E3A9" fill-opacity="1.000000" fill-rule="nonzero"/>
	<path id="Vector" d="M254.31 252.1L254.38 252.69C254.42 252.49 254.4 252.28 254.31 252.1Z" fill="#92E3A9" fill-opacity="1.000000" fill-rule="nonzero"/>
	<g opacity="0.500000">
		<g opacity="0.500000">
			<path id="Vector" d="M226.95 318.69C227.09 318.43 227.21 318.17 227.32 317.91C227.2 317.99 227.1 318.11 227.04 318.25C226.97 318.38 226.94 318.53 226.95 318.69Z" fill="#FFFFFF" fill-opacity="1.000000" fill-rule="nonzero"/>
		</g>
		<g opacity="0.500000">
			<path id="Vector" d="M260.51 246.65C258.92 245.4 257.02 244.6 255.01 244.33L260.51 246.65Z" fill="#FFFFFF" fill-opacity="1.000000" fill-rule="nonzero"/>
		</g>
		<g opacity="0.500000">
			<path id="Vector" d="M254.31 252.1L254.38 252.69C254.42 252.49 254.4 252.28 254.31 252.1Z" fill="#FFFFFF" fill-opacity="1.000000" fill-rule="nonzero"/>
		</g>
		<g opacity="0.500000">
			<path id="Vector" d="M260.72 302.6C260.2 301.3 257.66 297.55 256.18 300.15L260.72 302.6Z" fill="#FFFFFF" fill-opacity="1.000000" fill-rule="nonzero"/>
		</g>
	</g>
	<path id="Vector" d="M217.44 296.34C216.09 297.41 214.93 298.7 214.03 300.17L217.44 296.34Z" fill="#FFFFFF" fill-opacity="1.000000" fill-rule="nonzero"/>
	<path id="Vector" d="M267 404L253.6 364.04C242.19 352.29 221.24 341.54 219.42 325.26C217.09 304.37 213.87 305.22 213.87 300.02C215.12 297.46 216.19 294.82 217.08 292.11C217.62 290.04 218.01 287.93 218.24 285.8C218.4 284.75 218.94 283.79 219.77 283.12C220.6 282.44 221.65 282.11 222.71 282.18C224.2 282.27 225.62 282.83 226.78 283.76C228.84 285.67 230.1 288.3 230.27 291.11C230.43 293.89 230.22 296.68 229.65 299.4C231.79 303.9 233.29 308.67 234.11 313.59C235.1 309.67 235.79 305.75 236.77 301.84C237.02 301.68 236.91 301.38 237.14 301.22C235.14 297.59 236.63 297.73 232.61 289.63C225.85 276.08 218.43 263.07 212.6 245.86C212.12 244.26 212.04 242.56 212.38 240.92C213.74 235.8 218.97 236.62 221.41 239.38C222.05 240.11 222.58 240.94 222.98 241.82C226.53 249.09 230.72 256.02 235.52 262.52L249.49 280.96C249.49 280.96 253.66 277.06 254.23 275.39C254.78 273.72 254.23 260.62 254.23 260.62C254.23 260.62 253.39 263.13 251.17 263.13C249.56 263.13 246.37 264.29 243.88 261.83C242.9 260.85 242.29 259.57 242.14 258.19C241.99 256.82 242.31 255.44 243.05 254.27L248.26 246.12C249.45 245.05 250.91 244.32 252.48 244.03C254.05 243.73 255.68 243.88 257.17 244.44C261 246.05 264.57 248.21 267.77 250.86C270.79 250.57 273.83 250.95 276.69 251.96C280.88 253.65 285.5 258.95 285.5 258.95C285.5 258.95 290.24 258.95 292.48 260.32C293.04 260.67 301.01 271.43 298.98 280.35C297.82 285.67 297.34 293.31 296.78 295.39L296.64 346.86L306 381" stroke="#263238" stroke-opacity="1.000000" stroke-width="1.000000"/>
	<path id="Vector" d="M269.08 252.67C271.13 260.27 272.2 268.1 272.25 275.96C272.18 277.28 272.32 278.6 272.67 279.87C272.85 280.51 273.19 281.09 273.66 281.55C274.12 282.01 274.7 282.35 275.34 282.53" stroke="#263238" stroke-opacity="1.000000" stroke-width="1.000000"/>
	<path id="Vector" d="M285.54 260.32C289.04 267.61 285.46 283.89 285.72 285.04C285.83 285.62 286.06 286.17 286.4 286.66C286.74 287.14 287.18 287.54 287.69 287.84" stroke="#263238" stroke-opacity="1.000000" stroke-width="1.000000"/>
	<path id="Vector" d="M255.53 251.67C255.13 254 254.79 256.68 254.37 259C253.01 257.83 251.9 256.41 251.1 254.81C250.31 253.21 249.83 251.47 249.71 249.68" stroke="#263238" stroke-opacity="1.000000" stroke-width="1.000000"/>
	<path id="Vector" d="M233.23 313.81L230.71 314.91" stroke="#263238" stroke-opacity="1.000000" stroke-width="1.000000"/>
	<path id="Vector" d="M233.87 315.82C233.47 317.76 233.47 319.77 233.87 321.71" stroke="#263238" stroke-opacity="1.000000" stroke-width="1.000000"/>
	<path id="Vector" d="M248.58 294.06L251.36 299.08" stroke="#263238" stroke-opacity="1.000000" stroke-width="1.000000"/>
	<path id="Vector" d="M253.94 275.69L256.71 271.78" stroke="#263238" stroke-opacity="1.000000" stroke-width="1.000000"/>
	<path id="Vector" d="M292.9 294.06L292.06 297.13" stroke="#263238" stroke-opacity="1.000000" stroke-width="1.000000"/>
	<path id="Vector" d="M286.13 285.71C286.9 283.1 287.72 280.49 288.58 277.88" stroke="#263238" stroke-opacity="1.000000" stroke-width="1.000000"/>
	<path id="Vector" d="M294.28 271.79C295.01 271.41 295.87 271.33 296.67 271.58C297.46 271.82 298.13 272.37 298.51 273.11" stroke="#263238" stroke-opacity="1.000000" stroke-width="1.000000"/>
	<path id="Vector" d="M277.59 258.43C278.56 258.15 279.58 258.13 280.56 258.35C281.54 258.58 282.44 259.04 283.19 259.71" stroke="#263238" stroke-opacity="1.000000" stroke-width="1.000000"/>
	<path id="Vector" d="M225.74 266.19C226.64 265.2 227.77 264.44 229.02 263.97C230.28 263.49 231.63 263.32 232.96 263.47" stroke="#263238" stroke-opacity="1.000000" stroke-width="1.000000"/>
	<path id="Vector" d="M215.23 244.23C216.06 243.63 217 243.2 218 242.97C219 242.73 220.04 242.69 221.05 242.86" stroke="#263238" stroke-opacity="1.000000" stroke-width="1.000000"/>
	<path id="Vector" d="M217.44 296.34C216.09 297.41 214.93 298.7 214.03 300.17" stroke="#263238" stroke-opacity="1.000000" stroke-width="1.000000"/>
	<path id="Vector" d="M218.51 291.04C220.35 289.74 223.29 292.67 224.97 291.17C225.27 290.83 225.48 290.43 225.58 289.99C225.68 289.54 225.67 289.09 225.54 288.65C225.3 287.79 225.18 286.89 225.21 285.99" stroke="#263238" stroke-opacity="1.000000" stroke-width="1.000000"/>
	<path id="Vector" d="M270.42 282.97C272.66 287.62 273.12 292.94 271.7 297.9" stroke="#263238" stroke-opacity="1.000000" stroke-width="1.000000"/>
	<path id="Vector" d="M283.95 290.16C284.31 292.36 283.9 294.62 282.79 296.55" stroke="#263238" stroke-opacity="1.000000" stroke-width="1.000000"/>
	<path id="Vector" d="M166.94 289.5C166.44 287.17 163.17 287.53 163.17 287.53C152.17 288.18 150.69 305.42 150.69 305.42L146.75 317.24L145.58 299.47L145.7 276.57C145.7 276.57 149.03 254.65 147.55 251.22C147.21 250.27 146.6 249.45 145.78 248.85C144.97 248.26 144 247.92 143 247.89C136.59 246.28 136.22 255.51 136.22 255.51L130.82 274.35L128.54 294.67L126.7 293.68C126.7 293.68 125.83 272.13 126.2 271.77C126.57 271.41 128.78 256.86 128.78 256.86C128.78 256.86 129.95 254.16 131.49 250.72C131.93 249.75 132.16 248.7 132.16 247.64C132.16 246.57 131.93 245.52 131.49 244.56C128.9 239.26 123.5 241.73 122.38 244.56C121.07 247.43 119.59 250.23 117.96 252.93L111.79 269.8C112.02 273.62 109.83 292.45 109.83 292.45L107.61 291.45L104.03 280.39L106.76 269.06C106.76 269.06 112.7 262.53 111.67 258.69C110.63 254.85 105.64 255.99 105.64 255.99L95.56 268.04L92.59 268.04L85.6 276.92C82.43 286.43 81.86 296.62 83.96 306.43L85.57 313.92L85.57 362.33C85.57 362.33 80.78 370.08 80.78 370.81C80.78 371.15 76.25 379.37 73.5 387C85.52 394.86 98.5 401.5 114 408C118.41 395.57 125.93 378.59 128.78 375.5C134.44 369.34 145.52 357.52 145.52 357.52C145.52 357.52 158.11 337.29 159.59 330.56C160.75 325.04 163.75 315.03 164.78 311.59C165.02 310.81 165.11 310 165.06 309.18C164.98 307.37 164.8 303.84 164.8 300.73C164.8 296.23 167.42 291.8 166.94 289.5Z" fill="#FFFFFF" fill-opacity="1.000000" fill-rule="nonzero"/>
	<path id="Vector" d="M73.5 387C77 379 81.91 367.84 81.91 367.5C81.91 366.76 86.69 359.01 86.69 359.01L86.69 310.62L85.08 303.18C82.99 293.39 83.54 283.22 86.69 273.73L93.68 264.85L96.64 264.85L106.73 252.8C106.73 252.8 111.78 251.64 112.76 255.5C113.74 259.37 107.84 265.84 107.84 265.84L105.12 277.17L108.69 288.24L110.92 289.24C110.92 289.24 113.11 270.41 112.87 266.59L119.04 249.72C120.68 247.01 122.16 244.22 123.47 241.34C124.63 238.51 129.99 236.05 132.58 241.34C133.02 242.31 133.25 243.36 133.25 244.42C133.25 245.49 133.02 246.54 132.58 247.5C131.09 251 129.87 253.65 129.87 253.65C129.87 253.65 127.66 268.18 127.29 268.56C126.91 268.93 127.79 290.47 127.79 290.47L129.63 291.46L131.85 271.14L137.25 252.3C137.25 252.3 137.62 243.07 144.03 244.67C145.03 244.71 146 245.05 146.82 245.64C147.63 246.23 148.24 247.06 148.58 248C150.06 251.44 146.73 273.35 146.73 273.35L146.61 296.26L147.78 314.03L151.72 302.21C151.72 302.21 153.2 284.96 164.2 284.32C164.2 284.32 167.47 283.99 167.97 286.29C168.47 288.6 165.83 293.02 165.83 297.46C165.83 300.57 166.01 304.09 166.09 305.91C166.14 306.73 166.05 307.54 165.81 308.32C164.78 311.76 161.84 321.77 160.62 327.29C159.14 334.02 146.55 354.25 146.55 354.25C146.55 354.25 135.47 366.07 129.81 372.23C126.96 375.32 118.41 395.57 114 408" stroke="#263238" stroke-opacity="1.000000" stroke-width="1.000000"/>
	<path id="Vector" d="M110.75 291.02C111.06 292.18 111.07 293.39 110.78 294.55C110.49 295.71 109.91 296.78 109.09 297.66" fill="#FFFFFF" fill-opacity="1.000000" fill-rule="nonzero"/>
	<path id="Vector" d="M110.75 291.02C111.06 292.18 111.07 293.39 110.78 294.55C110.49 295.71 109.91 296.78 109.09 297.66" stroke="#263238" stroke-opacity="1.000000" stroke-width="1.000000"/>
	<path id="Vector" d="M91.98 307.3C93.57 304.82 95.13 301.42 94.7 298.51C93.86 292.79 91.21 286.21 92.43 280.55C93.18 276.94 93.93 273.32 94.68 269.71" fill="#FFFFFF" fill-opacity="1.000000" fill-rule="nonzero"/>
	<path id="Vector" d="M91.98 307.3C93.57 304.82 95.13 301.42 94.7 298.51C93.86 292.79 91.21 286.21 92.43 280.55C93.18 276.94 93.93 273.32 94.68 269.71" stroke="#263238" stroke-opacity="1.000000" stroke-width="1.000000"/>
	<path id="Vector" d="M138.39 253.29C140.3 252.79 142.31 252.79 144.21 253.29C144.21 252.76 144.21 252.22 144.21 251.67" stroke="#263238" stroke-opacity="1.000000" stroke-width="1.000000"/>
	<path id="Vector" d="M123.14 246.01C123.7 246.4 124.36 246.63 125.04 246.66C125.72 246.7 126.4 246.55 127 246.23C127.6 245.91 128.1 245.43 128.45 244.84C128.79 244.26 128.97 243.59 128.96 242.9" stroke="#263238" stroke-opacity="1.000000" stroke-width="1.000000"/>
	<path id="Vector" d="M165.18 286.44C163.57 286.86 162.16 287.82 161.18 289.16C160.21 290.51 159.73 292.15 159.84 293.81L162.69 294.66" stroke="#263238" stroke-opacity="1.000000" stroke-width="1.000000"/>
	<path id="Vector" d="M127.72 287.86C127.85 289.82 127.6 294.49 127.72 296.43" fill="#FFFFFF" fill-opacity="1.000000" fill-rule="nonzero"/>
	<path id="Vector" d="M127.72 287.86C127.85 289.82 127.6 294.49 127.72 296.43" stroke="#263238" stroke-opacity="1.000000" stroke-width="1.000000"/>
	<path id="Vector" d="M129.86 290.56C129.63 293.77 129.39 296.97 129.15 300.17C129.15 299.76 129.15 299.35 129.15 298.95" fill="#FFFFFF" fill-opacity="1.000000" fill-rule="nonzero"/>
	<path id="Vector" d="M129.86 290.56C129.63 293.77 129.39 296.97 129.15 300.17C129.15 299.76 129.15 299.35 129.15 298.95" stroke="#263238" stroke-opacity="1.000000" stroke-width="1.000000"/>
	<path id="Vector" d="M147.59 317.56C148.43 321.09 148.05 324.82 146.5 328.11" fill="#FFFFFF" fill-opacity="1.000000" fill-rule="nonzero"/>
	<path id="Vector" d="M147.59 317.56C148.43 321.09 148.05 324.82 146.5 328.11" stroke="#263238" stroke-opacity="1.000000" stroke-width="1.000000"/>
	<path id="Vector" d="M118.11 300.78C115.58 303.56 115.95 310.23 117.74 313.91" stroke="#263238" stroke-opacity="1.000000" stroke-width="1.000000"/>
	<path id="Vector" d="M136.87 305.36C136.88 308.49 135.78 311.52 133.76 313.91" stroke="#263238" stroke-opacity="1.000000" stroke-width="1.000000"/>
	<path id="Vector" d="M99.63 302.1C99.2 304.94 99.82 307.84 101.36 310.25" stroke="#263238" stroke-opacity="1.000000" stroke-width="1.000000"/>
	<path id="Vector" d="M88.82 310.8C88.71 313.02 89.34 315.2 90.61 317.02" stroke="#263238" stroke-opacity="1.000000" stroke-width="1.000000"/>
	<path id="Vector" d="M103.63 257.11C104.3 256.81 105.04 256.71 105.77 256.82C106.49 256.94 107.17 257.27 107.7 257.77L109.17 255.86" stroke="#263238" stroke-opacity="1.000000" stroke-width="1.000000"/>
	<path id="Vector" d="M115.57 265.67C116.56 265.08 117.72 264.86 118.85 265.05C119.97 265.24 121 265.83 121.73 266.71" stroke="#263238" stroke-opacity="1.000000" stroke-width="1.000000"/>
	<path id="Vector" d="M134.22 271.49C135.27 271.02 136.41 270.79 137.55 270.82C138.7 270.84 139.82 271.12 140.85 271.63" stroke="#263238" stroke-opacity="1.000000" stroke-width="1.000000"/>
	<path id="Vector" d="M92.72 281.26C93.34 280.22 94.25 279.39 95.33 278.85C96.41 278.31 97.62 278.1 98.82 278.23" stroke="#263238" stroke-opacity="1.000000" stroke-width="1.000000"/>
	<path id="Vector" d="M84.91 292.39C84.95 291.64 85.24 290.92 85.74 290.36C86.25 289.79 86.93 289.42 87.67 289.29" stroke="#263238" stroke-opacity="1.000000" stroke-width="1.000000"/>
	<path id="Vector" d="M390.9 13.72L0.32 15.56L6.22 6.71C7.62 4.61 9.51 2.88 11.73 1.68C13.95 0.48 16.43 -0.15 18.96 -0.16L372.36 -0.16C374.65 -0.16 376.9 0.35 378.97 1.34C381.03 2.33 382.85 3.76 384.28 5.55L390.9 13.72Z" fill="#FFFFFF" fill-opacity="1.000000" fill-rule="nonzero"/>
	<path id="Vector" d="M0.32 15.56L6.22 6.71C7.62 4.61 9.51 2.88 11.73 1.68C13.95 0.48 16.43 -0.15 18.96 -0.16L372.36 -0.16C374.65 -0.16 376.9 0.35 378.97 1.34C381.03 2.33 382.85 3.76 384.28 5.55L390.9 13.72L0.32 15.56Z" stroke="#263238" stroke-opacity="1.000000" stroke-width="1.000000" stroke-linejoin="round"/>
	<path id="Vector" d="M202.4 72.28L181 72.28C159.04 72.28 141.24 90.08 141.24 112.05L141.24 133.45C141.24 155.41 159.04 173.21 181 173.21L202.4 173.21C224.36 173.21 242.16 155.41 242.16 133.45L242.16 112.05C242.16 90.08 224.36 72.28 202.4 72.28Z" fill="#757575" fill-opacity="1.000000" fill-rule="nonzero"/>
	<path id="Vector" d="M202.4 72.28C224.36 72.28 242.16 90.08 242.16 112.05L242.16 133.45C242.16 155.41 224.36 173.21 202.4 173.21L181 173.21C159.04 173.21 141.24 155.41 141.24 133.45L141.24 112.05C141.24 90.08 159.04 72.28 181 72.28L202.4 72.28Z" stroke="#263238" stroke-opacity="1.000000" stroke-width="1.000000" stroke-linejoin="round"/>
	<path id="Vector" d="M159.58 131.28L159.58 145.63C159.58 147.79 160.44 149.86 161.97 151.39C163.5 152.92 165.57 153.78 167.73 153.78L216.94 153.78C219.09 153.78 221.16 152.93 222.68 151.41C224.21 149.9 225.07 147.84 225.09 145.69C225.16 139.22 225.5 131.28 225.5 131.28L159.58 131.28Z" fill="#999999" fill-opacity="1.000000" fill-rule="nonzero"/>
	<path id="Vector" d="M159.58 145.63C159.58 147.79 160.44 149.86 161.97 151.39C163.5 152.92 165.57 153.78 167.73 153.78L216.94 153.78C219.09 153.78 221.16 152.93 222.68 151.41C224.21 149.9 225.07 147.84 225.09 145.69C225.16 139.22 225.5 131.28 225.5 131.28L159.58 131.28L159.58 145.63Z" stroke="#263238" stroke-opacity="1.000000" stroke-width="1.000000" stroke-linejoin="round"/>
	<path id="Vector" d="M339.68 136.07L51.89 136.07C50.41 136.07 48.97 135.63 47.74 134.8C46.52 133.97 45.57 132.79 45.03 131.41L0.63 17.42C0.37 16.74 0.27 15.99 0.35 15.26C0.44 14.52 0.7 13.82 1.12 13.21C1.53 12.6 2.09 12.1 2.75 11.75C3.4 11.41 4.13 11.23 4.87 11.23L386.72 11.23C387.46 11.24 388.18 11.42 388.83 11.77C389.48 12.12 390.03 12.62 390.44 13.23C390.85 13.84 391.11 14.54 391.19 15.27C391.27 16 391.17 16.74 390.9 17.42L346.51 131.38C345.98 132.75 345.04 133.94 343.82 134.77C342.6 135.61 341.16 136.06 339.68 136.07Z" fill="#FFFFFF" fill-opacity="1.000000" fill-rule="nonzero"/>
	<path id="Vector" d="M51.89 136.07C50.41 136.07 48.97 135.63 47.74 134.8C46.52 133.97 45.57 132.79 45.03 131.41L0.63 17.42C0.37 16.74 0.27 15.99 0.35 15.26C0.44 14.52 0.7 13.82 1.12 13.21C1.53 12.6 2.09 12.1 2.75 11.75C3.4 11.41 4.13 11.23 4.87 11.23L386.72 11.23C387.46 11.24 388.18 11.42 388.83 11.77C389.47 12.12 390.03 12.62 390.44 13.23C390.85 13.84 391.11 14.54 391.19 15.27C391.27 16 391.17 16.74 390.9 17.42L346.51 131.38C345.98 132.75 345.04 133.94 343.82 134.77C342.6 135.61 341.16 136.06 339.68 136.07L51.89 136.07Z" stroke="#263238" stroke-opacity="1.000000" stroke-width="1.000000" stroke-linejoin="round"/>
	<path id="Vector" d="M341.82 126.14L49.06 126.14L8.78 18.45L381.92 18.45L341.82 126.14Z" fill="#FFFFFF" fill-opacity="1.000000" fill-rule="nonzero"/>
	<path id="Vector" d="M159.89 135.92L225.16 135.92L225.16 140.39L159.89 140.39L159.89 135.92Z" fill="#263238" fill-opacity="1.000000" fill-rule="evenodd"/>
	<path id="Vector" d="M299.06 121.52L92.33 121.52C91.16 121.52 90.11 121.01 89.9 120.36L60.5 26.91C60.17 25.87 61.09 25.02 62.56 25.02L328.83 25.02C330.3 25.02 331.22 25.87 330.88 26.91L301.48 120.36C301.26 121 300.19 121.52 299.06 121.52Z" fill="#38BFF2" fill-opacity="1.000000" fill-rule="nonzero"/>
	<path id="Vector" d="M296.99 119.39L94.42 119.39C94.04 119.4 93.67 119.27 93.37 119.05C93.06 118.82 92.84 118.5 92.73 118.14L68.8 39.58C68.71 39.32 68.68 39.03 68.73 38.75C68.77 38.47 68.88 38.21 69.05 37.98C69.21 37.75 69.43 37.57 69.68 37.44C69.94 37.32 70.22 37.25 70.5 37.25L320.89 37.25C321.17 37.25 321.45 37.32 321.7 37.44C321.96 37.57 322.17 37.75 322.34 37.98C322.51 38.21 322.62 38.47 322.66 38.75C322.7 39.03 322.68 39.32 322.59 39.58L298.68 118.14C298.57 118.5 298.35 118.82 298.04 119.05C297.74 119.27 297.37 119.39 296.99 119.39Z" fill="#263238" fill-opacity="1.000000" fill-rule="nonzero"/>
	<path id="Vector" d="M122.55 57.68L83.7 57.68C82.73 57.68 82.1 58.19 82.29 58.84C82.48 59.22 82.77 59.53 83.14 59.74C83.5 59.94 83.92 60.04 84.34 60.01L122.97 60.01C123.92 60.01 124.6 59.5 124.49 58.84C124.39 58.19 123.5 57.68 122.55 57.68Z" fill="#FFFFFF" fill-opacity="1.000000" fill-rule="nonzero"/>
	<path id="Vector" d="M123.84 64.77L90.8 64.77C89.86 64.77 89.24 65.27 89.4 65.93C89.58 66.31 89.87 66.61 90.22 66.82C90.58 67.03 90.98 67.13 91.39 67.1L124.31 67.1C125.25 67.1 125.91 66.6 125.81 65.93C125.7 65.27 124.78 64.77 123.84 64.77Z" fill="#FFFFFF" fill-opacity="1.000000" fill-rule="nonzero"/>
	<g opacity="0.500000">
		<path id="Vector" d="M125.1 71.62L87.61 71.62C86.68 71.62 86.07 72.09 86.24 72.69C86.42 73.04 86.71 73.34 87.06 73.53C87.41 73.73 87.82 73.81 88.22 73.78L125.47 73.78C126.39 73.78 127.05 73.31 126.95 72.71C126.84 72.12 126.03 71.62 125.1 71.62Z" fill="#FFFFFF" fill-opacity="1.000000" fill-rule="nonzero"/>
	</g>
	<path id="Vector" d="M126.31 78.23L104.29 78.23C103.39 78.23 102.76 78.7 102.9 79.27C103.04 79.84 103.89 80.3 104.79 80.3L126.69 80.3C127.6 80.3 128.25 79.84 128.15 79.27C128.04 78.7 127.23 78.23 126.31 78.23Z" fill="#FFFFFF" fill-opacity="1.000000" fill-rule="nonzero"/>
	<path id="Vector" d="M127.48 84.61L91.25 84.61C90.37 84.61 89.76 85.07 89.93 85.61C90.09 86.16 90.93 86.61 91.83 86.61L127.91 86.61C128.8 86.61 129.44 86.17 129.35 85.61C129.25 85.05 128.38 84.61 127.48 84.61Z" fill="#FFFFFF" fill-opacity="1.000000" fill-rule="nonzero"/>
	<path id="Vector" d="M128.61 90.8L99.37 90.8C98.48 90.8 97.89 91.23 98.03 91.76C98.17 92.3 99 92.73 99.87 92.73L128.97 92.73C129.85 92.73 130.48 92.3 130.38 91.76C130.29 91.23 129.5 90.8 128.61 90.8Z" fill="#FFFFFF" fill-opacity="1.000000" fill-rule="nonzero"/>
	<path id="Vector" d="M129.71 96.77L100.94 96.77C100.07 96.77 99.49 97.19 99.62 97.7C99.76 98.21 100.57 98.64 101.43 98.64L130.06 98.64C130.92 98.64 131.54 98.22 131.44 97.7C131.35 97.18 130.58 96.77 129.71 96.77Z" fill="#FFFFFF" fill-opacity="1.000000" fill-rule="nonzero"/>
	<path id="Vector" d="M130.77 102.54L99.33 102.54C98.48 102.54 97.9 102.95 98.04 103.45C98.18 103.95 98.97 104.36 99.82 104.36L131.06 104.36C131.91 104.36 132.53 103.95 132.43 103.45C132.34 102.95 131.63 102.54 130.77 102.54Z" fill="#FFFFFF" fill-opacity="1.000000" fill-rule="nonzero"/>
	<g opacity="0.500000">
		<path id="Vector" d="M131.8 108.15L111.5 108.15C110.66 108.15 110.08 108.54 110.2 109.03C110.31 109.52 111.09 109.9 111.92 109.9L132.09 109.9C132.93 109.9 133.54 109.51 133.46 109.03C133.37 108.55 132.64 108.15 131.8 108.15Z" fill="#FFFFFF" fill-opacity="1.000000" fill-rule="nonzero"/>
	</g>
	<g opacity="0.500000">
		<path id="Vector" d="M121.2 50.32L92.24 50.32C91.27 50.32 90.61 50.86 90.79 51.48C90.98 51.86 91.27 52.18 91.64 52.38C92.01 52.59 92.43 52.68 92.85 52.65L121.63 52.65C122.61 52.65 123.29 52.11 123.18 51.48C123.02 51.1 122.74 50.79 122.38 50.58C122.02 50.37 121.61 50.28 121.2 50.32Z" fill="#FFFFFF" fill-opacity="1.000000" fill-rule="nonzero"/>
	</g>
	<path id="Vector" d="M119.79 42.69L79.48 42.69C78.5 42.69 77.84 43.24 78.04 43.93C78.24 44.32 78.54 44.65 78.92 44.87C79.31 45.09 79.74 45.19 80.18 45.16L120.25 45.16C121.23 45.16 121.94 44.61 121.81 43.93C121.69 43.24 120.81 42.69 119.79 42.69Z" fill="#FFFFFF" fill-opacity="1.000000" fill-rule="nonzero"/>
	<path id="Vector" d="M132.79 113.57L99.39 113.57C98.57 113.57 98.01 113.96 98.13 114.42C98.26 114.89 99.04 115.27 99.87 115.27L133.11 115.27C133.92 115.27 134.53 114.89 134.45 114.42C134.36 113.96 133.62 113.57 132.79 113.57Z" fill="#FFFFFF" fill-opacity="1.000000" fill-rule="nonzero"/>
	<g opacity="0.500000">
		<path id="Vector" d="M136.19 60.26L143.72 60.26L143.35 57.39L135.76 57.39L136.19 60.26Z" fill="#FFFFFF" fill-opacity="1.000000" fill-rule="nonzero"/>
	</g>
	<g opacity="0.500000">
		<path id="Vector" d="M137.24 67.26L144.64 67.26L144.28 64.49L136.82 64.49L137.24 67.26Z" fill="#FFFFFF" fill-opacity="1.000000" fill-rule="nonzero"/>
	</g>
	<g opacity="0.500000">
		<path id="Vector" d="M138.25 74.03L145.53 74.03L145.18 71.35L137.86 71.35L138.25 74.03Z" fill="#FFFFFF" fill-opacity="1.000000" fill-rule="nonzero"/>
	</g>
	<g opacity="0.500000">
		<path id="Vector" d="M139.24 80.56L146.39 80.56L146.04 77.96L138.85 77.96L139.24 80.56Z" fill="#FFFFFF" fill-opacity="1.000000" fill-rule="nonzero"/>
	</g>
	<g opacity="0.500000">
		<path id="Vector" d="M140.19 86.86L147.22 86.86L146.88 84.37L139.81 84.37L140.19 86.86Z" fill="#FFFFFF" fill-opacity="1.000000" fill-rule="nonzero"/>
	</g>
	<g opacity="0.500000">
		<path id="Vector" d="M141.11 92.96L148.01 92.96L147.69 90.55L140.73 90.55L141.11 92.96Z" fill="#FFFFFF" fill-opacity="1.000000" fill-rule="nonzero"/>
	</g>
	<g opacity="0.500000">
		<path id="Vector" d="M141.99 98.88L148.79 98.88L148.49 96.52L141.64 96.52L141.99 98.88Z" fill="#FFFFFF" fill-opacity="1.000000" fill-rule="nonzero"/>
	</g>
	<g opacity="0.500000">
		<path id="Vector" d="M142.84 104.58L149.53 104.58L149.24 102.32L142.5 102.32L142.84 104.58Z" fill="#FFFFFF" fill-opacity="1.000000" fill-rule="nonzero"/>
	</g>
	<g opacity="0.500000">
		<path id="Vector" d="M143.68 110.12L150.27 110.12L149.98 107.92L143.35 107.92L143.68 110.12Z" fill="#FFFFFF" fill-opacity="1.000000" fill-rule="nonzero"/>
	</g>
	<g opacity="0.500000">
		<path id="Vector" d="M135.1 53.01L142.77 53.01L142.39 50.02L134.66 50.02L135.1 53.01Z" fill="#FFFFFF" fill-opacity="1.000000" fill-rule="nonzero"/>
	</g>
	<g opacity="0.500000">
		<path id="Vector" d="M133.97 45.48L141.78 45.48L141.38 42.38L133.5 42.38L133.97 45.48Z" fill="#FFFFFF" fill-opacity="1.000000" fill-rule="nonzero"/>
	</g>
	<g opacity="0.500000">
		<path id="Vector" d="M144.48 115.48L150.97 115.48L150.69 113.35L144.17 113.35L144.48 115.48Z" fill="#FFFFFF" fill-opacity="1.000000" fill-rule="nonzero"/>
	</g>
	<path id="Vector" d="M184.19 103.45C184.19 102.95 184.84 102.54 185.69 102.54L297.25 102.54C298.1 102.54 298.68 102.95 298.53 103.45C298.34 103.76 298.08 104 297.76 104.17C297.44 104.33 297.09 104.39 296.73 104.36L185.75 104.36C184.9 104.36 184.2 103.95 184.19 103.45Z" fill="#FFFFFF" fill-opacity="1.000000" fill-rule="nonzero"/>
	<path id="Vector" d="M298.37 98.64L236.6 98.64C235.74 98.64 235.09 98.22 235.15 97.7C235.21 97.18 235.95 96.77 236.82 96.77L298.93 96.77C299.79 96.77 300.38 97.19 300.23 97.7C300.04 98.02 299.77 98.28 299.44 98.45C299.11 98.62 298.74 98.68 298.37 98.64Z" fill="#FFFFFF" fill-opacity="1.000000" fill-rule="nonzero"/>
	<g opacity="0.500000">
		<path id="Vector" d="M221.95 98.64L202.74 98.64C201.88 98.64 201.18 98.22 201.19 97.7C201.2 97.18 201.9 96.77 202.77 96.77L222.1 96.77C222.96 96.77 223.63 97.19 223.59 97.7C223.54 98.21 222.81 98.64 221.95 98.64Z" fill="#FFFFFF" fill-opacity="1.000000" fill-rule="nonzero"/>
	</g>
	<path id="Vector" d="M262.04 92.73L174.91 92.73C174.04 92.73 173.31 92.3 173.27 91.76C173.24 91.23 173.92 90.8 174.81 90.8L262.4 90.8C263.27 90.8 263.91 91.23 263.81 91.76C263.7 92.3 262.92 92.73 262.04 92.73Z" fill="#FFFFFF" fill-opacity="1.000000" fill-rule="nonzero"/>
	<g opacity="0.500000">
		<path id="Vector" d="M156.71 90.8L162.91 90.8C163.78 90.8 164.54 91.23 164.59 91.76C164.63 92.3 163.96 92.73 163.09 92.73L156.9 92.73C156.03 92.73 155.27 92.3 155.22 91.76C155.16 91.23 155.82 90.8 156.71 90.8Z" fill="#FFFFFF" fill-opacity="1.000000" fill-rule="nonzero"/>
	</g>
	<path id="Vector" d="M274.65 85.61C274.53 86.17 273.72 86.61 272.82 86.61L190.72 86.61C189.83 86.61 189.1 86.17 189.09 85.61C189.08 85.05 189.8 84.61 190.69 84.61L273.24 84.61C274.14 84.61 274.76 85.07 274.65 85.61Z" fill="#FFFFFF" fill-opacity="1.000000" fill-rule="nonzero"/>
	<path id="Vector" d="M156.04 84.61L179.33 84.61C180.22 84.61 180.97 85.07 180.99 85.61C181.01 86.16 180.3 86.61 179.42 86.61L156.25 86.61C155.37 86.61 154.6 86.17 154.53 85.61C154.46 85.05 155.14 84.61 156.04 84.61Z" fill="#FFFFFF" fill-opacity="1.000000" fill-rule="nonzero"/>
	<path id="Vector" d="M155.35 78.23L244.93 78.23C245.83 78.23 246.51 78.7 246.43 79.27C246.35 79.84 245.56 80.3 244.65 80.3L155.58 80.3C154.68 80.3 153.89 79.84 153.83 79.27C153.77 78.7 154.45 78.23 155.35 78.23Z" fill="#FFFFFF" fill-opacity="1.000000" fill-rule="nonzero"/>
	<path id="Vector" d="M213.51 73.78C212.59 73.78 211.86 73.31 211.89 72.71C211.91 72.12 212.68 71.64 213.61 71.64L260.86 71.64C261.8 71.64 262.46 72.12 262.35 72.71C262.25 73.31 261.42 73.78 260.5 73.78L213.51 73.78Z" fill="#FFFFFF" fill-opacity="1.000000" fill-rule="nonzero"/>
	<path id="Vector" d="M154.66 71.62L195.55 71.62C196.49 71.62 197.23 72.09 197.23 72.69C197.23 73.28 196.49 73.78 195.55 73.78L154.89 73.78C153.96 73.78 153.17 73.31 153.1 72.71C153.03 72.12 153.72 71.62 154.66 71.62Z" fill="#FFFFFF" fill-opacity="1.000000" fill-rule="nonzero"/>
	<path id="Vector" d="M307.45 66.99L194.87 66.99C193.94 66.99 193.17 66.49 193.17 65.83C193.17 65.17 193.92 64.67 194.87 64.67L308.08 64.67C309.03 64.67 309.64 65.17 309.47 65.83C309.28 66.2 309 66.51 308.64 66.72C308.28 66.92 307.87 67.02 307.45 66.99Z" fill="#FFFFFF" fill-opacity="1.000000" fill-rule="nonzero"/>
	<path id="Vector" d="M309.41 59.97L210.46 59.97C209.5 59.97 208.74 59.46 208.77 58.81C208.79 58.16 209.58 57.64 210.55 57.64L310.18 57.64C311.13 57.64 311.76 58.16 311.58 58.81C311.38 59.2 311.06 59.52 310.68 59.73C310.29 59.94 309.85 60.02 309.41 59.97Z" fill="#FFFFFF" fill-opacity="1.000000" fill-rule="nonzero"/>
	<g opacity="0.500000">
		<path id="Vector" d="M311.55 52.71L290.78 52.71C289.81 52.71 289.14 52.17 289.29 51.54C289.48 51.16 289.77 50.85 290.14 50.64C290.5 50.43 290.92 50.34 291.34 50.38L312.2 50.38C313.18 50.38 313.82 50.91 313.63 51.54C313.43 51.92 313.13 52.22 312.76 52.43C312.39 52.64 311.97 52.73 311.55 52.71Z" fill="#FFFFFF" fill-opacity="1.000000" fill-rule="nonzero"/>
	</g>
	<path id="Vector" d="M276.29 52.71L200.12 52.71C199.15 52.71 198.36 52.17 198.37 51.54C198.38 50.91 199.16 50.38 200.14 50.38L276.81 50.38C277.79 50.38 278.48 50.91 278.34 51.54C278.16 51.93 277.87 52.25 277.5 52.46C277.14 52.67 276.71 52.75 276.29 52.71Z" fill="#FFFFFF" fill-opacity="1.000000" fill-rule="nonzero"/>
	<path id="Vector" d="M158.54 108.15L228.9 108.15C229.73 108.15 230.37 108.54 230.32 109.03C230.26 109.52 229.56 109.9 228.72 109.9L158.74 109.9C157.9 109.9 157.18 109.51 157.14 109.03C157.09 108.55 157.71 108.15 158.54 108.15Z" fill="#FFFFFF" fill-opacity="1.000000" fill-rule="nonzero"/>
	<path id="Vector" d="M159.13 113.57L267.21 113.57C268.02 113.57 268.62 113.96 268.51 114.42C268.41 114.89 267.68 115.27 266.85 115.27L159.31 115.27C158.49 115.27 157.78 114.89 157.73 114.42C157.68 113.96 158.3 113.57 159.13 113.57Z" fill="#FFFFFF" fill-opacity="1.000000" fill-rule="nonzero"/>
	<path id="Vector" d="M272.51 45.16L217.44 45.16C216.45 45.16 215.68 44.61 215.72 43.93C215.75 43.24 216.58 42.69 217.58 42.69L272.97 42.69C273.97 42.69 274.67 43.24 274.54 43.93C274.38 44.32 274.09 44.66 273.73 44.88C273.36 45.1 272.93 45.2 272.51 45.16Z" fill="#FFFFFF" fill-opacity="1.000000" fill-rule="nonzero"/>
	<g opacity="0.500000">
		<path id="Vector" d="M201.89 45.16L151.83 45.16C150.84 45.16 149.98 44.61 149.89 43.93C149.81 43.24 150.56 42.69 151.56 42.69L201.91 42.69C202.9 42.69 203.7 43.24 203.69 43.93C203.68 44.61 202.88 45.16 201.89 45.16Z" fill="#FFFFFF" fill-opacity="1.000000" fill-rule="nonzero"/>
	</g>
	<g opacity="0.500000">
		<path id="Vector" d="M244.5 108.15C245.33 108.15 245.96 108.54 245.89 109.03C245.82 109.52 245.09 109.9 244.25 109.9L238.82 109.9C237.99 109.9 237.36 109.51 237.42 109.03C237.48 108.55 238.2 108.15 239.04 108.15L244.5 108.15Z" fill="#FFFFFF" fill-opacity="1.000000" fill-rule="nonzero"/>
	</g>
	<g opacity="0.500000">
		<path id="Vector" d="M177.78 103.45C177.78 103.95 177.14 104.36 176.29 104.36L168.88 104.36C168.03 104.36 167.31 103.95 167.28 103.45C167.24 102.95 167.89 102.54 168.74 102.54L176.18 102.54C177.04 102.54 177.75 102.95 177.78 103.45Z" fill="#FFFFFF" fill-opacity="1.000000" fill-rule="nonzero"/>
	</g>
	<g opacity="0.500000">
		<path id="Vector" d="M267.13 79.27C267.02 79.84 266.21 80.3 265.3 80.3L256.64 80.3C255.73 80.3 255.08 79.84 255.16 79.27C255.24 78.7 256.07 78.23 256.98 78.23L265.68 78.23C266.59 78.23 267.24 78.7 267.13 79.27Z" fill="#FFFFFF" fill-opacity="1.000000" fill-rule="nonzero"/>
	</g>
	<g opacity="0.500000">
		<path id="Vector" d="M294.15 84.61C295.04 84.61 295.65 85.07 295.5 85.61C295.32 85.95 295.05 86.22 294.71 86.4C294.38 86.57 294 86.65 293.62 86.61L286.72 86.61C285.82 86.61 285.22 86.17 285.35 85.61C285.52 85.28 285.79 85.01 286.13 84.83C286.46 84.65 286.84 84.58 287.21 84.61L294.15 84.61Z" fill="#FFFFFF" fill-opacity="1.000000" fill-rule="nonzero"/>
	</g>
	<g opacity="0.500000">
		<path id="Vector" d="M181.23 66.99C180.3 66.99 179.52 66.49 179.49 65.83C179.45 65.17 180.21 64.67 181.15 64.67L188.5 64.67C189.44 64.67 190.21 65.17 190.22 65.83C190.23 66.49 189.48 66.99 188.55 66.99L181.23 66.99Z" fill="#FFFFFF" fill-opacity="1.000000" fill-rule="nonzero"/>
	</g>
	<path id="Vector" d="M81.23 31.14C81.39 31.53 81.46 31.96 81.41 32.38C81.36 32.79 81.21 33.2 80.96 33.54C80.72 33.88 80.39 34.16 80.01 34.34C79.63 34.52 79.21 34.6 78.79 34.58C77.77 34.52 76.79 34.16 75.98 33.55C75.16 32.94 74.54 32.1 74.2 31.14C74.03 30.75 73.96 30.32 74 29.9C74.04 29.47 74.19 29.07 74.43 28.72C74.67 28.37 75 28.08 75.39 27.9C75.77 27.71 76.19 27.62 76.62 27.65C77.65 27.7 78.64 28.06 79.46 28.69C80.28 29.31 80.9 30.16 81.23 31.14Z" fill="#FFFFFF" fill-opacity="1.000000" fill-rule="nonzero"/>
	<path id="Vector" d="M90.66 31.2C90.81 31.6 90.85 32.03 90.79 32.45C90.73 32.87 90.56 33.27 90.31 33.61C90.05 33.95 89.72 34.22 89.33 34.4C88.95 34.57 88.52 34.65 88.1 34.62C87.1 34.57 86.13 34.22 85.33 33.61C84.53 33 83.94 32.16 83.63 31.2C83.48 30.8 83.42 30.37 83.48 29.94C83.54 29.52 83.7 29.11 83.95 28.76C84.2 28.42 84.54 28.14 84.92 27.95C85.31 27.77 85.74 27.68 86.17 27.71C87.18 27.75 88.16 28.11 88.97 28.74C89.77 29.37 90.36 30.22 90.66 31.2Z" fill="#FFFFFF" fill-opacity="1.000000" fill-rule="nonzero"/>
	<path id="Vector" d="M100.24 31.14C100.37 31.55 100.4 31.99 100.32 32.42C100.25 32.84 100.06 33.24 99.8 33.58C99.53 33.92 99.18 34.19 98.79 34.36C98.39 34.53 97.96 34.61 97.53 34.58C96.53 34.53 95.58 34.18 94.8 33.56C94.01 32.94 93.44 32.1 93.16 31.14C93.03 30.73 92.99 30.29 93.06 29.87C93.13 29.44 93.31 29.04 93.57 28.69C93.83 28.35 94.17 28.07 94.56 27.89C94.96 27.71 95.39 27.63 95.82 27.65C96.83 27.68 97.81 28.03 98.61 28.66C99.4 29.29 99.98 30.16 100.24 31.14Z" fill="#FFFFFF" fill-opacity="1.000000" fill-rule="nonzero"/>
	<path id="Vector" d="M92.05 172.88L67.49 172.88C65.95 172.88 64.47 173.49 63.38 174.58C62.29 175.67 61.67 177.15 61.67 178.7L61.67 190.66C61.67 192.2 62.29 193.68 63.38 194.77C64.47 195.87 65.95 196.48 67.49 196.48L73.91 196.48L78.77 207.51L85.63 196.48L92.05 196.48C93.59 196.48 95.07 195.87 96.16 194.77C97.25 193.68 97.87 192.2 97.87 190.66L97.87 178.65C97.85 177.12 97.24 175.65 96.15 174.56C95.06 173.48 93.58 172.88 92.05 172.88Z" fill="#FFFFFF" fill-opacity="1.000000" fill-rule="nonzero"/>
	<path id="Vector" d="M67.49 172.88C65.95 172.88 64.47 173.49 63.38 174.58C62.29 175.67 61.67 177.15 61.67 178.7L61.67 190.66C61.67 192.2 62.29 193.68 63.38 194.77C64.47 195.87 65.95 196.48 67.49 196.48L73.91 196.48L78.77 207.51L85.63 196.48L92.05 196.48C93.59 196.48 95.07 195.87 96.16 194.77C97.25 193.68 97.87 192.2 97.87 190.66L97.87 178.65C97.85 177.12 97.24 175.65 96.15 174.56C95.06 173.48 93.58 172.88 92.05 172.88L67.49 172.88Z" stroke="#263238" stroke-opacity="1.000000" stroke-width="1.000000" stroke-linejoin="round"/>
	<path id="Vector" d="M76.35 179.75C76.35 179.44 76.48 179.14 76.69 178.92C76.91 178.7 77.21 178.58 77.52 178.58C77.81 178.58 78.1 178.69 78.31 178.89C78.53 179.09 78.66 179.37 78.68 179.66C78.68 179.97 78.56 180.27 78.34 180.49C78.12 180.71 77.83 180.83 77.52 180.83C77.22 180.83 76.94 180.72 76.72 180.52C76.51 180.32 76.37 180.04 76.35 179.75ZM76.61 182.18L78.48 182.18L78.48 190.17L76.57 190.17L76.61 182.18Z" fill="#263238" fill-opacity="1.000000" fill-rule="nonzero"/>
	<path id="Vector" d="M82.99 181.74L82.99 182.21L85.19 182.21L85.19 183.72L83.06 183.72L83.06 190.14L81.23 190.14L81.23 183.72L79.87 183.72L79.87 182.21L81.23 182.21L81.23 181.7C81.2 181.32 81.25 180.94 81.39 180.59C81.52 180.23 81.73 179.91 82.01 179.65C82.28 179.39 82.61 179.19 82.97 179.06C83.32 178.94 83.71 178.9 84.08 178.94C84.68 178.91 85.27 179.06 85.78 179.37L85.26 180.78C84.95 180.57 84.59 180.46 84.22 180.46C83.4 180.46 82.99 180.91 82.99 181.74Z" fill="#263238" fill-opacity="1.000000" fill-rule="nonzero"/>
	<path id="Vector" d="M166.81 174.55L142.25 174.55C140.7 174.55 139.22 175.17 138.13 176.26C137.04 177.35 136.42 178.83 136.42 180.37L136.42 192.32C136.42 193.87 137.04 195.35 138.13 196.44C139.22 197.53 140.7 198.14 142.25 198.14L148.67 198.14L153.53 209.17L160.38 198.14L166.81 198.14C168.35 198.14 169.83 197.53 170.93 196.44C172.02 195.35 172.63 193.87 172.63 192.32L172.63 180.33C172.62 178.79 172 177.32 170.91 176.24C169.82 175.16 168.35 174.55 166.81 174.55Z" fill="#FFFFFF" fill-opacity="1.000000" fill-rule="nonzero"/>
	<path id="Vector" d="M142.25 174.55C140.7 174.55 139.22 175.17 138.13 176.26C137.04 177.35 136.42 178.83 136.42 180.37L136.42 192.32C136.42 193.87 137.04 195.35 138.13 196.44C139.22 197.53 140.7 198.14 142.25 198.14L148.67 198.14L153.53 209.17L160.38 198.14L166.81 198.14C168.35 198.14 169.83 197.53 170.93 196.44C172.02 195.35 172.63 193.87 172.63 192.32L172.63 180.33C172.62 178.79 172 177.32 170.91 176.24C169.82 175.16 168.35 174.55 166.81 174.55L142.25 174.55Z" stroke="#263238" stroke-opacity="1.000000" stroke-width="1.000000" stroke-linejoin="round"/>
	<path id="Vector" d="M147.42 188.42L141.14 188.42C141.26 189 141.6 189.52 142.07 189.87C142.55 190.23 143.14 190.39 143.74 190.34C144.14 190.36 144.54 190.29 144.91 190.14C145.28 189.99 145.62 189.76 145.9 189.47L146.9 190.63C146.3 191.23 145.53 191.65 144.7 191.83C143.87 192.02 143 191.96 142.2 191.66C141.4 191.37 140.7 190.85 140.18 190.18C139.66 189.5 139.35 188.69 139.28 187.84C139.26 187.29 139.36 186.75 139.56 186.25C139.76 185.74 140.06 185.28 140.45 184.9C140.84 184.52 141.3 184.22 141.81 184.02C142.31 183.82 142.85 183.73 143.4 183.75C143.94 183.73 144.49 183.82 144.99 184.02C145.5 184.22 145.96 184.53 146.34 184.92C146.72 185.31 147.01 185.77 147.2 186.29C147.39 186.8 147.47 187.34 147.44 187.89C147.44 188.01 147.43 188.25 147.42 188.42ZM141.13 187.19L145.66 187.19C145.6 186.63 145.34 186.12 144.92 185.76C144.5 185.4 143.95 185.21 143.4 185.23C142.84 185.21 142.3 185.4 141.88 185.76C141.46 186.13 141.19 186.63 141.13 187.19Z" fill="#263238" fill-opacity="1.000000" fill-rule="nonzero"/>
	<path id="Vector" d="M149.23 180.72L151.08 180.72L151.08 191.82L149.21 191.82L149.23 180.72Z" fill="#263238" fill-opacity="1.000000" fill-rule="nonzero"/>
	<path id="Vector" d="M152.64 191.03L153.35 189.61C154.19 190.12 155.15 190.4 156.13 190.4C157.3 190.4 157.81 190.07 157.81 189.52C157.81 187.99 152.87 189.42 152.87 186.24C152.87 184.73 154.24 183.74 156.37 183.74C157.41 183.72 158.43 183.96 159.36 184.43L158.64 185.85C157.93 185.44 157.13 185.23 156.31 185.25C155.14 185.25 154.63 185.63 154.63 186.15C154.63 187.77 159.57 186.32 159.57 189.46C159.57 190.95 158.2 191.93 155.95 191.93C154.78 191.93 153.64 191.62 152.64 191.03Z" fill="#263238" fill-opacity="1.000000" fill-rule="nonzero"/>
	<path id="Vector" d="M168.73 188.42L162.46 188.42C162.58 189 162.91 189.52 163.39 189.87C163.87 190.23 164.46 190.39 165.05 190.34C165.45 190.36 165.86 190.29 166.23 190.14C166.6 189.99 166.94 189.76 167.22 189.47L168.22 190.63C167.61 191.23 166.85 191.65 166.02 191.83C165.19 192.02 164.32 191.96 163.52 191.66C162.72 191.37 162.02 190.85 161.5 190.18C160.98 189.5 160.67 188.69 160.59 187.84C160.58 187.29 160.67 186.75 160.87 186.25C161.08 185.74 161.38 185.28 161.77 184.9C162.15 184.52 162.61 184.22 163.12 184.02C163.63 183.82 164.17 183.73 164.72 183.75C165.26 183.73 165.8 183.82 166.31 184.02C166.82 184.22 167.27 184.53 167.66 184.92C168.04 185.31 168.33 185.77 168.52 186.29C168.71 186.8 168.79 187.34 168.75 187.89C168.75 188.01 168.74 188.25 168.73 188.42ZM162.45 187.19L166.97 187.19C166.92 186.63 166.65 186.12 166.23 185.76C165.81 185.4 165.27 185.21 164.72 185.23C164.16 185.21 163.62 185.4 163.2 185.76C162.77 186.13 162.51 186.63 162.45 187.19Z" fill="#263238" fill-opacity="1.000000" fill-rule="nonzero"/>
	<path id="Vector" d="M239.29 173.84L214.73 173.84C213.18 173.84 211.7 174.46 210.61 175.55C209.52 176.64 208.91 178.12 208.91 179.66L208.91 191.62C208.91 193.17 209.52 194.65 210.61 195.74C211.7 196.83 213.18 197.45 214.73 197.45L221.15 197.45L226.01 208.47L232.87 197.45L239.29 197.45C240.84 197.45 242.32 196.83 243.41 195.74C244.5 194.65 245.11 193.17 245.11 191.62L245.11 179.62C245.1 178.08 244.48 176.61 243.39 175.53C242.3 174.45 240.83 173.84 239.29 173.84Z" fill="#FFFFFF" fill-opacity="1.000000" fill-rule="nonzero"/>
	<path id="Vector" d="M214.73 173.84C213.18 173.84 211.7 174.46 210.61 175.55C209.52 176.64 208.91 178.12 208.91 179.66L208.91 191.62C208.91 193.17 209.52 194.65 210.61 195.74C211.7 196.83 213.18 197.45 214.73 197.45L221.15 197.45L226.01 208.47L232.87 197.45L239.29 197.45C240.84 197.45 242.32 196.83 243.41 195.74C244.5 194.65 245.11 193.17 245.11 191.62L245.11 179.62C245.1 178.08 244.48 176.61 243.39 175.53C242.3 174.45 240.83 173.84 239.29 173.84L214.73 173.84Z" stroke="#263238" stroke-opacity="1.000000" stroke-width="1.000000" stroke-linejoin="round"/>
	<path id="Vector" d="M220.36 182.7L220.36 183.24L222.56 183.24L222.56 184.74L220.42 184.74L220.42 191.17L218.6 191.17L218.6 184.74L217.29 184.74L217.29 183.24L218.6 183.24L218.6 182.73C218.58 182.35 218.63 181.97 218.76 181.61C218.9 181.26 219.11 180.94 219.38 180.67C219.65 180.41 219.98 180.21 220.34 180.09C220.7 179.97 221.08 179.92 221.46 179.97C222.05 179.94 222.64 180.09 223.15 180.4L222.62 181.81C222.32 181.59 221.96 181.47 221.6 181.47C220.77 181.41 220.36 181.85 220.36 182.7Z" fill="#263238" fill-opacity="1.000000" fill-rule="nonzero"/>
	<path id="Vector" d="M223.04 187.12C223.01 186.27 223.23 185.43 223.68 184.71C224.13 183.98 224.78 183.41 225.56 183.06C226.33 182.72 227.2 182.61 228.03 182.76C228.87 182.9 229.64 183.3 230.26 183.89C230.87 184.48 231.29 185.24 231.47 186.07C231.64 186.9 231.57 187.76 231.25 188.55C230.93 189.34 230.38 190.02 229.68 190.49C228.97 190.96 228.14 191.22 227.29 191.22C226.74 191.25 226.18 191.17 225.66 190.97C225.14 190.78 224.67 190.48 224.27 190.1C223.87 189.71 223.55 189.25 223.34 188.74C223.13 188.22 223.03 187.67 223.04 187.12ZM229.66 187.12C229.63 186.66 229.47 186.23 229.2 185.87C228.92 185.51 228.55 185.24 228.12 185.08C227.69 184.93 227.23 184.91 226.79 185.02C226.35 185.12 225.95 185.36 225.64 185.69C225.33 186.02 225.13 186.44 225.05 186.88C224.97 187.33 225.03 187.79 225.21 188.2C225.39 188.62 225.68 188.98 226.06 189.22C226.44 189.47 226.88 189.61 227.34 189.61C227.66 189.61 227.97 189.54 228.27 189.42C228.56 189.29 228.82 189.1 229.04 188.87C229.26 188.64 229.43 188.36 229.54 188.06C229.64 187.76 229.69 187.44 229.66 187.12Z" fill="#263238" fill-opacity="1.000000" fill-rule="nonzero"/>
	<path id="Vector" d="M237.95 183.03L237.95 184.81C237.81 184.8 237.67 184.8 237.52 184.81C237.2 184.79 236.87 184.83 236.57 184.95C236.26 185.07 235.99 185.25 235.77 185.49C235.54 185.72 235.38 186.01 235.28 186.32C235.18 186.63 235.15 186.96 235.19 187.28L235.19 191.16L233.32 191.16L233.32 183.12L235.1 183.12L235.1 184.29C235.43 183.85 235.86 183.5 236.36 183.28C236.86 183.06 237.41 182.97 237.95 183.03Z" fill="#263238" fill-opacity="1.000000" fill-rule="nonzero"/>
	<path id="Vector" d="M310.73 172.88L286.13 172.88C284.58 172.88 283.1 173.49 282.01 174.58C280.92 175.67 280.31 177.15 280.31 178.7L280.31 190.66C280.31 192.2 280.92 193.68 282.01 194.77C283.1 195.87 284.58 196.48 286.13 196.48L292.55 196.48L297.41 207.51L304.26 196.48L310.69 196.48C312.24 196.48 313.72 195.87 314.81 194.77C315.9 193.68 316.51 192.2 316.51 190.66L316.51 178.65C316.5 177.12 315.89 175.66 314.8 174.58C313.72 173.5 312.26 172.88 310.73 172.88Z" fill="#FFFFFF" fill-opacity="1.000000" fill-rule="nonzero"/>
	<path id="Vector" d="M286.13 172.88C284.58 172.88 283.1 173.49 282.01 174.58C280.92 175.67 280.31 177.15 280.31 178.7L280.31 190.66C280.31 192.2 280.92 193.68 282.01 194.77C283.1 195.87 284.58 196.48 286.13 196.48L292.55 196.48L297.41 207.51L304.26 196.48L310.69 196.48C312.24 196.48 313.72 195.87 314.81 194.77C315.9 193.68 316.51 192.2 316.51 190.66L316.51 178.65C316.5 177.12 315.89 175.66 314.8 174.58C313.72 173.5 312.26 172.88 310.73 172.88L286.13 172.88Z" stroke="#263238" stroke-opacity="1.000000" stroke-width="1.000000" stroke-linejoin="round"/>
	<path id="Vector" d="M295.25 181.76L302.15 181.76L302.15 183.24L295.25 183.24L295.25 181.76ZM295.25 185.38L302.15 185.38L302.15 186.88L295.25 186.88L295.25 185.38Z" fill="#263238" fill-opacity="1.000000" fill-rule="nonzero"/>
	<path id="Vector" d="M129.49 159.05L104.92 159.05C103.38 159.05 101.9 159.67 100.81 160.76C99.71 161.85 99.1 163.33 99.1 164.88L99.1 176.82C99.1 178.37 99.71 179.85 100.81 180.94C101.9 182.03 103.38 182.65 104.92 182.65L111.35 182.65L116.2 193.67L123.06 182.65L129.49 182.65C131.03 182.65 132.51 182.03 133.6 180.94C134.69 179.85 135.31 178.37 135.31 176.82L135.31 164.83C135.3 163.29 134.68 161.82 133.59 160.74C132.5 159.66 131.02 159.05 129.49 159.05Z" fill="#FFFFFF" fill-opacity="1.000000" fill-rule="nonzero"/>
	<path id="Vector" d="M104.92 159.05C103.38 159.05 101.9 159.67 100.81 160.76C99.71 161.85 99.1 163.33 99.1 164.88L99.1 176.82C99.1 178.37 99.71 179.85 100.81 180.94C101.9 182.03 103.38 182.65 104.92 182.65L111.35 182.65L116.2 193.67L123.06 182.65L129.49 182.65C131.03 182.65 132.51 182.03 133.6 180.94C134.69 179.85 135.31 178.37 135.31 176.82L135.31 164.83C135.3 163.29 134.68 161.82 133.59 160.74C132.5 159.66 131.02 159.05 129.49 159.05L104.92 159.05Z" stroke="#263238" stroke-opacity="1.000000" stroke-width="1.000000" stroke-linejoin="round"/>
	<path id="Vector" d="M111.43 164.01L114.99 164.01L114.99 165.52L113.29 165.52L113.29 176.52L114.99 176.52L114.99 178.02L111.43 178.02L111.43 164.01Z" fill="#263238" fill-opacity="1.000000" fill-rule="nonzero"/>
	<path id="Vector" d="M119.65 178.02L119.65 176.52L121.34 176.52L121.34 165.52L119.65 165.52L119.65 164.01L123.14 164.01L123.14 177.99L119.65 178.02Z" fill="#263238" fill-opacity="1.000000" fill-rule="nonzero"/>
	<path id="Vector" d="M202.5 157.83L177.94 157.83C176.4 157.83 174.92 158.44 173.82 159.54C172.73 160.63 172.12 162.11 172.12 163.65L172.12 175.55C172.12 177.1 172.73 178.58 173.82 179.67C174.92 180.76 176.4 181.38 177.94 181.38L184.37 181.38L189.23 192.4L196.09 181.38L202.5 181.38C204.05 181.38 205.53 180.76 206.62 179.67C207.71 178.58 208.33 177.1 208.33 175.55L208.33 163.61C208.31 162.07 207.69 160.6 206.6 159.52C205.51 158.44 204.04 157.83 202.5 157.83Z" fill="#FFFFFF" fill-opacity="1.000000" fill-rule="nonzero"/>
	<path id="Vector" d="M177.94 157.83C176.4 157.83 174.92 158.44 173.82 159.54C172.73 160.63 172.12 162.11 172.12 163.65L172.12 175.55C172.12 177.1 172.73 178.58 173.82 179.67C174.92 180.76 176.4 181.38 177.94 181.38L184.37 181.38L189.23 192.4L196.09 181.38L202.5 181.38C204.05 181.38 205.53 180.76 206.62 179.67C207.71 178.58 208.33 177.1 208.33 175.55L208.33 163.61C208.31 162.07 207.69 160.6 206.6 159.52C205.51 158.44 204.04 157.83 202.5 157.83L177.94 157.83Z" stroke="#263238" stroke-opacity="1.000000" stroke-width="1.000000" stroke-linejoin="round"/>
	<path id="Vector" d="M185.23 169.74C185.82 169.94 186.11 170.35 186.11 171.27L186.11 174.12C186.09 174.28 186.1 174.43 186.14 174.58C186.19 174.73 186.27 174.87 186.37 174.98C186.48 175.09 186.61 175.18 186.76 175.23C186.91 175.29 187.06 175.3 187.22 175.29L187.53 175.29L187.53 176.79L186.78 176.79C186.44 176.84 186.1 176.81 185.77 176.71C185.45 176.6 185.15 176.43 184.91 176.19C184.66 175.95 184.47 175.66 184.36 175.34C184.24 175.02 184.2 174.68 184.24 174.34L184.24 171.27C184.24 170.77 183.98 170.55 183.56 170.55L183.07 170.55L183.07 169.02L183.56 169.02C183.98 169.02 184.24 168.8 184.24 168.3L184.24 165.21C184.2 164.88 184.24 164.53 184.36 164.21C184.47 163.89 184.66 163.6 184.91 163.37C185.15 163.13 185.45 162.96 185.77 162.86C186.1 162.75 186.44 162.73 186.78 162.78L187.53 162.78L187.53 164.28L187.17 164.28C187.02 164.26 186.86 164.28 186.71 164.33C186.56 164.38 186.43 164.47 186.32 164.58C186.21 164.7 186.13 164.83 186.09 164.98C186.04 165.13 186.04 165.29 186.07 165.45L186.07 168.29C186.11 169.15 185.82 169.56 185.23 169.74Z" fill="#263238" fill-opacity="1.000000" fill-rule="nonzero"/>
	<path id="Vector" d="M196.64 168.99L196.64 170.51L196.12 170.51C195.72 170.51 195.46 170.73 195.46 171.23L195.46 174.31C195.5 174.65 195.45 174.99 195.34 175.31C195.22 175.63 195.03 175.92 194.79 176.16C194.54 176.39 194.24 176.57 193.92 176.67C193.59 176.78 193.25 176.8 192.91 176.75L192.15 176.75L192.15 175.25L192.47 175.25C192.63 175.28 192.79 175.27 192.94 175.22C193.1 175.17 193.24 175.08 193.35 174.97C193.46 174.85 193.55 174.71 193.6 174.56C193.65 174.41 193.66 174.25 193.63 174.09L193.63 171.23C193.63 170.31 193.9 169.91 194.49 169.71C193.9 169.52 193.63 169.11 193.63 168.18L193.63 165.34C193.66 165.18 193.65 165.02 193.6 164.86C193.56 164.71 193.47 164.57 193.36 164.45C193.24 164.34 193.1 164.26 192.95 164.21C192.79 164.16 192.63 164.15 192.47 164.18L192.15 164.18L192.15 162.75L192.91 162.75C193.25 162.69 193.59 162.72 193.92 162.82C194.24 162.92 194.54 163.1 194.79 163.33C195.03 163.57 195.22 163.86 195.34 164.18C195.45 164.5 195.5 164.84 195.46 165.18L195.46 168.26C195.46 168.77 195.72 168.99 196.12 168.99L196.64 168.99Z" fill="#263238" fill-opacity="1.000000" fill-rule="nonzero"/>
	<path id="Vector" d="M274.75 155.41L250.19 155.41C248.65 155.41 247.16 156.02 246.07 157.11C244.98 158.21 244.37 159.69 244.37 161.23L244.37 173.18C244.37 174.72 244.98 176.2 246.07 177.3C247.16 178.39 248.65 179 250.19 179L256.6 179L261.47 190.03L268.33 179L274.75 179C276.3 179 277.78 178.39 278.87 177.3C279.96 176.2 280.57 174.72 280.57 173.18L280.57 161.18C280.56 159.65 279.94 158.18 278.85 157.1C277.76 156.02 276.29 155.41 274.75 155.41Z" fill="#FFFFFF" fill-opacity="1.000000" fill-rule="nonzero"/>
	<path id="Vector" d="M250.19 155.41C248.65 155.41 247.16 156.02 246.07 157.11C244.98 158.21 244.37 159.69 244.37 161.23L244.37 173.18C244.37 174.72 244.98 176.2 246.07 177.3C247.16 178.39 248.65 179 250.19 179L256.6 179L261.47 190.03L268.33 179L274.75 179C276.3 179 277.78 178.39 278.87 177.3C279.96 176.2 280.57 174.72 280.57 173.18L280.57 161.18C280.56 159.65 279.94 158.18 278.85 157.1C277.76 156.02 276.29 155.41 274.75 155.41L250.19 155.41Z" stroke="#263238" stroke-opacity="1.000000" stroke-width="1.000000" stroke-linejoin="round"/>
	<path id="Vector" d="M261.49 164.25C261.48 164.08 261.5 163.9 261.55 163.74C261.6 163.58 261.69 163.42 261.81 163.3C261.92 163.17 262.06 163.07 262.22 163C262.38 162.93 262.55 162.89 262.72 162.89C262.89 162.89 263.06 162.93 263.22 163C263.38 163.07 263.52 163.17 263.64 163.3C263.75 163.42 263.84 163.58 263.89 163.74C263.95 163.9 263.97 164.08 263.95 164.25C263.97 164.42 263.95 164.59 263.89 164.76C263.84 164.92 263.75 165.07 263.64 165.2C263.52 165.32 263.38 165.43 263.22 165.5C263.06 165.57 262.89 165.6 262.72 165.6C262.55 165.6 262.38 165.57 262.22 165.5C262.06 165.43 261.92 165.32 261.81 165.2C261.69 165.07 261.6 164.92 261.55 164.76C261.5 164.59 261.48 164.42 261.49 164.25ZM263.95 169.95C263.92 170.4 263.8 170.83 263.6 171.23L262.83 173.35L261.67 173.35L262.27 171.02C262.06 170.93 261.87 170.78 261.75 170.58C261.62 170.38 261.56 170.15 261.56 169.92C261.56 169.6 261.69 169.29 261.92 169.06C262.15 168.83 262.46 168.7 262.78 168.7C263.1 168.7 263.41 168.83 263.64 169.06C263.87 169.29 264 169.6 264 169.92L263.95 169.95Z" fill="#263238" fill-opacity="1.000000" fill-rule="nonzero"/>
	<path id="Vector" d="M178.73 364.35L203.28 364.35C204.83 364.35 206.31 363.74 207.4 362.65C208.49 361.56 209.1 360.08 209.1 358.53L209.1 346.62C209.09 345.09 208.47 343.62 207.38 342.54C206.29 341.46 204.82 340.86 203.28 340.86L196.87 340.86L195 329.83L185.15 340.86L178.73 340.86C177.2 340.86 175.73 341.46 174.64 342.54C173.55 343.62 172.93 345.09 172.91 346.62L172.91 358.58C172.92 360.11 173.54 361.58 174.63 362.67C175.72 363.75 177.2 364.35 178.73 364.35Z" fill="#FFFFFF" fill-opacity="1.000000" fill-rule="nonzero"/>
	<path id="Vector" d="M203.28 364.35C204.83 364.35 206.31 363.74 207.4 362.65C208.49 361.56 209.1 360.08 209.1 358.53L209.1 346.62C209.09 345.09 208.47 343.62 207.38 342.54C206.29 341.46 204.82 340.86 203.28 340.86L196.87 340.86L195 329.83L185.15 340.86L178.73 340.86C177.2 340.86 175.73 341.46 174.64 342.54C173.55 343.62 172.93 345.09 172.91 346.62L172.91 358.58C172.92 360.11 173.54 361.58 174.63 362.67C175.72 363.75 177.2 364.35 178.73 364.35L203.28 364.35Z" stroke="#263238" stroke-opacity="1.000000" stroke-width="1.000000" stroke-linejoin="round"/>
	<path id="Vector" d="M187.36 350.15L182.2 352.08L187.36 354.01L187.36 355.57L180.47 352.9L180.47 351.27L187.36 348.59L187.36 350.15Z" fill="#263238" fill-opacity="1.000000" fill-rule="nonzero"/>
	<path id="Vector" d="M192.81 344.71L194.47 344.71L189.5 358.81L187.87 358.81L192.81 344.71Z" fill="#263238" fill-opacity="1.000000" fill-rule="nonzero"/>
	<path id="Vector" d="M201.72 351.27L201.72 352.88L194.83 355.56L194.83 354L199.98 352.08L194.82 350.16L194.82 348.59L201.72 351.27Z" fill="#263238" fill-opacity="1.000000" fill-rule="nonzero"/>
	<path id="Vector" d="M22.59 277.31L47.14 277.31C48.69 277.31 50.17 276.7 51.26 275.61C52.35 274.52 52.96 273.04 52.96 271.49L52.96 259.59C52.96 258.05 52.35 256.57 51.26 255.47C50.17 254.38 48.69 253.77 47.14 253.77L40.73 253.77L42.13 242.74L29 253.77L22.59 253.77C21.05 253.77 19.57 254.38 18.47 255.47C17.38 256.57 16.77 258.05 16.77 259.59L16.77 271.54C16.78 273.07 17.4 274.54 18.49 275.62C19.58 276.71 21.05 277.31 22.59 277.31Z" fill="#FFFFFF" fill-opacity="1.000000" fill-rule="nonzero"/>
	<path id="Vector" d="M47.14 277.31C48.69 277.31 50.17 276.7 51.26 275.61C52.35 274.52 52.96 273.04 52.96 271.49L52.96 259.59C52.96 258.05 52.35 256.57 51.26 255.47C50.17 254.38 48.69 253.77 47.14 253.77L40.73 253.77L42.13 242.74L29 253.77L22.59 253.77C21.05 253.77 19.57 254.38 18.47 255.47C17.38 256.57 16.77 258.05 16.77 259.59L16.77 271.54C16.78 273.07 17.4 274.54 18.49 275.62C19.58 276.71 21.05 277.31 22.59 277.31L47.14 277.31Z" stroke="#263238" stroke-opacity="1.000000" stroke-width="1.000000" stroke-linejoin="round"/>
	<path id="Vector" d="M29.87 269.73C29.87 269.42 29.99 269.13 30.21 268.91C30.43 268.69 30.72 268.57 31.03 268.57C31.34 268.57 31.64 268.69 31.85 268.91C32.07 269.13 32.2 269.42 32.2 269.73C32.2 270.04 32.07 270.34 31.85 270.56C31.64 270.77 31.34 270.9 31.03 270.9C30.72 270.9 30.43 270.77 30.21 270.56C29.99 270.34 29.87 270.04 29.87 269.73ZM30.01 260.32L32.22 260.32L31.85 267.31L30.33 267.31L30.01 260.32Z" fill="#263238" fill-opacity="1.000000" fill-rule="nonzero"/>
	<path id="Vector" d="M34.12 263L41.01 263L41.01 264.5L34.12 264.5L34.12 263ZM34.12 266.62L41.01 266.62L41.01 268.13L34.12 268.13L34.12 266.62Z" fill="#263238" fill-opacity="1.000000" fill-rule="nonzero"/>
</svg>
