<svg width="407.000000" height="354.000000" viewBox="0 0 407 354" fill="none" xmlns="http://www.w3.org/2000/svg" xmlns:xlink="http://www.w3.org/1999/xlink">
	<desc>
			Created with Pixso.
	</desc>
	<defs/>
	<path id="path54" d="M318.5 230.59C312.05 235.95 314.19 267.26 294.23 253.78C274.28 240.3 308.32 232.3 306.37 224.66C303.64 213.95 258.64 226.81 266.19 206.32C273.74 185.82 300.64 216.64 307.72 209.01C314.21 202 281.83 176.65 296.93 172.34C312.03 168.02 308.78 204.7 318.5 204.7C326.07 204.7 324.66 169.64 338.57 182.05C352.48 194.45 322.07 206.67 326.06 214.37C329.08 220.22 353.02 205.78 351.95 219.26C350.87 232.75 325.29 224.95 318.5 230.59Z" fill="#38BFF2" fill-opacity="1.000000" fill-rule="nonzero"/>
	<path id="path58" d="M314.19 214.55C314.19 214.55 328.75 232.21 327.13 280.21" stroke="#1A2E35" stroke-opacity="1.000000" stroke-width="1.333333" stroke-linejoin="round" stroke-linecap="round"/>
	<path id="path62" d="M285.82 239.53C288.4 234.34 309.79 230.79 297.55 219.52C285.31 208.25 285.35 232.41 279.9 232.31C272.27 232.19 273.76 199.88 261.18 208.22C248.6 216.56 273.6 229.74 269.6 235.71C265.92 241.19 243.72 223.45 243.22 234.29C242.73 245.13 266.87 237.11 268.41 243.65C269.62 248.74 245.82 253.37 256.38 260.75C266.93 268.12 270.31 245.73 276.12 247.19C280.53 248.29 274.63 266.68 283.52 263.81C292.42 260.94 283.1 244.99 285.82 239.53Z" fill="#38BFF2" fill-opacity="1.000000" fill-rule="nonzero"/>
	<g opacity="0.300003">
		<g opacity="0.300003">
			<g opacity="0.300003">
				<path id="path72" d="M285.82 239.53C288.4 234.34 309.79 230.79 297.55 219.52C285.31 208.25 285.35 232.41 279.9 232.31C272.27 232.19 273.76 199.88 261.18 208.22C248.6 216.56 273.6 229.74 269.6 235.71C265.92 241.19 243.72 223.45 243.22 234.29C242.72 245.13 266.87 237.11 268.41 243.65C269.62 248.74 245.82 253.37 256.38 260.74C266.93 268.12 270.31 245.73 276.12 247.19C280.53 248.29 274.63 266.68 283.52 263.81C292.42 260.94 283.1 244.99 285.82 239.53Z" fill="#000000" fill-opacity="1.000000" fill-rule="nonzero"/>
			</g>
		</g>
	</g>
	<path id="path82" d="M274.82 239.76C274.82 239.76 316.26 235.44 320.35 280.21" stroke="#1A2E35" stroke-opacity="1.000000" stroke-width="1.333333" stroke-linejoin="round" stroke-linecap="round"/>
	<path id="path86" d="M353.82 234.9C360.28 240.27 358.14 271.58 378.1 258.1C398.05 244.61 364.01 236.61 365.96 228.97C368.69 218.27 413.69 231.13 406.14 210.63C398.59 190.14 371.68 220.96 364.61 213.33C358.12 206.32 390.5 180.97 375.4 176.65C360.3 172.34 363.55 209.02 353.82 209.01C346.26 209.01 347.67 173.95 333.76 186.36C319.84 198.77 350.25 210.99 346.27 218.69C343.25 224.54 319.31 210.09 320.38 223.58C321.46 237.06 347.04 229.26 353.82 234.9Z" fill="#38BFF2" fill-opacity="1.000000" fill-rule="nonzero"/>
	<g opacity="0.300003">
		<g opacity="0.300003">
			<g opacity="0.300003">
				<path id="path96" d="M353.82 234.9C360.28 240.27 358.14 271.58 378.1 258.1C398.05 244.61 364.01 236.61 365.96 228.97C368.69 218.27 413.69 231.13 406.14 210.63C398.59 190.14 371.68 220.96 364.61 213.33C358.12 206.32 390.5 180.97 375.4 176.65C360.3 172.34 363.55 209.02 353.82 209.01C346.26 209.01 347.67 173.95 333.76 186.36C319.84 198.77 350.25 210.99 346.27 218.69C343.25 224.54 319.31 210.09 320.38 223.58C321.46 237.06 347.04 229.26 353.82 234.9Z" fill="#FFFFFF" fill-opacity="1.000000" fill-rule="nonzero"/>
			</g>
		</g>
	</g>
	<path id="path106" d="M358.42 218.87C358.42 218.87 339.54 244.07 335.22 286.14" stroke="#1A2E35" stroke-opacity="1.000000" stroke-width="1.333333" stroke-linejoin="round" stroke-linecap="round"/>
	<path id="path110" d="M344.9 351.95L315.47 351.95C309.84 351.95 305.14 347.64 304.67 342.03L300.04 287.66C299.5 281.33 304.5 275.89 310.85 275.89L349.53 275.89C355.88 275.89 360.87 281.33 360.34 287.66L355.71 342.03C355.23 347.64 350.54 351.95 344.9 351.95Z" fill="#38BFF2" fill-opacity="1.000000" fill-rule="nonzero"/>
	<path id="path114" d="M315.47 351.95C309.84 351.95 305.14 347.64 304.67 342.03L300.04 287.66C299.5 281.33 304.5 275.89 310.85 275.89L349.53 275.89C355.88 275.89 360.87 281.33 360.34 287.66L355.71 342.03C355.23 347.64 350.54 351.95 344.9 351.95L315.47 351.95Z" stroke="#1A2E35" stroke-opacity="1.000000" stroke-width="1.333333" stroke-linejoin="round"/>
	<path id="path126" d="M124.55 273.87C134.39 273.87 162.8 267.45 162.8 267.45L86.31 267.45C86.31 267.45 114.72 273.87 124.55 273.87Z" fill="#1A2E35" fill-opacity="1.000000" fill-rule="nonzero"/>
	<path id="path130" d="M162.8 267.45L86.31 267.45C86.31 267.45 114.72 273.87 124.55 273.87C134.39 273.87 162.8 267.45 162.8 267.45Z" stroke="#1A2E35" stroke-opacity="1.000000" stroke-width="1.333333" stroke-linejoin="round"/>
	<path id="path132" d="M115.79 282.67L133.32 282.67L133.32 270.66L115.79 270.66L115.79 282.67Z" fill="#868686" fill-opacity="1.000000" fill-rule="nonzero"/>
	<path id="path132" d="M133.32 282.67L133.32 270.66L115.79 270.66L115.79 282.67L133.32 282.67Z" stroke="#1A2E35" stroke-opacity="1.000000" stroke-width="1.333333" stroke-linejoin="round"/>
	<path id="path134" d="M113.2 334.34L135.91 334.34L135.91 282.67L113.2 282.67L113.2 334.34Z" fill="#9A9A9A" fill-opacity="1.000000" fill-rule="nonzero"/>
	<path id="path134" d="M135.91 334.34L135.91 282.67L113.2 282.67L113.2 334.34L135.91 334.34Z" stroke="#1A2E35" stroke-opacity="1.000000" stroke-width="1.333333" stroke-linejoin="round"/>
	<path id="path138" d="M81.89 252.13L96.65 252.13C95.01 241.96 93.8 231.59 93.06 221.32L78.29 221.32C79.04 231.59 80.25 241.96 81.89 252.13Z" fill="#868686" fill-opacity="1.000000" fill-rule="nonzero"/>
	<path id="path142" d="M96.65 252.13C95.01 241.96 93.8 231.59 93.06 221.32L78.29 221.32C79.04 231.59 80.25 241.96 81.89 252.13L96.65 252.13Z" stroke="#1A2E35" stroke-opacity="1.000000" stroke-width="1.333333" stroke-linejoin="round"/>
	<path id="path146" d="M59.47 130.33L123.1 130.33C130.58 130.33 135.47 136.65 134.03 144.09C129.95 167 127.55 189.65 126.75 212.91C126.63 219.65 121.5 224.86 114.76 224.86L61.19 224.86C54.45 224.86 48.37 219.65 47.51 212.91C44.93 189.89 44 167.25 44.72 144.09C45.07 136.65 51.99 130.33 59.47 130.33Z" fill="#868686" fill-opacity="1.000000" fill-rule="nonzero"/>
	<path id="path150" d="M123.1 130.33C130.58 130.33 135.47 136.65 134.03 144.09C129.95 167 127.55 189.65 126.75 212.91C126.63 219.65 121.5 224.86 114.76 224.86L61.19 224.86C54.45 224.86 48.37 219.65 47.51 212.91C44.93 189.89 44 167.25 44.72 144.09C45.07 136.65 51.99 130.33 59.47 130.33L123.1 130.33Z" stroke="#1A2E35" stroke-opacity="1.000000" stroke-width="1.333333" stroke-linejoin="round"/>
	<path id="path154" d="M56 144.09C55.28 167.25 56.21 189.89 58.79 212.91C59.66 219.65 65.73 224.86 72.48 224.86L114.76 224.86C121.5 224.86 126.63 219.65 126.75 212.91C127.55 189.65 129.95 167 134.03 144.09C135.47 136.65 130.58 130.33 123.1 130.33L70.75 130.33C63.27 130.33 56.36 136.65 56 144.09Z" fill="#9A9A9A" fill-opacity="1.000000" fill-rule="nonzero"/>
	<path id="path158" d="M58.79 212.91C59.66 219.65 65.73 224.86 72.48 224.86L114.76 224.86C121.5 224.86 126.63 219.65 126.75 212.91C127.55 189.65 129.95 167 134.03 144.09C135.47 136.65 130.58 130.33 123.1 130.33L70.75 130.33C63.27 130.33 56.36 136.65 56 144.09C55.28 167.25 56.21 189.89 58.79 212.91Z" stroke="#1A2E35" stroke-opacity="1.000000" stroke-width="1.333333" stroke-linejoin="round"/>
	<path id="path162" d="M86.31 343.61C86.31 344.82 87.42 345.72 88.61 345.47C95.57 343.95 116.42 339.56 124.55 339.56C132.69 339.56 153.54 343.95 160.5 345.47C161.68 345.72 162.8 344.82 162.8 343.61C162.8 341.26 161.16 339.23 158.86 338.74C150.72 336.99 132.13 333.18 124.55 333.18C116.98 333.18 98.39 336.99 90.24 338.74C87.94 339.23 86.31 341.26 86.31 343.61Z" fill="#1A2E35" fill-opacity="1.000000" fill-rule="nonzero"/>
	<path id="path166" d="M88.61 345.47C95.57 343.95 116.42 339.56 124.55 339.56C132.69 339.56 153.54 343.95 160.5 345.47C161.68 345.72 162.8 344.82 162.8 343.61C162.8 341.26 161.16 339.23 158.86 338.74C150.72 336.99 132.13 333.18 124.55 333.18C116.98 333.18 98.39 336.99 90.24 338.74C87.94 339.23 86.31 341.26 86.31 343.61C86.31 344.82 87.42 345.72 88.61 345.47Z" stroke="#1A2E35" stroke-opacity="1.000000" stroke-width="1.333333" stroke-linejoin="round"/>
	<path id="path170" d="M162.8 349.85C164.76 349.85 166.34 348.27 166.34 346.31C166.34 344.35 164.76 342.76 162.8 342.76C160.84 342.76 159.26 344.35 159.26 346.31C159.26 348.27 160.84 349.85 162.8 349.85ZM162.8 339.77C166.41 339.77 169.34 342.7 169.34 346.31C169.34 349.92 166.41 352.85 162.8 352.85C159.19 352.85 156.26 349.92 156.26 346.31C156.26 342.7 159.19 339.77 162.8 339.77Z" fill="#868686" fill-opacity="1.000000" fill-rule="nonzero"/>
	<path id="path174" d="M166.34 346.31C166.34 344.35 164.76 342.76 162.8 342.76C160.84 342.76 159.26 344.35 159.26 346.31C159.26 348.27 160.84 349.85 162.8 349.85C164.76 349.85 166.34 348.27 166.34 346.31ZM169.34 346.31C169.34 349.92 166.41 352.85 162.8 352.85C159.19 352.85 156.26 349.92 156.26 346.31C156.26 342.7 159.19 339.77 162.8 339.77C166.41 339.77 169.34 342.7 169.34 346.31Z" stroke="#1A2E35" stroke-opacity="1.000000" stroke-width="1.333333" stroke-linejoin="round"/>
	<path id="path178" d="M124.55 349.85C126.51 349.85 128.09 348.27 128.09 346.31C128.09 344.35 126.51 342.76 124.55 342.76C122.6 342.76 121.01 344.35 121.01 346.31C121.01 348.27 122.6 349.85 124.55 349.85ZM124.55 339.77C128.16 339.77 131.09 342.7 131.09 346.31C131.09 349.92 128.16 352.85 124.55 352.85C120.94 352.85 118.01 349.92 118.01 346.31C118.01 342.7 120.94 339.77 124.55 339.77Z" fill="#868686" fill-opacity="1.000000" fill-rule="nonzero"/>
	<path id="path182" d="M128.09 346.31C128.09 344.35 126.51 342.76 124.55 342.76C122.6 342.76 121.01 344.35 121.01 346.31C121.01 348.27 122.6 349.85 124.55 349.85C126.51 349.85 128.09 348.27 128.09 346.31ZM131.09 346.31C131.09 349.92 128.16 352.85 124.55 352.85C120.94 352.85 118.01 349.92 118.01 346.31C118.01 342.7 120.94 339.77 124.55 339.77C128.16 339.77 131.09 342.7 131.09 346.31Z" stroke="#1A2E35" stroke-opacity="1.000000" stroke-width="1.333333" stroke-linejoin="round"/>
	<path id="path186" d="M87.1 349.85C89.06 349.85 90.64 348.27 90.64 346.31C90.64 344.35 89.06 342.76 87.1 342.76C85.14 342.76 83.56 344.35 83.56 346.31C83.56 348.27 85.14 349.85 87.1 349.85ZM87.1 339.77C90.71 339.77 93.64 342.7 93.64 346.31C93.64 349.92 90.71 352.85 87.1 352.85C83.49 352.85 80.56 349.92 80.56 346.31C80.56 342.7 83.49 339.77 87.1 339.77Z" fill="#868686" fill-opacity="1.000000" fill-rule="nonzero"/>
	<path id="path190" d="M90.64 346.31C90.64 344.35 89.06 342.76 87.1 342.76C85.14 342.76 83.56 344.35 83.56 346.31C83.56 348.27 85.14 349.85 87.1 349.85C89.06 349.85 90.64 348.27 90.64 346.31ZM93.64 346.31C93.64 349.92 90.71 352.85 87.1 352.85C83.49 352.85 80.56 349.92 80.56 346.31C80.56 342.7 83.49 339.77 87.1 339.77C90.71 339.77 93.64 342.7 93.64 346.31Z" stroke="#1A2E35" stroke-opacity="1.000000" stroke-width="1.333333" stroke-linejoin="round"/>
	<path id="path194" d="M105.16 250.06C130.91 250.86 156.03 249.74 181.6 246.68C186.81 245.98 191.02 249.54 191.02 254.77L191.02 256.02C191.02 261.24 186.81 266.15 181.6 266.85C156.03 269.91 130.91 271.03 105.16 270.23L105.16 250.06Z" fill="#9A9A9A" fill-opacity="1.000000" fill-rule="nonzero"/>
	<path id="path198" d="M181.6 246.68C186.81 245.98 191.02 249.54 191.02 254.77L191.02 256.02C191.02 261.24 186.81 266.15 181.6 266.85C156.03 269.91 130.91 271.03 105.16 270.23L105.16 250.06C130.91 250.86 156.03 249.74 181.6 246.68Z" stroke="#1A2E35" stroke-opacity="1.000000" stroke-width="1.333333" stroke-linejoin="round"/>
	<path id="path202" d="M65.07 266.51C80.92 268.5 96.62 269.82 112.58 270.5C116.47 270.61 119.62 267.5 119.62 263.62L119.62 257.49C119.62 253.61 116.47 250.44 112.58 250.33C96.62 249.65 80.92 248.33 65.07 246.35C61.21 245.8 58.08 248.45 58.08 252.33L58.08 258.45C58.08 262.33 61.21 265.97 65.07 266.51Z" fill="#868686" fill-opacity="1.000000" fill-rule="nonzero"/>
	<path id="path206" d="M112.58 270.5C116.47 270.61 119.62 267.5 119.62 263.62L119.62 257.49C119.62 253.61 116.47 250.44 112.58 250.33C96.62 249.65 80.92 248.33 65.07 246.35C61.21 245.8 58.08 248.45 58.08 252.33L58.08 258.45C58.08 262.33 61.21 265.97 65.07 266.51C80.92 268.5 96.62 269.82 112.58 270.5Z" stroke="#1A2E35" stroke-opacity="1.000000" stroke-width="1.333333" stroke-linejoin="round"/>
	<path id="path210" d="M171.16 349.45C171.21 345.89 171.94 338.76 176.13 329.56L181.6 309.84L198.66 317.13L193.86 332.23C193.86 332.23 208.53 339.23 213.94 341.12C217.55 342.37 228.34 344.85 227.8 349.47C227.8 350.84 226.69 351.95 225.32 351.95L173.65 351.95C172.27 351.95 171.14 350.83 171.16 349.45Z" fill="#FFFFFF" fill-opacity="1.000000" fill-rule="nonzero"/>
	<path id="path214" d="M176.13 329.56L181.6 309.84L198.66 317.13L193.86 332.23C193.86 332.23 208.53 339.23 213.94 341.12C217.55 342.37 228.34 344.85 227.8 349.47C227.8 350.84 226.69 351.95 225.32 351.95L173.65 351.95C172.27 351.95 171.14 350.83 171.16 349.45C171.21 345.89 171.94 338.76 176.13 329.56Z" stroke="#1A2E35" stroke-opacity="1.000000" stroke-width="1.333333" stroke-linejoin="round"/>
	<path id="path218" d="M180.55 337.92C183.21 339.87 197.43 342.36 193.86 339.52C190.3 336.67 193.86 332.23 193.86 332.23C193.86 332.23 208.53 339.23 213.94 341.11C217.55 342.37 228.34 344.85 227.8 349.47C227.8 350.84 226.69 351.95 225.31 351.95L173.65 351.95C172.27 351.95 171.14 350.83 171.16 349.45C171.2 346.44 171.73 340.88 174.42 333.69C177.36 333.72 177.88 335.96 180.55 337.92Z" fill="#38BFF2" fill-opacity="1.000000" fill-rule="nonzero"/>
	<path id="path222" d="M193.86 339.52C190.3 336.67 193.86 332.23 193.86 332.23C193.86 332.23 208.53 339.23 213.94 341.11C217.55 342.37 228.34 344.85 227.8 349.47C227.8 350.84 226.69 351.95 225.31 351.95L173.65 351.95C172.27 351.95 171.14 350.83 171.16 349.45C171.2 346.44 171.73 340.88 174.42 333.69C177.36 333.72 177.88 335.96 180.55 337.92C183.21 339.87 197.43 342.36 193.86 339.52Z" stroke="#1A2E35" stroke-opacity="1.000000" stroke-width="1.333333" stroke-linejoin="round"/>
	<path id="path226" d="M158.82 351.95L120.97 351.95C120.19 351.95 119.52 351.4 119.37 350.63C118.79 347.62 118.92 340.9 122.34 331.96L122.67 313.83L142.06 317.12L139.6 332.59C139.6 332.59 147.41 341.18 151.12 342.71C153.72 343.8 159.64 343.91 160.44 350.14C160.56 351.1 159.79 351.95 158.82 351.95Z" fill="#FFFFFF" fill-opacity="1.000000" fill-rule="nonzero"/>
	<path id="path230" d="M120.97 351.95C120.19 351.95 119.52 351.4 119.37 350.63C118.79 347.62 118.92 340.9 122.34 331.96L122.67 313.83L142.06 317.12L139.6 332.59C139.6 332.59 147.41 341.18 151.12 342.71C153.72 343.8 159.64 343.91 160.44 350.14C160.56 351.1 159.79 351.95 158.82 351.95L120.97 351.95Z" stroke="#1A2E35" stroke-opacity="1.000000" stroke-width="1.333333" stroke-linejoin="round"/>
	<path id="path234" d="M128.73 337.98C132.73 340.78 135.68 341.12 133.81 336.92C131.95 332.72 139.6 332.59 139.6 332.59C139.6 332.59 147.41 341.17 151.12 342.71C153.72 343.79 159.64 343.91 160.44 350.14C160.56 351.1 159.79 351.95 158.82 351.95L120.97 351.95C120.19 351.95 119.52 351.4 119.37 350.63C118.79 347.62 118.92 340.9 122.34 331.96C125.26 332.67 124.72 335.19 128.73 337.98Z" fill="#38BFF2" fill-opacity="1.000000" fill-rule="nonzero"/>
	<path id="path238" d="M133.81 336.92C131.95 332.72 139.6 332.59 139.6 332.59C139.6 332.59 147.41 341.17 151.12 342.71C153.72 343.79 159.64 343.91 160.44 350.14C160.56 351.1 159.79 351.95 158.82 351.95L120.97 351.95C120.19 351.95 119.52 351.4 119.37 350.63C118.79 347.62 118.92 340.9 122.34 331.96C125.26 332.67 124.72 335.19 128.73 337.98C132.73 340.78 135.68 341.12 133.81 336.92Z" stroke="#1A2E35" stroke-opacity="1.000000" stroke-width="1.333333" stroke-linejoin="round"/>
	<path id="path242" d="M162.59 213.52C162.59 213.52 166.4 217.43 182 219.92C197.59 222.41 229.94 230.23 229.58 243.02C229.23 255.82 199.37 324.06 199.37 324.06C199.37 324.06 184.44 321.21 177.51 316.95C177.51 316.95 189.53 268.26 198.54 255.46C198.54 255.46 158.09 250.49 135.73 241.25C113.36 232 126.51 210.97 126.51 210.97L162.59 213.52Z" fill="#1A2E35" fill-opacity="1.000000" fill-rule="nonzero"/>
	<path id="path246" d="M182 219.92C197.59 222.41 229.94 230.23 229.58 243.02C229.23 255.82 199.37 324.06 199.37 324.06C199.37 324.06 184.44 321.21 177.51 316.95C177.51 316.95 189.53 268.26 198.54 255.46C198.54 255.46 158.09 250.49 135.73 241.25C113.36 232 126.51 210.97 126.51 210.97L162.59 213.52C162.59 213.52 166.4 217.43 182 219.92Z" stroke="#1A2E35" stroke-opacity="1.000000" stroke-width="1.333333" stroke-linejoin="round"/>
	<path id="path250" d="M137.18 211.73C137.18 211.73 131.44 221.34 135.73 226.67C140.02 232 164.35 241.96 161.6 254.04C158.85 266.12 149.77 283.18 143.85 323.7C143.85 323.7 130.07 321.57 120.83 317.66C120.83 317.66 119.29 276.43 130.01 258.66C130.01 258.66 99.32 252.97 96.21 242.67C93.1 232.36 98.92 216.6 99.03 210.97L137.18 211.73Z" fill="#1A2E35" fill-opacity="1.000000" fill-rule="nonzero"/>
	<path id="path254" d="M135.73 226.67C140.02 232 164.35 241.96 161.6 254.04C158.85 266.12 149.77 283.18 143.85 323.7C143.85 323.7 130.07 321.57 120.83 317.66C120.83 317.66 119.29 276.43 130.01 258.66C130.01 258.66 99.32 252.97 96.21 242.67C93.1 232.36 98.92 216.6 99.03 210.97L137.18 211.73C137.18 211.73 131.44 221.34 135.73 226.67Z" stroke="#1A2E35" stroke-opacity="1.000000" stroke-width="1.333333" stroke-linejoin="round"/>
	<path id="path258" d="M155.66 226.99C156.34 226.95 157.05 226.96 157.79 227.03" stroke="#808080" stroke-opacity="1.000000" stroke-width="1.000000" stroke-linejoin="round" stroke-linecap="round"/>
	<path id="path262" d="M154.31 220.63C154.31 220.63 148.01 222.49 145.54 230.7C145.34 231.35 146.16 231.85 146.63 231.36C147.95 230.04 149.99 228.41 152.7 227.55" stroke="#808080" stroke-opacity="1.000000" stroke-width="1.000000" stroke-linejoin="round" stroke-linecap="round"/>
	<path id="path266" d="M201.5 255.02C201.5 251.55 216.43 249.69 212.43 246.49C208.43 243.29 199.37 253.68 199.37 253.68" stroke="#808080" stroke-opacity="1.000000" stroke-width="1.000000" stroke-linejoin="round" stroke-linecap="round"/>
	<path id="path270" d="M128.16 268.88C128.16 264.91 142.42 262.75 141.71 258.48C141 254.22 131.93 262.61 131.93 262.61" stroke="#808080" stroke-opacity="1.000000" stroke-width="1.000000" stroke-linejoin="round" stroke-linecap="round"/>
	<path id="path274" d="M200.94 324.3L199.37 327.92C199.19 328.33 198.75 328.56 198.32 328.46C194.87 327.69 180.49 324.29 175.45 320.67C175.15 320.46 175.02 320.07 175.11 319.71L176.09 315.67C176.23 315.07 176.9 314.78 177.44 315.07C179.71 316.31 186.04 319.26 200.31 323.02C200.87 323.17 201.17 323.77 200.94 324.3Z" fill="#9A9A9A" fill-opacity="1.000000" fill-rule="nonzero"/>
	<path id="path278" d="M199.37 327.92C199.19 328.33 198.75 328.56 198.32 328.46C194.87 327.69 180.49 324.29 175.45 320.67C175.15 320.46 175.02 320.07 175.11 319.71L176.09 315.67C176.23 315.07 176.9 314.78 177.44 315.07C179.71 316.31 186.04 319.26 200.31 323.02C200.87 323.17 201.17 323.77 200.94 324.3L199.37 327.92Z" stroke="#1A2E35" stroke-opacity="1.000000" stroke-width="1.333333" stroke-linejoin="round"/>
	<path id="path282" d="M145.58 321.31C145.66 320.77 145.13 320.32 144.62 320.51C143.6 320.89 141.86 321.18 139.26 320.59C135.31 319.69 123.99 316.1 120.63 315.03C120.15 314.88 119.67 315.24 119.67 315.74L119.67 320.45C119.67 320.74 119.84 321 120.1 321.12C122.75 322.3 136.92 328.37 144.33 326.72C144.63 326.65 144.84 326.4 144.89 326.1L145.58 321.31Z" fill="#9A9A9A" fill-opacity="1.000000" fill-rule="nonzero"/>
	<path id="path286" d="M144.62 320.51C143.6 320.89 141.86 321.18 139.26 320.59C135.31 319.69 123.99 316.1 120.63 315.03C120.15 314.88 119.67 315.24 119.67 315.74L119.67 320.45C119.67 320.74 119.84 321 120.1 321.12C122.75 322.3 136.92 328.37 144.33 326.72C144.63 326.65 144.84 326.4 144.89 326.1L145.58 321.31C145.66 320.77 145.13 320.32 144.62 320.51Z" stroke="#1A2E35" stroke-opacity="1.000000" stroke-width="1.333333" stroke-linejoin="round"/>
	<path id="path290" d="M134.18 222.62C134.31 224.08 134.77 225.49 135.73 226.67C138.86 230.56 152.65 236.91 158.82 244.75" stroke="#808080" stroke-opacity="1.000000" stroke-width="1.333333" stroke-linejoin="round" stroke-linecap="round"/>
	<path id="path294" d="M134.84 217.2C134.62 217.97 134.43 218.78 134.3 219.6" stroke="#808080" stroke-opacity="1.000000" stroke-width="1.333333" stroke-linejoin="round" stroke-linecap="round"/>
	<path id="path298" d="M216.5 343.51C216.5 343.51 215.43 345.2 214.63 348.58L176.13 348.58C176.13 348.58 176.03 346 173.98 344.18" stroke="#1A2E35" stroke-opacity="1.000000" stroke-width="1.333333" stroke-linejoin="round" stroke-linecap="round"/>
	<path id="path302" d="M149.6 343.51C149.6 343.51 144.26 343.91 142.27 348.58L122.14 348.58C122.14 348.58 121.07 346.18 121.07 344.18" stroke="#1A2E35" stroke-opacity="1.000000" stroke-width="1.333333" stroke-linejoin="round" stroke-linecap="round"/>
	<path id="path306" d="M181.15 153.22C180.66 155.1 180.15 156.97 179.64 158.79C174.31 177.98 167.38 214.5 167.38 214.5C133.27 221.7 97.28 214.5 97.28 214.5C97.08 206.54 98.05 196.04 99.13 185.01C93.54 183.46 89.5 178.3 89.28 169.72C89.02 159.32 90.9 140.61 91.95 131.87C92.87 124.18 92.22 119.61 104.13 113.78C110.09 110.33 120.01 108.71 132.2 107.08C156.19 103.88 173.5 108.73 179.64 111.34C184.52 110.06 185.87 115.78 185.87 115.78C188.57 113.74 191.7 122.38 191.7 122.38C199.59 132.45 205.8 149.4 207.86 155.45C208.32 156.77 209.16 157.92 210.27 158.76C215.87 163.03 212.76 168.31 212.76 168.31L201.3 171.82C201.3 171.82 195.75 173.27 191.5 165.96C187.95 159.86 182.15 149.5 181.15 153.22Z" fill="#38BFF2" fill-opacity="1.000000" fill-rule="nonzero"/>
	<g opacity="0.300003">
		<g opacity="0.300003">
			<g opacity="0.300003">
				<path id="path324" d="M199.19 167C199.19 167 199.45 161.67 203.72 160.74C207.98 159.81 202.52 158.21 199.19 159.01C195.85 159.81 196.62 156.87 193.77 152.08C190.92 147.28 189.52 143.49 187.09 146.25C184.66 149.02 182.18 149.4 181.15 153.22C180.13 157.04 185.19 165.96 185.19 165.96L193.15 172.13L197.19 174.4L203.22 174.4L205.28 169.19L199.19 167Z" fill="#000000" fill-opacity="1.000000" fill-rule="nonzero"/>
			</g>
		</g>
	</g>
	<path id="path342" d="M179.65 158.79C174.31 177.98 167.39 214.5 167.39 214.5C133.27 221.7 97.28 214.5 97.28 214.5C97.08 206.54 98.05 196.04 99.13 185.01C93.54 183.46 89.5 178.3 89.28 169.72C89.02 159.32 90.9 140.61 91.95 131.87C92.87 124.18 92.22 119.61 104.13 113.78C110.1 110.33 120.01 108.71 132.2 107.08C156.19 103.88 173.5 108.73 179.65 111.34C184.52 110.06 185.87 115.78 185.87 115.78C188.57 113.74 191.7 122.38 191.7 122.38C199.59 132.45 205.8 149.4 207.86 155.45C208.32 156.77 209.16 157.92 210.27 158.76C215.87 163.03 212.76 168.31 212.76 168.31L201.3 171.82C201.3 171.82 195.75 173.27 191.5 165.96C187.95 159.86 182.15 149.5 181.16 153.22C180.66 155.1 180.15 156.97 179.65 158.79Z" stroke="#1A2E35" stroke-opacity="1.000000" stroke-width="1.333333" stroke-linejoin="round"/>
	<g opacity="0.300003">
		<g opacity="0.300003">
			<g opacity="0.300003">
				<path id="path352" d="M97.28 214.5C97.14 208.74 97.61 201.64 98.29 193.99C97.13 210.22 130.94 215.3 132 206.5C133.07 197.7 99.13 185.01 117.6 189.45C133.71 193.32 164.93 189.62 172.62 188.61C169.67 202.48 167.39 214.5 167.39 214.5C133.27 221.7 97.28 214.5 97.28 214.5Z" fill="#000000" fill-opacity="1.000000" fill-rule="nonzero"/>
			</g>
		</g>
	</g>
	<g opacity="0.300003">
		<g opacity="0.300003">
			<g opacity="0.300003">
				<path id="path368" d="M112.78 132.94C112.78 132.94 117.61 147.06 117.6 154.53C117.59 161.98 131.13 166.99 131.16 167C123.9 165.52 116.84 163.57 113.47 162.6C112.27 162.25 111.49 161.12 111.6 159.88C112.26 152.22 112.98 141.92 112.78 132.94L112.78 132.94Z" fill="#000000" fill-opacity="1.000000" fill-rule="nonzero"/>
			</g>
		</g>
	</g>
	<path id="path378" d="M185.62 129.38C185.62 129.38 185.79 139.54 182.07 148.88C181.72 149.75 182.71 150.54 183.46 149.99C185.29 148.68 187.88 146.02 190.22 140.64" stroke="#1A2E35" stroke-opacity="1.000000" stroke-width="1.000000" stroke-linejoin="round" stroke-linecap="round"/>
	<path id="path382" d="M95.15 172.92C97.96 163.59 102.83 161.25 106.6 161.02C107.21 160.98 107.41 160.19 106.88 159.9C104.69 158.71 100.41 157.78 95.15 163.59" stroke="#1A2E35" stroke-opacity="1.000000" stroke-width="1.000000" stroke-linejoin="round" stroke-linecap="round"/>
	<path id="path386" d="M149.23 146.21C149.23 147.1 149.95 147.82 150.84 147.82C151.72 147.82 152.44 147.1 152.44 146.21C152.44 145.33 151.72 144.61 150.84 144.61C149.95 144.61 149.23 145.33 149.23 146.21Z" fill="#9A9A9A" fill-opacity="1.000000" fill-rule="nonzero"/>
	<path id="path390" d="M150.84 147.82C151.72 147.82 152.44 147.1 152.44 146.21C152.44 145.33 151.72 144.61 150.84 144.61C149.95 144.61 149.23 145.33 149.23 146.21C149.23 147.1 149.95 147.82 150.84 147.82Z" stroke="#1A2E35" stroke-opacity="1.000000" stroke-width="1.000000" stroke-linejoin="round"/>
	<path id="path394" d="M147.06 164.36C147.06 165.25 147.78 165.96 148.67 165.96C149.55 165.96 150.27 165.25 150.27 164.36C150.27 163.48 149.55 162.76 148.67 162.76C147.78 162.76 147.06 163.48 147.06 164.36Z" fill="#9A9A9A" fill-opacity="1.000000" fill-rule="nonzero"/>
	<path id="path398" d="M148.67 165.96C149.55 165.96 150.27 165.25 150.27 164.36C150.27 163.48 149.55 162.76 148.67 162.76C147.78 162.76 147.06 163.48 147.06 164.36C147.06 165.25 147.78 165.96 148.67 165.96Z" stroke="#1A2E35" stroke-opacity="1.000000" stroke-width="1.000000" stroke-linejoin="round"/>
	<path id="path402" d="M141.71 208.1C141.71 208.99 142.43 209.7 143.31 209.7C144.19 209.7 144.91 208.99 144.91 208.1C144.91 207.22 144.19 206.5 143.31 206.5C142.43 206.5 141.71 207.22 141.71 208.1Z" fill="#9A9A9A" fill-opacity="1.000000" fill-rule="nonzero"/>
	<path id="path406" d="M143.31 209.7C144.19 209.7 144.91 208.99 144.91 208.1C144.91 207.22 144.19 206.5 143.31 206.5C142.43 206.5 141.71 207.22 141.71 208.1C141.71 208.99 142.43 209.7 143.31 209.7Z" stroke="#1A2E35" stroke-opacity="1.000000" stroke-width="1.333333" stroke-linejoin="round"/>
	<path id="path410" d="M172.32 176.25C172.32 176.25 177.56 181.25 175.07 181.32C172.58 181.4 169.43 177.98 166.54 177.58C163.65 177.18 168.32 175.42 168.32 175.42L172.32 176.25Z" fill="#FFFFFF" fill-opacity="1.000000" fill-rule="nonzero"/>
	<path id="path414" d="M175.07 181.32C172.58 181.4 169.43 177.98 166.54 177.58C163.65 177.18 168.32 175.42 168.32 175.42L172.32 176.25C172.32 176.25 177.56 181.25 175.07 181.32Z" stroke="#1A2E35" stroke-opacity="1.000000" stroke-width="1.333333" stroke-linejoin="round"/>
	<path id="path418" d="M141.75 170.64C142.22 170.21 142.86 170.01 143.49 170.06C146.06 170.27 153.41 170.82 156.19 170.65C161.11 170.35 175.62 167.28 175.62 167.28C175.95 167.22 176.3 167.24 176.63 167.33L185.61 169.97C185.94 170.07 186.24 170.24 186.49 170.47L191.93 175.47C192.11 175.63 192.26 175.83 192.37 176.04L193.5 178.11C193.98 178.98 193.82 180.06 193.11 180.76L184.11 181.04C183.55 181.06 183.01 180.87 182.59 180.51L179.92 178.22C179.75 178.07 179.6 177.89 179.47 177.69C178.82 176.64 176.31 173.11 172.32 173.45C172.32 173.45 180.85 177.98 179.25 179.85C177.65 181.71 171.12 176.38 168.98 176.92C166.9 177.44 166.71 182.68 155.1 180.78C154.59 180.7 154.05 180.72 153.55 180.86L143 183.81C141.67 184.18 140.32 183.39 139.98 182.06C139.19 178.97 138.47 173.64 141.75 170.64Z" fill="#FFFFFF" fill-opacity="1.000000" fill-rule="nonzero"/>
	<path id="path422" d="M143.49 170.06C146.06 170.27 153.41 170.82 156.19 170.65C161.11 170.35 175.62 167.28 175.62 167.28C175.95 167.22 176.3 167.24 176.63 167.33L185.61 169.97C185.94 170.07 186.24 170.24 186.49 170.47L191.93 175.47C192.11 175.63 192.26 175.83 192.37 176.04L193.5 178.11C193.98 178.98 193.82 180.06 193.11 180.76L184.11 181.04C183.55 181.06 183.01 180.87 182.59 180.51L179.92 178.22C179.75 178.07 179.6 177.89 179.47 177.69C178.82 176.64 176.31 173.11 172.32 173.45C172.32 173.45 180.85 177.98 179.25 179.85C177.65 181.71 171.12 176.38 168.98 176.92C166.9 177.44 166.71 182.68 155.1 180.78C154.59 180.7 154.05 180.72 153.55 180.86L143 183.81C141.67 184.18 140.32 183.39 139.98 182.06C139.19 178.97 138.47 173.64 141.75 170.64C142.22 170.21 142.86 170.01 143.49 170.06Z" stroke="#1A2E35" stroke-opacity="1.000000" stroke-width="1.333333" stroke-linejoin="round"/>
	<path id="path426" d="M174.36 169.19L176.63 169.57C177.73 169.75 178.76 170.24 179.6 170.98L181.95 173.04C182.37 173.4 182.73 173.82 183.03 174.28L184.58 176.64C184.75 176.9 184.94 177.14 185.15 177.37C186.06 178.39 188.59 181.39 185.86 180.99M174.27 169.83L174.25 169.84C173.88 169.78 173.64 169.44 173.7 169.08C173.77 168.71 174.1 168.47 174.47 168.53L174.49 168.55L174.27 169.83ZM185.79 181.63L185.76 181.65C185.39 181.59 185.15 181.26 185.2 180.89C185.26 180.52 185.59 180.27 185.96 180.33L185.97 180.35L185.79 181.63Z" fill="#FFFFFF" fill-opacity="1.000000" fill-rule="nonzero"/>
	<path id="path426" d="M174.36 169.19L176.63 169.57C177.73 169.75 178.76 170.24 179.6 170.98L181.95 173.04C182.37 173.4 182.73 173.82 183.03 174.28L184.58 176.64C184.75 176.9 184.94 177.14 185.15 177.37C186.06 178.39 188.59 181.39 185.86 180.99" stroke="#1A2E35" stroke-opacity="1.000000" stroke-width="1.333333" stroke-linejoin="round" stroke-linecap="round"/>
	<path id="path430" d="M180.73 169.99L183.07 170.62C183.8 170.82 184.46 171.19 185.01 171.72L186.83 173.47C187 173.63 187.16 173.81 187.31 174.01L190.3 177.98C190.3 177.98 191.91 180.8 190.3 180.85M180.58 170.62L180.55 170.63C180.19 170.53 179.99 170.17 180.08 169.81C180.18 169.45 180.54 169.25 180.9 169.34L180.91 169.37L180.58 170.62ZM190.34 181.49L190.32 181.52C189.95 181.53 189.65 181.24 189.64 180.87C189.62 180.5 189.91 180.19 190.28 180.18L190.3 180.2L190.34 181.49Z" fill="#FFFFFF" fill-opacity="1.000000" fill-rule="nonzero"/>
	<path id="path430" d="M180.73 169.99L183.07 170.62C183.8 170.82 184.46 171.19 185.01 171.72L186.83 173.47C187 173.63 187.16 173.81 187.31 174.01L190.3 177.98C190.3 177.98 191.91 180.8 190.3 180.85" stroke="#1A2E35" stroke-opacity="1.000000" stroke-width="1.333333" stroke-linejoin="round" stroke-linecap="round"/>
	<path id="path434" d="M112.71 130.67C113.11 140.14 112.32 151.57 111.6 159.88C111.49 161.12 112.27 162.25 113.47 162.6C118.12 163.94 129.8 167.15 139.31 168.4" stroke="#1A2E35" stroke-opacity="1.000000" stroke-width="1.333333" stroke-linejoin="round" stroke-linecap="round"/>
	<path id="path438" d="M112.18 124.06C112.32 125.15 112.44 126.29 112.53 127.47" stroke="#1A2E35" stroke-opacity="1.000000" stroke-width="1.000000" stroke-linejoin="round" stroke-linecap="round"/>
	<path id="path442" d="M108.6 114.08C109.83 115.13 110.73 117.08 111.37 119.64" stroke="#1A2E35" stroke-opacity="1.000000" stroke-width="1.000000" stroke-linejoin="round" stroke-linecap="round"/>
	<path id="path446" d="M161.99 107.75C161.99 107.75 161.32 105.61 157.73 104.41C154.13 103.21 141.67 101.29 135.27 104.41C128.86 107.53 141.13 124.47 141.13 124.47L146.86 132.33L151.93 136.13L154.19 129.38L157.13 126.34C157.13 126.34 163.46 121.14 162.92 116.01C162.39 110.88 161.99 107.75 161.99 107.75Z" fill="#FFFFFF" fill-opacity="1.000000" fill-rule="nonzero"/>
	<path id="path450" d="M135.82 107.04C144.28 133.61 151.75 134.8 151.75 134.8C154.23 125.03 156.37 127.16 159.74 121.05C162.45 116.15 161.53 109.94 161.07 107.68C160.95 107.13 160.61 106.65 160.1 106.4C151.71 102.12 141.43 103.69 137.19 104.63C136.11 104.87 135.48 105.99 135.82 107.04ZM130.53 107.3C131.53 103.8 136.11 102.81 136.11 102.81C157.97 99.08 162.59 107.03 162.59 107.03C167.03 119.41 162.59 129.38 162.59 129.38C162.59 129.38 156.37 126.8 155.3 129.38C154.23 131.95 152.28 137.47 152.28 137.47C152.28 137.47 148.01 135.33 144.64 130.89C141.26 126.45 133.32 130.89 133.32 130.89C128.22 122.01 130.53 107.3 130.53 107.3Z" fill="#38BFF2" fill-opacity="1.000000" fill-rule="nonzero"/>
	<g opacity="0.399994">
		<g opacity="0.399994">
			<g opacity="0.399994">
				<path id="path468" d="M135.82 107.04C144.28 133.61 151.75 134.8 151.75 134.8C154.23 125.03 156.37 127.16 159.74 121.05C162.45 116.15 161.53 109.94 161.07 107.68C160.95 107.13 160.61 106.65 160.1 106.4C151.71 102.12 141.43 103.69 137.19 104.63C136.11 104.87 135.48 105.99 135.82 107.04ZM130.53 107.3C131.53 103.8 136.11 102.81 136.11 102.81C157.97 99.08 162.59 107.03 162.59 107.03C167.03 119.41 162.59 129.38 162.59 129.38C162.59 129.38 156.37 126.8 155.3 129.38C154.23 131.95 152.28 137.47 152.28 137.47C152.28 137.47 148.01 135.33 144.64 130.89C141.26 126.45 133.32 130.89 133.32 130.89C128.22 122.01 130.53 107.3 130.53 107.3Z" fill="#FFFFFF" fill-opacity="1.000000" fill-rule="nonzero"/>
			</g>
		</g>
	</g>
	<path id="path486" d="M151.75 134.8C154.23 125.03 156.37 127.16 159.74 121.05C162.45 116.15 161.53 109.94 161.07 107.68C160.95 107.13 160.61 106.65 160.1 106.4C151.71 102.12 141.43 103.69 137.19 104.63C136.11 104.87 135.48 105.99 135.82 107.04C144.28 133.61 151.75 134.8 151.75 134.8ZM136.11 102.81C157.97 99.08 162.59 107.03 162.59 107.03C167.03 119.41 162.59 129.38 162.59 129.38C162.59 129.38 156.37 126.8 155.3 129.38C154.23 131.95 152.28 137.47 152.28 137.47C152.28 137.47 148.01 135.33 144.64 130.89C141.26 126.45 133.32 130.89 133.32 130.89C128.22 122.01 130.53 107.3 130.53 107.3C131.53 103.8 136.11 102.81 136.11 102.81Z" stroke="#1A2E35" stroke-opacity="1.000000" stroke-width="1.333333" stroke-linejoin="round"/>
	<path id="path490" d="M166.22 66.7C166.22 66.7 185.05 70.47 174.68 82.72C163.17 96.31 166.22 66.7 166.22 66.7Z" fill="#1A2E35" fill-opacity="1.000000" fill-rule="nonzero"/>
	<path id="path494" d="M174.68 82.72C163.17 96.31 166.22 66.7 166.22 66.7C166.22 66.7 185.05 70.47 174.68 82.72Z" stroke="#1A2E35" stroke-opacity="1.000000" stroke-width="1.333333" stroke-linejoin="round"/>
	<path id="path498" d="M173.65 96.59C173.65 96.59 178.12 78.47 169.59 69.76C161.06 61.05 151.82 59.28 144.89 63.54C137.96 67.81 135.12 78.47 136.19 83.98C137.25 89.49 136.73 109.21 146.23 117.39C155.73 125.56 161.58 123.55 167.86 112.41C171.99 105.09 173.97 102.99 173.65 96.59Z" fill="#FFFFFF" fill-opacity="1.000000" fill-rule="nonzero"/>
	<path id="path502" d="M169.59 69.76C161.06 61.05 151.82 59.28 144.89 63.54C137.96 67.81 135.12 78.47 136.19 83.98C137.25 89.49 136.73 109.21 146.23 117.39C155.73 125.56 161.58 123.55 167.86 112.41C171.99 105.09 173.97 102.99 173.65 96.59C173.65 96.59 178.12 78.47 169.59 69.76Z" stroke="#1A2E35" stroke-opacity="1.000000" stroke-width="1.333333" stroke-linejoin="round"/>
	<path id="path506" d="M140.63 93.04C140.63 93.04 147.79 85.93 149.99 77.58C152.18 69.23 153.42 67.81 161.6 71.89C169.77 75.98 182.53 70.48 179.19 60.17C175.68 49.33 164.97 63.36 154.67 59.81C144.36 56.26 137.05 62.65 137.03 72.07C137.03 72.07 130.81 78.11 137.05 93.75L140.63 93.04Z" fill="#1A2E35" fill-opacity="1.000000" fill-rule="nonzero"/>
	<path id="path510" d="M149.99 77.58C152.18 69.23 153.42 67.81 161.6 71.89C169.77 75.98 182.53 70.48 179.19 60.17C175.68 49.33 164.97 63.36 154.67 59.81C144.36 56.26 137.05 62.65 137.03 72.07C137.03 72.07 130.81 78.11 137.05 93.75L140.63 93.04C140.63 93.04 147.79 85.93 149.99 77.58Z" stroke="#1A2E35" stroke-opacity="1.000000" stroke-width="1.333333" stroke-linejoin="round"/>
	<path id="path514" d="M142.88 91.85C142.88 91.85 141.07 81.91 136.03 82.83C130.99 83.76 134.59 98.42 140.52 96.82M143.51 91.71L143.53 91.73C143.6 92.1 143.37 92.44 143 92.5C142.63 92.57 142.29 92.34 142.22 91.97L142.24 91.94L143.51 91.71ZM140.33 96.2L140.35 96.17C140.71 96.08 141.07 96.28 141.16 96.64C141.26 97 141.05 97.36 140.69 97.46L140.67 97.45L140.33 96.2Z" fill="#FFFFFF" fill-opacity="1.000000" fill-rule="nonzero"/>
	<path id="path514" d="M142.88 91.85C142.88 91.85 141.07 81.91 136.03 82.83C130.99 83.76 134.59 98.42 140.52 96.82" stroke="#1A2E35" stroke-opacity="1.000000" stroke-width="1.333333" stroke-linejoin="round" stroke-linecap="round"/>
	<path id="path518" d="M166.84 95.22C166.84 95.22 168.81 104.44 168.17 106.02C167.53 107.61 161.42 106.4 161.42 106.4M166.21 95.37L166.19 95.36C166.11 94.99 166.34 94.64 166.7 94.57C167.07 94.49 167.41 94.71 167.49 95.08L167.48 95.1L166.21 95.37ZM161.32 107.03L161.29 107.05C160.93 106.98 160.7 106.63 160.77 106.27C160.84 105.9 161.19 105.67 161.55 105.74L161.57 105.77L161.32 107.03Z" fill="#FFFFFF" fill-opacity="1.000000" fill-rule="nonzero"/>
	<path id="path518" d="M166.84 95.22C166.84 95.22 168.81 104.44 168.17 106.02C167.53 107.61 161.42 106.4 161.42 106.4" stroke="#1A2E35" stroke-opacity="1.000000" stroke-width="1.333333" stroke-linejoin="round" stroke-linecap="round"/>
	<path id="path522" d="M160.58 110.41C160.58 110.41 155.8 112.3 151.59 106.02M160.32 109.82L160.33 109.79C160.68 109.65 161.06 109.82 161.2 110.17C161.33 110.51 161.17 110.89 160.82 111.03L160.79 111.02L160.32 109.82ZM151.06 106.4L151.03 106.39C150.83 106.08 150.91 105.68 151.22 105.47C151.53 105.26 151.93 105.34 152.14 105.65L152.14 105.68L151.06 106.4Z" fill="#FFFFFF" fill-opacity="1.000000" fill-rule="nonzero"/>
	<path id="path522" d="M160.58 110.41C160.58 110.41 155.8 112.3 151.59 106.02" stroke="#1A2E35" stroke-opacity="1.000000" stroke-width="1.333333" stroke-linejoin="round" stroke-linecap="round"/>
	<path id="path526" d="M170.11 95.99C169.93 96.85 170.16 97.62 170.61 97.71C171.07 97.81 171.58 97.19 171.76 96.33C171.94 95.47 171.71 94.7 171.26 94.6C170.8 94.51 170.29 95.13 170.11 95.99Z" fill="#1A2E35" fill-opacity="1.000000" fill-rule="nonzero"/>
	<path id="path530" d="M158.42 95.05C158.24 95.91 158.46 96.68 158.92 96.77C159.37 96.87 159.89 96.25 160.07 95.39C160.24 94.53 160.02 93.76 159.57 93.66C159.11 93.57 158.6 94.19 158.42 95.05Z" fill="#1A2E35" fill-opacity="1.000000" fill-rule="nonzero"/>
	<path id="path534" d="M173.08 100.55C176.31 100.87 179.13 99.17 179.37 96.76C179.61 94.34 177.07 93.28 173.83 92.95C170.6 92.63 167.89 93.17 167.65 95.59C167.41 98 169.84 100.22 173.08 100.55Z" stroke="#1A2E35" stroke-opacity="1.000000" stroke-width="1.333333" stroke-linejoin="round"/>
	<path id="path538" d="M157.99 99.04C161.22 99.36 164.04 97.66 164.28 95.25C164.53 92.83 161.98 91.77 158.75 91.45C155.51 91.12 152.81 91.66 152.56 94.08C152.32 96.49 154.75 98.71 157.99 99.04Z" stroke="#1A2E35" stroke-opacity="1.000000" stroke-width="1.333333" stroke-linejoin="round"/>
	<path id="path542" d="M167.65 95.59L164.28 95.25M167.7 94.94L167.72 94.92C168.09 94.96 168.35 95.28 168.32 95.65C168.28 96.02 167.96 96.29 167.59 96.25L167.57 96.23L167.7 94.94ZM164.24 95.9L164.22 95.91C163.85 95.88 163.58 95.55 163.62 95.18C163.66 94.81 163.98 94.55 164.35 94.59L164.37 94.61L164.24 95.9Z" fill="#FFFFFF" fill-opacity="1.000000" fill-rule="nonzero"/>
	<path id="path542" d="M167.65 95.59L164.28 95.25" stroke="#1A2E35" stroke-opacity="1.000000" stroke-width="1.333333" stroke-linejoin="round" stroke-linecap="round"/>
	<path id="path546" d="M152.98 92.87L140.58 85.56M153.29 92.3L153.32 92.29C153.64 92.48 153.74 92.89 153.55 93.21C153.36 93.53 152.96 93.63 152.64 93.44L152.63 93.42L153.29 92.3ZM140.27 86.13L140.25 86.13C139.92 85.94 139.82 85.54 140.01 85.22C140.2 84.9 140.6 84.8 140.92 84.99L140.93 85.01L140.27 86.13Z" fill="#FFFFFF" fill-opacity="1.000000" fill-rule="nonzero"/>
	<path id="path546" d="M152.98 92.87L140.58 85.56" stroke="#1A2E35" stroke-opacity="1.000000" stroke-width="1.333333" stroke-linejoin="round" stroke-linecap="round"/>
	<path id="path550" d="M138.46 104.24L137.87 105.66M137.85 104.01L137.84 103.98C137.98 103.64 138.37 103.48 138.71 103.62C139.06 103.76 139.22 104.15 139.08 104.49L139.05 104.5L137.85 104.01ZM138.48 105.89L138.49 105.91C138.35 106.26 137.97 106.42 137.62 106.27C137.28 106.13 137.12 105.75 137.26 105.4L137.28 105.39L138.48 105.89Z" fill="#FFFFFF" fill-opacity="1.000000" fill-rule="nonzero"/>
	<path id="path550" d="M138.46 104.24L137.87 105.66" stroke="#1A2E35" stroke-opacity="1.000000" stroke-width="1.333333" stroke-linejoin="round" stroke-linecap="round"/>
	<path id="path554" d="M174.64 91.69C174.64 91.69 172.75 89.29 170.44 90.44M175.14 91.27L175.17 91.28C175.4 91.57 175.35 91.98 175.05 92.21C174.76 92.44 174.35 92.39 174.12 92.1L174.12 92.07L175.14 91.27ZM170.74 91.01L170.74 91.04C170.4 91.21 170.01 91.08 169.84 90.74C169.67 90.41 169.81 90.01 170.14 89.85L170.17 89.86L170.74 91.01Z" fill="#FFFFFF" fill-opacity="1.000000" fill-rule="nonzero"/>
	<path id="path554" d="M174.64 91.69C174.64 91.69 172.75 89.29 170.44 90.44" stroke="#1A2E35" stroke-opacity="1.000000" stroke-width="1.333333" stroke-linejoin="round" stroke-linecap="round"/>
	<path id="path558" d="M155.32 90.62C155.32 90.62 158.64 87.45 161.83 89.67M155.78 91.07L155.78 91.1C155.51 91.36 155.1 91.35 154.84 91.08C154.58 90.81 154.59 90.39 154.86 90.13L154.89 90.13L155.78 91.07ZM162.18 89.13L162.21 89.12C162.52 89.34 162.59 89.75 162.38 90.05C162.17 90.36 161.76 90.43 161.45 90.22L161.45 90.19L162.18 89.13Z" fill="#FFFFFF" fill-opacity="1.000000" fill-rule="nonzero"/>
	<path id="path558" d="M155.32 90.62C155.32 90.62 158.64 87.45 161.83 89.67" stroke="#1A2E35" stroke-opacity="1.000000" stroke-width="1.333333" stroke-linejoin="round" stroke-linecap="round"/>
	<path id="path562" d="M170.45 61.36C165.41 62.97 156.92 64.92 149.99 62.83C139.38 59.63 142.98 71.57 140.58 74.86" stroke="#808080" stroke-opacity="1.000000" stroke-width="1.333333" stroke-linejoin="round" stroke-linecap="round"/>
	<path id="path566" d="M174.82 59.77C174.82 59.77 173.97 60.14 172.54 60.65" stroke="#808080" stroke-opacity="1.000000" stroke-width="1.333333" stroke-linejoin="round" stroke-linecap="round"/>
	<path id="path570" d="M162.08 67.3C161.52 67.13 160.92 66.93 160.31 66.7" stroke="#808080" stroke-opacity="1.000000" stroke-width="1.333333" stroke-linejoin="round" stroke-linecap="round"/>
	<path id="path574" d="M173.65 65.9C173.65 65.9 171.39 69.39 164.11 67.83" stroke="#808080" stroke-opacity="1.000000" stroke-width="1.333333" stroke-linejoin="round" stroke-linecap="round"/>
	<path id="path578" d="M146.57 72.73C146.12 75.77 144.97 80.17 142.05 84.15" stroke="#808080" stroke-opacity="1.000000" stroke-width="1.333333" stroke-linejoin="round" stroke-linecap="round"/>
	<path id="path582" d="M146.85 68.96C146.85 68.96 146.87 69.68 146.78 70.87" stroke="#808080" stroke-opacity="1.000000" stroke-width="1.333333" stroke-linejoin="round" stroke-linecap="round"/>
	<g opacity="0.300003">
		<g opacity="0.300003">
			<g opacity="0.300003">
				<path id="path592" d="M137.36 183.34C138.22 184.11 137.72 185.52 136.57 185.53C129.37 185.56 109.95 185.61 102.41 185.18C93.08 184.65 100.2 174.5 107.71 178.37C114.62 181.94 129.16 176 137.36 183.34Z" fill="#000000" fill-opacity="1.000000" fill-rule="nonzero"/>
			</g>
		</g>
	</g>
	<path id="path602" d="M218.56 173.34C218.56 173.34 214.2 161.73 203.26 163.58C192.21 165.44 200.68 174.58 205.94 175.39C205.94 175.39 206.74 172.21 218.56 173.34Z" fill="#FFFFFF" fill-opacity="1.000000" fill-rule="nonzero"/>
	<path id="path606" d="M203.26 163.58C192.21 165.44 200.68 174.58 205.94 175.39C205.94 175.39 206.74 172.21 218.56 173.34C218.56 173.34 214.2 161.73 203.26 163.58Z" stroke="#1A2E35" stroke-opacity="1.000000" stroke-width="1.333333" stroke-linejoin="round"/>
	<path id="path610" d="M227.82 179.93C229.26 181.38 232.73 181.5 230.4 178.37C227.82 174.91 224.92 173.75 222.93 172.87C217.74 170.55 215.72 171.01 211.03 169.99C206.33 168.96 205.45 170.87 203.83 171.76C199.96 173.88 199.03 174.25 198.05 176.38C197.08 178.51 196.01 181.29 199.03 181.29C201.79 181.29 201.96 176.73 204.63 176.91C207.3 177.09 208.63 181.29 210.49 181.29L211.2 181.29C212.8 181.29 212.89 179.95 211.91 177.86C210.93 175.77 209.87 173.89 209.87 173.89C209.87 173.89 212.19 174.94 213.47 177.67C214.75 180.39 214.99 181.53 217.34 181.53C219.69 181.53 219.53 179.79 217.19 175.93C217.19 175.93 219.3 177.08 220.45 179.26C221.6 181.44 222.2 181.29 223.71 181.29C225.69 181.29 225.55 178.02 222.04 175.89C222.04 175.89 222.82 174.93 227.82 179.93Z" fill="#FFFFFF" fill-opacity="1.000000" fill-rule="nonzero"/>
	<path id="path614" d="M230.4 178.37C227.82 174.91 224.92 173.75 222.93 172.87C217.74 170.55 215.72 171.01 211.03 169.99C206.33 168.96 205.45 170.87 203.83 171.76C199.96 173.88 199.03 174.25 198.05 176.38C197.08 178.51 196.01 181.29 199.03 181.29C201.79 181.29 201.96 176.73 204.63 176.91C207.3 177.09 208.63 181.29 210.49 181.29L211.2 181.29C212.8 181.29 212.89 179.95 211.91 177.86C210.93 175.77 209.87 173.89 209.87 173.89C209.87 173.89 212.19 174.94 213.47 177.67C214.75 180.39 214.99 181.53 217.34 181.53C219.69 181.53 219.53 179.79 217.19 175.93C217.19 175.93 219.3 177.08 220.45 179.26C221.6 181.44 222.2 181.29 223.71 181.29C225.69 181.29 225.55 178.02 222.04 175.89C222.04 175.89 222.82 174.93 227.82 179.93C229.26 181.38 232.73 181.5 230.4 178.37Z" stroke="#1A2E35" stroke-opacity="1.000000" stroke-width="1.333333" stroke-linejoin="round"/>
	<path id="path618" d="M214.11 172.13C214.11 172.13 215.49 172.07 216.36 174.4M214.16 172.61L214.14 172.63C213.86 172.65 213.63 172.44 213.61 172.16C213.6 171.88 213.81 171.65 214.09 171.64L214.11 171.65L214.16 172.61ZM216.8 174.21L216.83 174.23C216.92 174.49 216.79 174.77 216.53 174.87C216.27 174.97 215.99 174.84 215.89 174.57L215.9 174.55L216.8 174.21Z" fill="#FFFFFF" fill-opacity="1.000000" fill-rule="nonzero"/>
	<path id="path618" d="M214.11 172.13C214.11 172.13 215.49 172.07 216.36 174.4" stroke="#1A2E35" stroke-opacity="1.000000" stroke-width="1.000000" stroke-linejoin="round" stroke-linecap="round"/>
	<path id="path630" d="M38.91 71.75C32.11 77.09 25.56 82.9 19.29 89.17" stroke="#1A2E35" stroke-opacity="1.000000" stroke-width="1.000000" stroke-linejoin="round" stroke-linecap="round"/>
	<path id="path634" d="M46.35 66.15C45.05 67.09 43.75 68.04 42.47 69.01" stroke="#1A2E35" stroke-opacity="1.000000" stroke-width="1.000000" stroke-linejoin="round" stroke-linecap="round"/>
	<path id="path638" d="M53.78 61.04C52.45 61.92 51.12 62.82 49.79 63.73" stroke="#1A2E35" stroke-opacity="1.000000" stroke-width="1.000000" stroke-linejoin="round" stroke-linecap="round"/>
	<path id="path642" d="M108.33 35.24C90.89 40.67 74 48.35 58.11 58.27" stroke="#1A2E35" stroke-opacity="1.000000" stroke-width="1.000000" stroke-linejoin="round" stroke-linecap="round"/>
	<path id="path646" d="M119.98 31.96C117.82 32.51 115.66 33.08 113.52 33.69" stroke="#1A2E35" stroke-opacity="1.000000" stroke-width="1.000000" stroke-linejoin="round" stroke-linecap="round"/>
	<path id="path650" d="M131.95 29.31C129.61 29.76 127.27 30.25 124.94 30.77" stroke="#1A2E35" stroke-opacity="1.000000" stroke-width="1.000000" stroke-linejoin="round" stroke-linecap="round"/>
	<path id="path654" d="M142.63 27.52C140.61 27.81 138.59 28.12 136.58 28.47" stroke="#1A2E35" stroke-opacity="1.000000" stroke-width="1.000000" stroke-linejoin="round" stroke-linecap="round"/>
	<path id="path658" d="M206.94 27.95C187.17 24.88 167.07 24.54 147.23 26.92" stroke="#1A2E35" stroke-opacity="1.000000" stroke-width="1.000000" stroke-linejoin="round" stroke-linecap="round"/>
	<path id="path662" d="M215.73 29.5C213.92 29.14 212.1 28.81 210.28 28.5" stroke="#1A2E35" stroke-opacity="1.000000" stroke-width="1.000000" stroke-linejoin="round" stroke-linecap="round"/>
	<path id="path666" d="M224.27 31.37C222.45 30.93 220.63 30.52 218.81 30.13" stroke="#1A2E35" stroke-opacity="1.000000" stroke-width="1.000000" stroke-linejoin="round" stroke-linecap="round"/>
	<path id="path670" d="M234.77 34.16C232.91 33.62 231.05 33.1 229.19 32.61" stroke="#1A2E35" stroke-opacity="1.000000" stroke-width="1.000000" stroke-linejoin="round" stroke-linecap="round"/>
	<path id="path674" d="M298.22 64.66C280.26 52.07 260.83 42.51 240.64 35.97" stroke="#1A2E35" stroke-opacity="1.000000" stroke-width="1.000000" stroke-linejoin="round" stroke-linecap="round"/>
	<path id="path678" d="M306.79 70.99C305.12 69.69 303.44 68.42 301.74 67.18" stroke="#1A2E35" stroke-opacity="1.000000" stroke-width="1.000000" stroke-linejoin="round" stroke-linecap="round"/>
	<path id="path682" d="M315.38 78.02C313.56 76.45 311.71 74.91 309.84 73.4" stroke="#1A2E35" stroke-opacity="1.000000" stroke-width="1.000000" stroke-linejoin="round" stroke-linecap="round"/>
	<path id="path686" d="M327.39 89.17C324.89 86.67 322.34 84.24 319.75 81.89" stroke="#1A2E35" stroke-opacity="1.000000" stroke-width="1.000000" stroke-linejoin="round" stroke-linecap="round"/>
	<path id="path690" d="M244.01 50.22C244.01 64.87 255.88 76.75 270.53 76.75C285.18 76.75 297.06 64.87 297.06 50.22C297.06 35.57 285.18 23.7 270.53 23.7C255.88 23.7 244.01 35.57 244.01 50.22Z" fill="#38BFF2" fill-opacity="1.000000" fill-rule="nonzero"/>
	<g opacity="0.300003">
		<g opacity="0.300003">
			<g opacity="0.300003">
				<path id="path708" d="M244.41 49.59C244.41 64.24 256.29 76.11 270.94 76.11C285.59 76.11 297.46 64.24 297.46 49.59C297.46 34.94 285.59 23.06 270.94 23.06C256.29 23.06 244.41 34.94 244.41 49.59Z" fill="#FFFFFF" fill-opacity="1.000000" fill-rule="nonzero"/>
			</g>
		</g>
	</g>
	<path id="path726" d="M270.53 76.75C285.18 76.75 297.06 64.87 297.06 50.22C297.06 35.57 285.18 23.7 270.53 23.7C255.88 23.7 244.01 35.57 244.01 50.22C244.01 64.87 255.88 76.75 270.53 76.75Z" stroke="#1A2E35" stroke-opacity="1.000000" stroke-width="1.000000" stroke-linejoin="round"/>
	<path id="path746" d="M321.93 124.89L337.23 124.89C344.27 124.89 349.98 119.18 349.98 112.14L349.98 96.84C349.98 89.8 344.27 84.09 337.23 84.09L321.93 84.09C314.89 84.09 309.18 89.8 309.18 96.84L309.18 112.14C309.18 119.18 314.89 124.89 321.93 124.89Z" fill="#38BFF2" fill-opacity="1.000000" fill-rule="nonzero"/>
	<path id="path750" d="M337.23 124.89C344.27 124.89 349.98 119.18 349.98 112.14L349.98 96.84C349.98 89.8 344.27 84.09 337.23 84.09L321.93 84.09C314.89 84.09 309.18 89.8 309.18 96.84L309.18 112.14C309.18 119.18 314.89 124.89 321.93 124.89L337.23 124.89Z" stroke="#1A2E35" stroke-opacity="1.000000" stroke-width="1.000000" stroke-linejoin="round"/>
	<path id="path754" d="M344.37 105.48L344.37 103.51L336.21 99.99L336.21 102.12L341.83 104.49L336.21 106.86L336.21 109L344.37 105.48Z" fill="#FFFFFF" fill-opacity="1.000000" fill-rule="nonzero"/>
	<path id="path758" d="M344.37 103.51L336.21 99.99L336.21 102.12L341.83 104.49L336.21 106.86L336.21 109L344.37 105.48L344.37 103.51Z" stroke="#1A2E35" stroke-opacity="1.000000" stroke-width="1.000000" stroke-linejoin="round"/>
	<path id="path762" d="M327.17 95.16L324.64 95.16L331.99 113.82L334.53 113.82L327.17 95.16Z" fill="#FFFFFF" fill-opacity="1.000000" fill-rule="nonzero"/>
	<path id="path766" d="M324.64 95.16L331.99 113.82L334.53 113.82L327.17 95.16L324.64 95.16Z" stroke="#1A2E35" stroke-opacity="1.000000" stroke-width="1.000000" stroke-linejoin="round"/>
	<path id="path770" d="M322.95 106.86L317.33 104.49L322.95 102.12L322.95 99.99L314.79 103.51L314.79 105.48L322.95 109L322.95 106.86Z" fill="#FFFFFF" fill-opacity="1.000000" fill-rule="nonzero"/>
	<path id="path774" d="M317.33 104.49L322.95 102.12L322.95 99.99L314.79 103.51L314.79 105.48L322.95 109L322.95 106.86L317.33 104.49Z" stroke="#1A2E35" stroke-opacity="1.000000" stroke-width="1.000000" stroke-linejoin="round"/>
	<path id="path778" d="M59.71 44.22C59.71 56.72 69.84 66.86 82.35 66.86C94.85 66.86 104.99 56.72 104.99 44.22C104.99 31.72 94.85 21.58 82.35 21.58C69.84 21.58 59.71 31.72 59.71 44.22Z" fill="#38BFF2" fill-opacity="1.000000" fill-rule="nonzero"/>
	<g opacity="0.199997">
		<g opacity="0.199997">
			<g opacity="0.199997">
				<path id="path796" d="M59.56 44.66C59.56 57.16 69.7 67.3 82.2 67.3C94.7 67.3 104.84 57.16 104.84 44.66C104.84 32.15 94.7 22.02 82.2 22.02C69.7 22.02 59.56 32.15 59.56 44.66Z" fill="#000000" fill-opacity="1.000000" fill-rule="nonzero"/>
			</g>
		</g>
	</g>
	<path id="path814" d="M82.35 66.86C94.85 66.86 104.99 56.72 104.99 44.22C104.99 31.72 94.85 21.58 82.35 21.58C69.84 21.58 59.71 31.72 59.71 44.22C59.71 56.72 69.84 66.86 82.35 66.86Z" stroke="#1A2E35" stroke-opacity="1.000000" stroke-width="1.000000" stroke-linejoin="round"/>
	<path id="path842" d="M169.13 49.45L189.59 49.45C197.6 49.45 204.09 42.96 204.09 34.95L204.09 14.5C204.09 6.49 197.6 6.1e-5 189.59 6.1e-5L169.13 6.1e-5C161.12 6.1e-5 154.63 6.49 154.63 14.5L154.63 34.95C154.63 42.96 161.12 49.45 169.13 49.45Z" fill="#38BFF2" fill-opacity="1.000000" fill-rule="nonzero"/>
	<path id="path846" d="M189.59 49.45C197.6 49.45 204.09 42.96 204.09 34.95L204.09 14.5C204.09 6.49 197.6 6.1e-5 189.59 6.1e-5L169.13 6.1e-5C161.12 6.1e-5 154.63 6.49 154.63 14.5L154.63 34.95C154.63 42.96 161.12 49.45 169.13 49.45L189.59 49.45Z" stroke="#1A2E35" stroke-opacity="1.000000" stroke-width="1.000000" stroke-linejoin="round"/>
	<path id="path874" d="M-0.09 92.1C-0.09 104.57 10.02 114.68 22.49 114.68C34.97 114.68 45.07 104.57 45.07 92.1C45.07 79.63 34.97 69.52 22.49 69.52C10.02 69.52 -0.09 79.63 -0.09 92.1Z" fill="#38BFF2" fill-opacity="1.000000" fill-rule="nonzero"/>
	<g opacity="0.300003">
		<g opacity="0.300003">
			<g opacity="0.300003">
				<path id="path892" d="M0.51 92.56C0.51 105.03 10.61 115.14 23.09 115.14C35.56 115.14 45.67 105.03 45.67 92.56C45.67 80.09 35.56 69.98 23.09 69.98C10.61 69.98 0.51 80.09 0.51 92.56Z" fill="#FFFFFF" fill-opacity="1.000000" fill-rule="nonzero"/>
			</g>
		</g>
	</g>
	<path id="path910" d="M22.49 114.68C34.97 114.68 45.08 104.57 45.08 92.1C45.08 79.63 34.97 69.52 22.49 69.52C10.02 69.52 -0.09 79.63 -0.09 92.1C-0.09 104.57 10.02 114.68 22.49 114.68Z" stroke="#1A2E35" stroke-opacity="1.000000" stroke-width="1.000000" stroke-linejoin="round"/>
	<path id="path930" d="M289.44 352.13L293.39 352.13L294.46 195.13L289.44 195.13L289.44 352.13Z" fill="#868686" fill-opacity="1.000000" fill-rule="nonzero"/>
	<path id="path934" d="M293.39 352.13L294.46 195.13L289.44 195.13L289.44 352.13L293.39 352.13Z" stroke="#1A2E35" stroke-opacity="1.000000" stroke-width="1.333333" stroke-linejoin="round"/>
	<path id="path938" d="M285.49 352.13L289.44 352.13L289.44 195.13L284.43 195.13L285.49 352.13Z" fill="#9A9A9A" fill-opacity="1.000000" fill-rule="nonzero"/>
	<path id="path942" d="M289.44 352.13L289.44 195.13L284.43 195.13L285.49 352.13L289.44 352.13Z" stroke="#1A2E35" stroke-opacity="1.000000" stroke-width="1.333333" stroke-linejoin="round"/>
	<path id="path944" d="M63.66 195.13L334.7 195.13L334.7 185.51L63.66 185.51L63.66 195.13Z" fill="#1A2E35" fill-opacity="1.000000" fill-rule="nonzero"/>
	<path id="path944" d="M334.7 195.13L334.7 185.51L63.66 185.51L63.66 195.13L334.7 195.13Z" stroke="#1A2E35" stroke-opacity="1.000000" stroke-width="1.333333" stroke-linejoin="round"/>
	<path id="path946" d="M7.02 195.13L67.71 195.13L67.71 185.51L7.02 185.51L7.02 195.13Z" fill="#868686" fill-opacity="1.000000" fill-rule="nonzero"/>
	<path id="path946" d="M67.71 195.13L67.71 185.51L7.02 185.51L7.02 195.13L67.71 195.13Z" stroke="#1A2E35" stroke-opacity="1.000000" stroke-width="1.333333" stroke-linejoin="round"/>
	<path id="path948" d="M51.36 210.97L320.82 210.97L320.82 195.13L51.36 195.13L51.36 210.97Z" fill="#38BFF2" fill-opacity="1.000000" fill-rule="nonzero"/>
	<path id="path948" d="M320.82 210.97L320.82 195.13L51.36 195.13L51.36 210.97L320.82 210.97Z" stroke="#1A2E35" stroke-opacity="1.000000" stroke-width="1.333333"/>
	<path id="path950" d="M51.36 210.97L19.99 210.97L19.99 195.13L51.36 195.13L51.36 210.97Z" fill="#38BFF2" fill-opacity="1.000000" fill-rule="nonzero"/>
	<g opacity="0.300003">
		<g opacity="0.300003">
			<path id="path968" d="M51.36 210.97L19.99 210.97L19.99 195.13L51.36 195.13L51.36 210.97Z" fill="#000000" fill-opacity="1.000000" fill-rule="nonzero"/>
		</g>
	</g>
	<path id="path974" d="M19.99 210.97L19.99 195.13L51.36 195.13L51.36 210.97L19.99 210.97Z" stroke="#1A2E35" stroke-opacity="1.000000" stroke-width="1.333333"/>
	<path id="path978" d="M51.36 352.13L55.31 352.13L56.38 195.13L51.36 195.13L51.36 352.13Z" fill="#868686" fill-opacity="1.000000" fill-rule="nonzero"/>
	<path id="path982" d="M55.31 352.13L56.38 195.13L51.36 195.13L51.36 352.13L55.31 352.13Z" stroke="#1A2E35" stroke-opacity="1.000000" stroke-width="1.333333" stroke-linejoin="round"/>
	<path id="path986" d="M47.41 352.13L51.36 352.13L51.36 195.13L46.34 195.13L47.41 352.13Z" fill="#9A9A9A" fill-opacity="1.000000" fill-rule="nonzero"/>
	<path id="path990" d="M51.36 352.13L51.36 195.13L46.34 195.13L47.41 352.13L51.36 352.13Z" stroke="#1A2E35" stroke-opacity="1.000000" stroke-width="1.333333" stroke-linejoin="round"/>
	<path id="path994" d="M320.82 352.13L324.77 352.13L325.84 195.13L320.82 195.13L320.82 352.13Z" fill="#868686" fill-opacity="1.000000" fill-rule="nonzero"/>
	<path id="path998" d="M324.77 352.13L325.84 195.13L320.82 195.13L320.82 352.13L324.77 352.13Z" stroke="#1A2E35" stroke-opacity="1.000000" stroke-width="1.333333" stroke-linejoin="round"/>
	<path id="path1002" d="M316.87 352.13L320.82 352.13L320.82 195.13L315.8 195.13L316.87 352.13Z" fill="#9A9A9A" fill-opacity="1.000000" fill-rule="nonzero"/>
	<path id="path1006" d="M320.82 352.13L320.82 195.13L315.8 195.13L316.87 352.13L320.82 352.13Z" stroke="#1A2E35" stroke-opacity="1.000000" stroke-width="1.333333" stroke-linejoin="round"/>
	<path id="path1010" d="M19.99 352.13L23.94 352.13L25 195.13L19.99 195.13L19.99 352.13Z" fill="#868686" fill-opacity="1.000000" fill-rule="nonzero"/>
	<path id="path1014" d="M23.94 352.13L25 195.13L19.99 195.13L19.99 352.13L23.94 352.13Z" stroke="#1A2E35" stroke-opacity="1.000000" stroke-width="1.333333" stroke-linejoin="round"/>
	<path id="path1018" d="M16.03 352.13L19.99 352.13L19.99 195.13L14.97 195.13L16.03 352.13Z" fill="#9A9A9A" fill-opacity="1.000000" fill-rule="nonzero"/>
	<path id="path1022" d="M19.99 352.13L19.99 195.13L14.97 195.13L16.03 352.13L19.99 352.13Z" stroke="#1A2E35" stroke-opacity="1.000000" stroke-width="1.333333" stroke-linejoin="round"/>
	<path id="path1034" d="M159.55 184.45L191.32 184.45C191.97 184.45 192.49 183.92 192.49 183.27L192.49 180.65L158.37 181.71L158.37 183.27C158.37 183.92 158.9 184.45 159.55 184.45Z" fill="#868686" fill-opacity="1.000000" fill-rule="nonzero"/>
	<path id="path1038" d="M191.32 184.45C191.97 184.45 192.49 183.92 192.49 183.27L192.49 180.65L158.37 181.71L158.37 183.27C158.37 183.92 158.9 184.45 159.55 184.45L191.32 184.45Z" stroke="#1A2E35" stroke-opacity="1.000000" stroke-width="1.333333" stroke-linejoin="round"/>
	<path id="path1042" d="M196.04 184.45L259.9 184.45C260.92 184.45 261.92 183.69 262.23 182.68L275.94 138.17C276.31 136.95 275.55 135.87 274.32 135.87L210.46 135.87C209.44 135.87 208.44 136.63 208.13 137.64L194.42 182.14C194.05 183.36 194.81 184.45 196.04 184.45Z" fill="#9A9A9A" fill-opacity="1.000000" fill-rule="nonzero"/>
	<path id="path1046" d="M259.9 184.45C260.92 184.45 261.92 183.69 262.23 182.68L275.94 138.17C276.31 136.95 275.55 135.87 274.32 135.87L210.46 135.87C209.44 135.87 208.44 136.63 208.13 137.64L194.42 182.14C194.05 183.36 194.81 184.45 196.04 184.45L259.9 184.45Z" stroke="#1A2E35" stroke-opacity="1.000000" stroke-width="1.333333" stroke-linejoin="round"/>
	<path id="path1050" d="M191.55 182.14L205.26 137.64C205.57 136.63 206.57 135.87 207.59 135.87L210.46 135.87C209.44 135.87 208.44 136.63 208.13 137.64L194.42 182.14C194.05 183.36 194.81 184.45 196.04 184.45L193.17 184.45C191.94 184.45 191.18 183.36 191.55 182.14Z" fill="#868686" fill-opacity="1.000000" fill-rule="nonzero"/>
	<path id="path1054" d="M205.26 137.64C205.57 136.63 206.57 135.87 207.59 135.87L210.46 135.87C209.44 135.87 208.44 136.63 208.13 137.64L194.42 182.14C194.05 183.36 194.81 184.45 196.04 184.45L193.17 184.45C191.94 184.45 191.18 183.36 191.55 182.14L205.26 137.64Z" stroke="#1A2E35" stroke-opacity="1.000000" stroke-width="1.333333" stroke-linejoin="round"/>
	<path id="path1058" d="M231.23 160.16C230.96 162.34 232.51 164.11 234.7 164.11C236.88 164.11 238.86 162.34 239.13 160.16C239.4 157.98 237.85 156.21 235.67 156.21C233.48 156.21 231.5 157.98 231.23 160.16Z" fill="#FFFFFF" fill-opacity="1.000000" fill-rule="nonzero"/>
	<path id="path1062" d="M234.7 164.11C236.88 164.11 238.86 162.34 239.13 160.16C239.4 157.98 237.85 156.21 235.67 156.21C233.48 156.21 231.5 157.98 231.23 160.16C230.96 162.34 232.51 164.11 234.7 164.11Z" stroke="#1A2E35" stroke-opacity="1.000000" stroke-width="1.333333" stroke-linejoin="round"/>
	<path id="path738" d="M86.23 52.03L86.65 52.03C87.55 52.03 88.01 51.62 88.01 50.2L88.01 46.34C88.01 45.41 88.35 44.43 89.59 44.07L89.59 44.02C88.35 43.66 88.01 42.68 88.01 41.75L88.01 37.88C88.01 36.46 87.55 36.05 86.65 36.05L86.23 36.05L86.23 33.73L87.68 33.73C89.28 33.73 90.54 34.63 90.54 36.59L90.54 41.34C90.54 42.52 90.87 42.88 92.16 42.88L92.16 45.2C90.87 45.2 90.54 45.56 90.54 46.75L90.54 51.49C90.54 53.45 89.28 54.35 87.68 54.35L86.23 54.35L86.23 52.03Z" fill="#FFFFFF" fill-opacity="1.000000" fill-rule="nonzero"/>
	<path id="path742" d="M86.39 52.3C87.35 52.3 87.84 51.87 87.84 50.4L87.84 46.39C87.84 45.43 88.2 44.41 89.51 44.04L89.51 43.98C88.2 43.61 87.84 42.59 87.84 41.63L87.84 37.61C87.84 36.14 87.35 35.72 86.39 35.72L85.96 35.72L85.96 33.31L87.49 33.31C89.18 33.31 90.53 34.24 90.53 36.28L90.53 41.2C90.53 42.43 90.88 42.81 92.25 42.81L92.25 45.21C90.88 45.21 90.53 45.59 90.53 46.82L90.53 51.74C90.53 53.77 89.18 54.71 87.49 54.71L85.96 54.71L85.96 52.3L86.39 52.3Z" stroke="#1A2E35" stroke-opacity="1.000000" stroke-width="1.000000" stroke-linejoin="round"/>
	<path id="path738" d="M79.38 52.03L78.97 52.03C78.07 52.03 77.6 51.62 77.6 50.2L77.6 46.34C77.6 45.41 77.27 44.43 76.03 44.07L76.03 44.02C77.27 43.66 77.6 42.68 77.6 41.75L77.6 37.88C77.6 36.46 78.07 36.05 78.97 36.05L79.38 36.05L79.38 33.73L77.94 33.73C76.34 33.73 75.08 34.63 75.08 36.59L75.08 41.34C75.08 42.52 74.75 42.88 73.46 42.88L73.46 45.2C74.75 45.2 75.08 45.56 75.08 46.75L75.08 51.49C75.08 53.45 76.34 54.35 77.94 54.35L79.38 54.35L79.38 52.03Z" fill="#FFFFFF" fill-opacity="1.000000" fill-rule="nonzero"/>
	<path id="path742" d="M79.22 52.3C78.26 52.3 77.77 51.87 77.77 50.4L77.77 46.39C77.77 45.43 77.42 44.41 76.1 44.04L76.1 43.98C77.42 43.61 77.77 42.59 77.77 41.63L77.77 37.61C77.77 36.14 78.26 35.72 79.22 35.72L79.66 35.72L79.66 33.31L78.13 33.31C76.43 33.31 75.09 34.24 75.09 36.28L75.09 41.2C75.09 42.43 74.74 42.81 73.37 42.81L73.37 45.21C74.74 45.21 75.09 45.59 75.09 46.82L75.09 51.74C75.09 53.77 76.43 54.71 78.13 54.71L79.66 54.71L79.66 52.3L79.22 52.3Z" stroke="#1A2E35" stroke-opacity="1.000000" stroke-width="1.000000" stroke-linejoin="round"/>
	<mask id="mask_15_991" fill="white">
		<path id="Subtract" d="M184.299 31.7226L184.299 34.6619C184.299 36.5288 181.074 37.0055 179.294 37.0055L176.117 37.0055C174.621 36.8996 172.939 36.4097 172.939 34.6619L172.939 31.6034C172.939 28.3786 175.553 25.7644 178.778 25.7644C182.354 25.7644 185.252 22.8656 185.252 19.2898L188.112 19.2898C188.894 19.4752 190.456 20.8469 190.456 24.8508C190.456 29.2377 185.866 30.7295 181.479 30.7295L178.58 30.7295L178.58 31.7226L184.299 31.7226ZM182.313 33.7484C181.962 33.7484 181.678 34.033 181.678 34.3839C181.678 34.735 181.962 35.0195 182.313 35.0195C182.665 35.0195 182.949 34.735 182.949 34.3839C182.949 34.033 182.665 33.7484 182.313 33.7484Z" clip-rule="evenodd" fill="" fill-opacity="1.000000" fill-rule="evenodd"/>
	</mask>
	<path id="Subtract" d="M184.299 31.7226L184.299 34.6619C184.299 36.5288 181.074 37.0055 179.294 37.0055L176.117 37.0055C174.621 36.8996 172.939 36.4097 172.939 34.6619L172.939 31.6034C172.939 28.3786 175.553 25.7644 178.778 25.7644C182.354 25.7644 185.252 22.8656 185.252 19.2898L188.112 19.2898C188.894 19.4752 190.456 20.8469 190.456 24.8508C190.456 29.2377 185.866 30.7295 181.479 30.7295L178.58 30.7295L178.58 31.7226L184.299 31.7226ZM182.313 33.7484C181.962 33.7484 181.678 34.033 181.678 34.3839C181.678 34.735 181.962 35.0195 182.313 35.0195C182.665 35.0195 182.949 34.735 182.949 34.3839C182.949 34.033 182.665 33.7484 182.313 33.7484Z" clip-rule="evenodd" fill="#FFFFFF" fill-opacity="1.000000" fill-rule="evenodd" mask="url(#mask_15_991)"/>
	<path id="Subtract" d="M185.299 34.6619L185.299 31.3297C186.352 31.0912 187.283 30.7526 188.09 30.3139C189.131 29.7484 189.936 29.034 190.505 28.1704C191.139 27.2088 191.456 26.1023 191.456 24.8508C191.456 23.8356 191.362 22.9173 191.175 22.0961C191.005 21.3562 190.764 20.7067 190.448 20.1475C190.165 19.6443 189.833 19.2321 189.455 18.9109C189.094 18.605 188.723 18.407 188.343 18.3168L188.229 18.2898L184.252 18.2898L184.252 19.2898C184.252 20.0328 184.109 20.743 183.823 21.4204C183.546 22.0753 183.155 22.6554 182.649 23.1609C182.144 23.6664 181.563 24.0576 180.909 24.3346C180.231 24.6211 179.521 24.7644 178.778 24.7644C177.851 24.7644 176.963 24.9436 176.116 25.3022C175.297 25.6483 174.573 26.1367 173.942 26.7675C173.312 27.3982 172.823 28.1227 172.477 28.941C172.118 29.7888 171.939 30.6762 171.939 31.6034L171.939 34.6619C171.939 35.2677 172.084 35.8056 172.374 36.2757C172.633 36.6949 172.996 37.0408 173.463 37.3133C174.123 37.6978 174.983 37.9278 176.046 38.003L176.082 38.0055L179.294 38.0055C179.844 38.0055 180.398 37.968 180.959 37.893C181.64 37.8021 182.25 37.6643 182.788 37.4798C183.483 37.2416 184.037 36.9309 184.449 36.5478C184.712 36.3024 184.916 36.0298 185.06 35.73C185.219 35.3956 185.299 35.0395 185.299 34.6619ZM182.015 31.7226L178.58 31.7226L178.58 30.7295L181.479 30.7295C181.651 30.7295 181.823 30.7272 181.995 30.7226C186.218 30.6081 190.456 29.0658 190.456 24.8508C190.456 20.8469 188.894 19.4752 188.112 19.2898L185.252 19.2898C185.252 22.8656 182.354 25.7644 178.778 25.7644C175.553 25.7644 172.939 28.3786 172.939 31.6034L172.939 34.6619C172.939 36.4097 174.621 36.8996 176.117 37.0055L179.294 37.0055C181.074 37.0055 184.299 36.5288 184.299 34.6619L184.299 31.7226L182.015 31.7226ZM181.678 34.3839C181.678 34.033 181.962 33.7484 182.313 33.7484C182.665 33.7484 182.949 34.033 182.949 34.3839C182.949 34.735 182.665 35.0195 182.313 35.0195C181.962 35.0195 181.678 34.735 181.678 34.3839ZM182.453 34.722Q182.389 34.7484 182.313 34.7484C182.213 34.7484 182.127 34.7128 182.056 34.6417Q182.003 34.5881 181.976 34.5235Q181.949 34.4592 181.949 34.3839Q181.949 34.3087 181.976 34.2444Q182.003 34.1797 182.056 34.1262C182.127 34.0551 182.213 34.0195 182.313 34.0195Q182.389 34.0195 182.453 34.0459Q182.518 34.0726 182.571 34.1262Q182.625 34.1797 182.652 34.2444Q182.678 34.3087 182.678 34.3839Q182.678 34.4592 182.652 34.5235Q182.625 34.5881 182.571 34.6417Q182.518 34.6953 182.453 34.722Z" clip-rule="evenodd" fill="#1A2E35" fill-opacity="1.000000" fill-rule="evenodd"/>
	<mask id="mask_15_992" fill="white">
		<path id="Subtract" d="M172.781 18.5351L172.781 15.5958C172.781 13.7289 176.006 13.2522 177.786 13.2522L180.963 13.2522C182.459 13.3581 184.141 13.848 184.141 15.5958L184.141 18.6543C184.141 21.8791 181.527 24.4933 178.302 24.4933C174.726 24.4933 171.828 27.3921 171.828 30.9679L168.968 30.9679C168.187 30.7825 166.624 29.4108 166.624 25.4069C166.624 21.02 171.214 19.5282 175.601 19.5282L178.5 19.5282L178.5 18.5351L172.781 18.5351ZM174.767 16.5094C175.118 16.5094 175.402 16.2248 175.402 15.8738C175.402 15.5228 175.118 15.2383 174.767 15.2383C174.416 15.2383 174.131 15.5228 174.131 15.8738C174.131 16.2248 174.416 16.5094 174.767 16.5094Z" clip-rule="evenodd" fill="" fill-opacity="1.000000" fill-rule="evenodd"/>
	</mask>
	<path id="Subtract" d="M172.781 18.5351L172.781 15.5958C172.781 13.7289 176.006 13.2522 177.786 13.2522L180.963 13.2522C182.459 13.3581 184.141 13.848 184.141 15.5958L184.141 18.6543C184.141 21.8791 181.527 24.4933 178.302 24.4933C174.726 24.4933 171.828 27.3921 171.828 30.9679L168.968 30.9679C168.187 30.7825 166.624 29.4108 166.624 25.4069C166.624 21.02 171.214 19.5282 175.601 19.5282L178.5 19.5282L178.5 18.5351L172.781 18.5351ZM174.767 16.5094C175.118 16.5094 175.402 16.2248 175.402 15.8738C175.402 15.5228 175.118 15.2383 174.767 15.2383C174.416 15.2383 174.131 15.5228 174.131 15.8738C174.131 16.2248 174.416 16.5094 174.767 16.5094Z" clip-rule="evenodd" fill="#FFFFFF" fill-opacity="1.000000" fill-rule="evenodd" mask="url(#mask_15_992)"/>
	<path id="Subtract" d="M171.781 15.5958L171.781 18.928C170.728 19.1665 169.797 19.5051 168.99 19.9438C167.949 20.5092 167.144 21.2237 166.575 22.0872C165.941 23.0489 165.624 24.1554 165.624 25.4069C165.624 26.4221 165.718 27.3404 165.905 28.1616C166.075 28.9015 166.316 29.551 166.632 30.1102C166.915 30.6134 167.247 31.0256 167.625 31.3467C167.986 31.6527 168.357 31.8507 168.737 31.9409L168.851 31.9679L172.828 31.9679L172.828 30.9679C172.828 30.2249 172.971 29.5147 173.257 28.8372C173.534 28.1824 173.925 27.6023 174.431 27.0968C174.937 26.5913 175.517 26.2001 176.171 25.9231C176.849 25.6366 177.559 25.4933 178.302 25.4933C179.229 25.4933 180.117 25.3141 180.964 24.9555C181.783 24.6093 182.507 24.1209 183.138 23.4902C183.769 22.8595 184.257 22.135 184.603 21.3167C184.962 20.4689 185.141 19.5815 185.141 18.6543L185.141 15.5958C185.141 14.99 184.996 14.4521 184.706 13.982C184.447 13.5628 184.084 13.2169 183.617 12.9444C182.958 12.5598 182.097 12.3299 181.034 12.2547L180.999 12.2522L177.786 12.2522C177.236 12.2522 176.682 12.2897 176.121 12.3647C175.44 12.4556 174.83 12.5934 174.292 12.7779C173.597 13.0161 173.043 13.3268 172.631 13.7099C172.368 13.9553 172.164 14.2279 172.021 14.5276C171.861 14.8621 171.781 15.2182 171.781 15.5958ZM175.065 18.5351L178.5 18.5351L178.5 19.5282L175.601 19.5282C175.429 19.5282 175.257 19.5305 175.085 19.5351C170.862 19.6495 166.624 21.1919 166.624 25.4069C166.624 29.4108 168.187 30.7825 168.968 30.9679L171.828 30.9679C171.828 27.3921 174.726 24.4933 178.302 24.4933C181.527 24.4933 184.141 21.8791 184.141 18.6543L184.141 15.5958C184.141 13.848 182.459 13.3581 180.963 13.2522L177.786 13.2522C176.006 13.2522 172.781 13.7289 172.781 15.5958L172.781 18.5351L175.065 18.5351ZM175.402 15.8738C175.402 16.2248 175.118 16.5094 174.767 16.5094C174.416 16.5094 174.131 16.2248 174.131 15.8738C174.131 15.5228 174.416 15.2383 174.767 15.2383C175.118 15.2383 175.402 15.5228 175.402 15.8738ZM174.628 15.5358Q174.692 15.5094 174.767 15.5094C174.868 15.5094 174.954 15.545 175.024 15.6161C175.096 15.6873 175.131 15.7732 175.131 15.8738Q175.131 15.9491 175.105 16.0134Q175.078 16.078 175.024 16.1315C174.954 16.2027 174.868 16.2383 174.767 16.2383Q174.692 16.2383 174.628 16.2119Q174.563 16.1852 174.509 16.1315Q174.456 16.078 174.429 16.0134Q174.402 15.9491 174.402 15.8738C174.402 15.7732 174.438 15.6873 174.509 15.6161Q174.563 15.5625 174.628 15.5358Z" clip-rule="evenodd" fill="#1A2E35" fill-opacity="1.000000" fill-rule="evenodd"/>
	<rect id="Rectangle 289" x="14.199707" y="82.412292" rx="1.000000" width="17.625641" height="3.776922" fill="#FFFFFF" fill-opacity="1.000000"/>
	<rect id="Rectangle 289" x="13.699707" y="81.912292" rx="1.000000" width="18.625641" height="4.776922" stroke="#1A2E35" stroke-opacity="1.000000" stroke-width="1.000000"/>
	<rect id="Rectangle 290" x="14.199707" y="89.966187" rx="1.000000" width="17.625641" height="5.035897" fill="#FFFFFF" fill-opacity="1.000000"/>
	<rect id="Rectangle 290" x="13.699707" y="89.466187" rx="1.000000" width="18.625641" height="6.035897" stroke="#1A2E35" stroke-opacity="1.000000" stroke-width="1.000000"/>
	<rect id="Rectangle 291" x="14.199707" y="98.778992" rx="1.000000" width="17.625641" height="3.776922" fill="#FFFFFF" fill-opacity="1.000000"/>
	<rect id="Rectangle 291" x="13.699707" y="98.278992" rx="1.000000" width="18.625641" height="4.776922" stroke="#1A2E35" stroke-opacity="1.000000" stroke-width="1.000000"/>
	<path id="image 1 (Traced)" d="M270.46 35.88C270.22 35.94 269.9 36.23 268.72 37.4L267.27 38.84L268.85 40.42L270.43 42L270.78 41.93C272.12 41.66 273.48 43.04 273.2 44.38L273.12 44.75L274.61 46.25L276.1 47.75L276.65 47.71C277.63 47.64 278.35 48.04 278.77 48.89C279.1 49.56 279.1 50.09 278.77 50.76C277.98 52.35 275.77 52.36 274.98 50.77C274.8 50.39 274.75 50.21 274.76 49.85C274.76 49.6 274.79 49.31 274.83 49.2C274.9 49.03 274.83 48.94 273.5 47.61L272.09 46.2L272.09 49.94L272.09 53.67L272.45 53.98C273.63 55 273.44 56.75 272.08 57.48C271.68 57.69 271.55 57.73 271.11 57.72C270.24 57.72 269.55 57.29 269.18 56.5C268.73 55.54 269.05 54.38 269.92 53.84L270.28 53.61L270.28 49.83L270.28 46.04L269.92 45.81C269.52 45.56 269.16 45.06 269.04 44.61C268.96 44.32 268.98 43.55 269.07 43.34C269.1 43.26 268.66 42.77 267.56 41.67L266 40.11L261.66 44.46L257.32 48.81L257.22 49.23C257.1 49.78 257.21 50.27 257.55 50.73C257.99 51.33 269.95 63.18 270.29 63.36C270.66 63.55 271.25 63.58 271.69 63.43C271.93 63.35 273.1 62.22 278.28 57.05C283.1 52.24 284.61 50.69 284.72 50.44C284.93 49.99 284.92 49.35 284.71 48.92C284.49 48.48 272.18 36.16 271.78 35.98C271.43 35.82 270.84 35.78 270.46 35.88Z" fill="#FFFFFF" fill-opacity="1.000000" fill-rule="evenodd"/>
	<path id="image 1 (Traced)" d="M270.46 35.88C270.22 35.94 269.9 36.23 268.72 37.4L267.98 38.13L267.27 38.84L267.27 38.84L267.27 38.84L267.98 39.54L268.85 40.42L270.43 42L270.78 41.93C272.12 41.66 273.48 43.04 273.2 44.38L273.12 44.75L274.61 46.25L276.1 47.75L276.65 47.71C277.63 47.64 278.35 48.04 278.77 48.89C279.1 49.56 279.1 50.09 278.77 50.76C277.98 52.35 275.77 52.36 274.98 50.77C274.8 50.39 274.75 50.21 274.76 49.85C274.76 49.6 274.79 49.31 274.83 49.2C274.9 49.03 274.83 48.94 273.5 47.61L273.09 47.2L272.09 46.2L272.09 49.94L272.09 53.67L272.45 53.98C273.63 55 273.44 56.75 272.08 57.48C271.68 57.69 271.55 57.73 271.11 57.72C270.24 57.72 269.55 57.29 269.18 56.5C268.73 55.54 269.05 54.38 269.92 53.84L270.28 53.61L270.28 46.04L269.92 45.81C269.52 45.56 269.16 45.06 269.04 44.61C268.96 44.32 268.98 43.55 269.07 43.34C269.1 43.26 268.66 42.77 267.56 41.67L266.71 40.82L266 40.11L265.29 40.82L261.66 44.46L257.32 48.81L257.22 49.23C257.1 49.78 257.21 50.27 257.55 50.73C257.99 51.33 269.95 63.18 270.29 63.36C270.66 63.55 271.25 63.58 271.69 63.43C271.93 63.35 273.1 62.22 278.28 57.05C283.1 52.24 284.61 50.69 284.72 50.44C284.93 49.99 284.92 49.35 284.71 48.92C284.49 48.48 272.18 36.16 271.78 35.98C271.43 35.82 270.84 35.78 270.46 35.88ZM258.23 49.31L258.2 49.44C258.18 49.55 258.18 49.65 258.19 49.74C258.21 49.88 258.26 50.01 258.36 50.14C258.55 50.4 260.65 52.51 264.66 56.49C268.64 60.44 270.67 62.43 270.75 62.47C270.76 62.48 270.77 62.48 270.78 62.48C270.94 62.56 271.15 62.56 271.38 62.48C271.42 62.47 273.49 60.42 277.57 56.35C281.68 52.24 283.76 50.13 283.81 50.03C283.88 49.89 283.9 49.75 283.89 49.62C283.88 49.54 283.86 49.45 283.81 49.37C283.75 49.24 281.68 47.14 277.6 43.06C273.53 38.99 271.45 36.93 271.36 36.89C271.28 36.85 271.19 36.83 271.1 36.82C270.98 36.8 270.85 36.81 270.72 36.84C270.7 36.85 270.26 37.27 269.42 38.11L269.42 38.11L268.69 38.84L269.56 39.71L270.76 40.92C271.12 40.87 271.46 40.88 271.79 40.95C272.33 41.07 272.84 41.37 273.31 41.85C273.77 42.32 274.07 42.83 274.18 43.37C274.26 43.71 274.26 44.06 274.2 44.43L275.32 45.55L276.49 46.72L276.58 46.72C277.32 46.66 277.96 46.79 278.48 47.1C278.97 47.39 279.37 47.84 279.67 48.45C279.89 48.91 280 49.36 280 49.82C280.01 50.28 279.89 50.74 279.66 51.2C279.37 51.8 278.98 52.25 278.5 52.54C278.04 52.82 277.5 52.96 276.88 52.96C276.25 52.96 275.7 52.82 275.25 52.54C274.77 52.25 274.38 51.81 274.09 51.21C273.88 50.79 273.77 50.36 273.76 49.93C273.76 49.9 273.76 49.87 273.76 49.84C273.76 49.65 273.77 49.48 273.79 49.33C273.64 49.18 273.41 48.94 273.09 48.62L273.09 49.94L273.09 53.21L273.11 53.23C273.57 53.63 273.89 54.08 274.07 54.58C274.22 55 274.27 55.45 274.21 55.94C274.16 56.44 274.02 56.88 273.78 57.25C273.5 57.7 273.09 58.07 272.55 58.36C272.28 58.51 271.99 58.61 271.7 58.67C271.51 58.71 271.31 58.73 271.11 58.72C270.45 58.72 269.88 58.57 269.4 58.27C268.93 57.97 268.56 57.52 268.27 56.93C267.87 56.07 267.77 55.3 267.98 54.63C268.16 54.03 268.6 53.51 269.28 53.06L269.28 46.59C268.97 46.37 268.71 46.11 268.51 45.82C268.31 45.54 268.17 45.22 268.07 44.87C267.94 44.39 267.91 43.95 267.98 43.54C267.75 43.28 267.37 42.9 266.85 42.38L266 41.52L262.37 45.17L258.23 49.31ZM273.86 48.96C273.87 48.92 273.88 48.88 273.9 48.84C273.88 48.88 273.87 48.92 273.86 48.96Z" fill="#1A2E35" fill-opacity="1.000000" fill-rule="evenodd"/>
</svg>
